M48
; DRILL file {KiCad 9.0.1} date 2026-05-06T12:35:47+0300
; FORMAT={-:-/ absolute / inch / decimal}
; #@! TF.CreationDate,2026-05-06T12:35:47+03:00
; #@! TF.GenerationSoftware,Kicad,Pcbnew,9.0.1
; #@! TF.FileFunction,Plated,1,2,PTH
FMAT,2
INCH
; #@! TA.AperFunction,Plated,PTH,ViaDrill
T1C0.0079
; #@! TA.AperFunction,Plated,PTH,ViaDrill
T2C0.0118
; #@! TA.AperFunction,Plated,PTH,ComponentDrill
T3C0.0197
; #@! TA.AperFunction,Plated,PTH,ComponentDrill
T4C0.0236
; #@! TA.AperFunction,Plated,PTH,ComponentDrill
T5C0.0374
; #@! TA.AperFunction,Plated,PTH,ComponentDrill
T6C0.0394
; #@! TA.AperFunction,Plated,PTH,ComponentDrill
T7C0.1181
%
G90
G05
T1
X4.0616Y-3.6453
X4.1049Y-4.7634
X4.1069Y-3.6492
X4.1738Y-4.7634
X4.2801Y-3.4169
X4.2978Y-4.7634
X4.3982Y-4.7634
X4.4081Y-4.5036
X4.4199Y-3.4169
X4.5006Y-4.7634
X4.5478Y-4.5134
X4.5596Y-3.4169
X4.5675Y-4.474
X4.7998Y-4.6177
X4.8529Y-4.1886
X4.8549Y-3.9268
X4.8746Y-3.6118
X4.9002Y-3.6335
X4.9041Y-3.9268
X4.9041Y-4.1886
X4.91Y-3.3953
X5.0557Y-4.6807
X5.0943Y-4.7074
X5.1496Y-4.5925
X5.2126Y-4.6983
X5.2343Y-4.6064
X5.2697Y-4.6634
X5.4783Y-4.5906
X5.4783Y-4.6614
X5.8766Y-4.5803
X5.9041Y-4.5803
X5.9317Y-4.5803
X5.9474Y-4.7634
X5.9474Y-4.789
X5.9474Y-4.8146
X5.9474Y-4.8402
X5.9592Y-4.5803
X5.973Y-4.7634
X5.973Y-4.789
X5.973Y-4.8146
X5.973Y-4.8402
X5.9868Y-4.5803
X6.1659Y-4.5843
X6.1659Y-4.6118
X6.1659Y-4.6394
X6.1718Y-4.3815
X6.2191Y-4.8953
X6.2191Y-4.9209
X6.2447Y-4.8953
X6.2447Y-4.9209
X6.2565Y-4.5508
X6.2703Y-4.8953
X6.2703Y-4.9209
X6.2959Y-4.8953
X6.2959Y-4.9209
X6.3214Y-4.8953
X6.3214Y-4.9209
X6.347Y-4.7417
X6.347Y-4.7673
X6.347Y-4.7929
X6.347Y-4.8185
X6.347Y-4.8441
X6.347Y-4.8697
X6.347Y-4.8953
X6.347Y-4.9209
X6.351Y-4.474
X6.351Y-4.4996
X6.3726Y-4.7417
X6.3726Y-4.7673
X6.3726Y-4.7929
X6.3726Y-4.8185
X6.3726Y-4.8441
X6.3726Y-4.8697
X6.3726Y-4.8953
X6.3726Y-4.9209
X6.4591Y-4.5418
X6.536Y-4.5921
X6.536Y-4.6571
X6.664Y-4.4799
X6.689Y-4.3248
X6.7258Y-4.5744
X6.7289Y-4.6473
X6.8096Y-4.1807
X6.8451Y-4.3559
X6.8943Y-4.163
X6.937Y-3.5492
X7.0183Y-4.289
X7.0183Y-4.35
X7.0321Y-4.5331
X7.0321Y-4.5606
X7.0518Y-4.602
X7.0518Y-4.6295
X7.0518Y-4.6571
X7.1423Y-4.0114
X7.1423Y-4.039
T2
X6.288Y-3.8894
X6.2959Y-3.4957
X6.3313Y-4.5429
X6.5321Y-4.378
X6.6187Y-4.5056
X6.6809Y-4.6847
X6.7017Y-4.0779
X6.7028Y-3.9327
X6.7466Y-4.2536
X6.8372Y-4.5882
X7.0557Y-3.9701
T3
X3.7786Y-3.2367
X3.7786Y-4.8767
X3.8045Y-3.1741
X3.8045Y-3.2993
X3.8045Y-4.8141
X3.8045Y-4.9394
X3.8672Y-3.1481
X3.8672Y-3.3253
X3.8672Y-4.7881
X3.8672Y-4.9653
X3.9298Y-3.1741
X3.9298Y-3.2993
X3.9298Y-4.8141
X3.9298Y-4.9394
X3.9558Y-3.2367
X3.9558Y-4.8767
X5.469Y-4.8767
X5.495Y-4.8141
X5.495Y-4.9394
X5.5576Y-4.7881
X5.5576Y-4.9653
X5.6203Y-4.8141
X5.6203Y-4.9394
X5.6462Y-4.8767
X7.0722Y-3.2367
X7.0981Y-3.1741
X7.0981Y-3.2993
X7.1608Y-3.1481
X7.1608Y-3.3253
X7.2234Y-3.1741
X7.2234Y-3.2993
X7.2493Y-3.2367
T5
X5.8372Y-3.4473
X5.9356Y-3.4473
X6.034Y-3.4473
X6.1325Y-3.4473
T6
X4.1368Y-4.852
X4.2151Y-3.2291
X4.2151Y-3.3291
X4.2368Y-4.852
X4.3368Y-4.852
X4.3549Y-3.2291
X4.3549Y-3.3291
X4.4368Y-4.852
X4.4947Y-3.2291
X4.4947Y-3.3291
X4.5368Y-4.852
X4.6368Y-4.852
X4.7368Y-4.852
X4.8368Y-4.852
X4.9419Y-3.291
X5.0419Y-3.291
X5.0663Y-3.8248
X5.0663Y-3.9248
X5.0663Y-4.0248
X5.0663Y-4.1248
X5.0663Y-4.2248
X5.0663Y-4.3248
X5.0663Y-4.4248
X5.0663Y-4.5248
X5.1419Y-3.291
X5.2419Y-3.291
X5.3419Y-3.291
X5.5663Y-3.8248
X5.5663Y-3.9248
X5.5663Y-4.0248
X5.5663Y-4.1248
X5.5663Y-4.2248
X5.5663Y-4.3248
X5.5663Y-4.4248
X5.5663Y-4.5248
X6.4486Y-3.291
X6.5486Y-3.291
X6.6486Y-3.291
X6.7486Y-3.291
X6.8486Y-3.291
T7
X3.8672Y-3.2367
X3.8672Y-4.8767
X5.5576Y-4.8767
X7.1608Y-3.2367
T4
G00X4.9773Y-4.7514
M15
G01X4.9773Y-4.7947
M16
G05
G00X4.9773Y-4.9219
M15
G01X4.9773Y-4.9534
M16
G05
G00X5.3175Y-4.7514
M15
G01X5.3175Y-4.7947
M16
G05
G00X5.3175Y-4.9219
M15
G01X5.3175Y-4.9534
M16
G05
G00X6.6073Y-4.7494
M15
G01X6.6073Y-4.7927
M16
G05
G00X6.6073Y-4.9199
M15
G01X6.6073Y-4.9514
M16
G05
G00X6.9474Y-4.7494
M15
G01X6.9474Y-4.7927
M16
G05
G00X6.9474Y-4.9199
M15
G01X6.9474Y-4.9514
M16
G05
M30
