%TF.GenerationSoftware,KiCad,Pcbnew,9.0.1*%
%TF.CreationDate,2026-04-18T17:25:42+03:00*%
%TF.ProjectId,hw1,6877312e-6b69-4636-9164-5f7063625858,rev?*%
%TF.SameCoordinates,Original*%
%TF.FileFunction,Paste,Top*%
%TF.FilePolarity,Positive*%
%FSLAX46Y46*%
G04 Gerber Fmt 4.6, Leading zero omitted, Abs format (unit mm)*
G04 Created by KiCad (PCBNEW 9.0.1) date 2026-04-18 17:25:42*
%MOMM*%
%LPD*%
G01*
G04 APERTURE LIST*
G04 Aperture macros list*
%AMRoundRect*
0 Rectangle with rounded corners*
0 $1 Rounding radius*
0 $2 $3 $4 $5 $6 $7 $8 $9 X,Y pos of 4 corners*
0 Add a 4 corners polygon primitive as box body*
4,1,4,$2,$3,$4,$5,$6,$7,$8,$9,$2,$3,0*
0 Add four circle primitives for the rounded corners*
1,1,$1+$1,$2,$3*
1,1,$1+$1,$4,$5*
1,1,$1+$1,$6,$7*
1,1,$1+$1,$8,$9*
0 Add four rect primitives between the rounded corners*
20,1,$1+$1,$2,$3,$4,$5,0*
20,1,$1+$1,$4,$5,$6,$7,0*
20,1,$1+$1,$6,$7,$8,$9,0*
20,1,$1+$1,$8,$9,$2,$3,0*%
G04 Aperture macros list end*
%ADD10C,0.010000*%
%ADD11R,3.500000X2.350000*%
%ADD12RoundRect,0.200000X-0.275000X0.200000X-0.275000X-0.200000X0.275000X-0.200000X0.275000X0.200000X0*%
%ADD13RoundRect,0.112500X-0.187500X-0.112500X0.187500X-0.112500X0.187500X0.112500X-0.187500X0.112500X0*%
%ADD14RoundRect,0.200000X-0.200000X-0.275000X0.200000X-0.275000X0.200000X0.275000X-0.200000X0.275000X0*%
%ADD15RoundRect,0.250000X0.285000X-0.285000X0.285000X0.285000X-0.285000X0.285000X-0.285000X-0.285000X0*%
%ADD16RoundRect,0.075000X0.075000X-0.350000X0.075000X0.350000X-0.075000X0.350000X-0.075000X-0.350000X0*%
%ADD17RoundRect,0.075000X0.350000X-0.075000X0.350000X0.075000X-0.350000X0.075000X-0.350000X-0.075000X0*%
%ADD18RoundRect,0.200000X0.200000X0.275000X-0.200000X0.275000X-0.200000X-0.275000X0.200000X-0.275000X0*%
%ADD19RoundRect,0.225000X0.250000X-0.225000X0.250000X0.225000X-0.250000X0.225000X-0.250000X-0.225000X0*%
%ADD20RoundRect,0.250000X0.250000X0.475000X-0.250000X0.475000X-0.250000X-0.475000X0.250000X-0.475000X0*%
%ADD21RoundRect,0.062500X0.552500X0.187500X-0.552500X0.187500X-0.552500X-0.187500X0.552500X-0.187500X0*%
%ADD22RoundRect,0.250000X0.312500X0.625000X-0.312500X0.625000X-0.312500X-0.625000X0.312500X-0.625000X0*%
%ADD23RoundRect,0.135000X0.185000X-0.135000X0.185000X0.135000X-0.185000X0.135000X-0.185000X-0.135000X0*%
%ADD24RoundRect,0.225000X-0.225000X-0.250000X0.225000X-0.250000X0.225000X0.250000X-0.225000X0.250000X0*%
%ADD25RoundRect,0.250000X-0.650000X0.325000X-0.650000X-0.325000X0.650000X-0.325000X0.650000X0.325000X0*%
%ADD26R,0.400000X0.750000*%
%ADD27RoundRect,0.140000X-0.140000X-0.170000X0.140000X-0.170000X0.140000X0.170000X-0.140000X0.170000X0*%
%ADD28RoundRect,0.200000X0.275000X-0.200000X0.275000X0.200000X-0.275000X0.200000X-0.275000X-0.200000X0*%
%ADD29RoundRect,0.073750X-0.651250X-0.221250X0.651250X-0.221250X0.651250X0.221250X-0.651250X0.221250X0*%
%ADD30R,0.600000X1.450000*%
%ADD31R,0.300000X1.450000*%
%ADD32RoundRect,0.250000X-0.312500X-0.625000X0.312500X-0.625000X0.312500X0.625000X-0.312500X0.625000X0*%
%ADD33RoundRect,0.250000X-0.325000X-0.650000X0.325000X-0.650000X0.325000X0.650000X-0.325000X0.650000X0*%
G04 APERTURE END LIST*
D10*
%TO.C,Q1*%
X245205000Y-119190000D02*
X244680000Y-119190000D01*
X244680000Y-118790000D01*
X245205000Y-118790000D01*
X245205000Y-119190000D01*
G36*
X245205000Y-119190000D02*
G01*
X244680000Y-119190000D01*
X244680000Y-118790000D01*
X245205000Y-118790000D01*
X245205000Y-119190000D01*
G37*
X247210000Y-119050000D02*
X245660000Y-119050000D01*
X245660000Y-117530000D01*
X247210000Y-117530000D01*
X247210000Y-119050000D01*
G36*
X247210000Y-119050000D02*
G01*
X245660000Y-119050000D01*
X245660000Y-117530000D01*
X247210000Y-117530000D01*
X247210000Y-119050000D01*
G37*
X248190000Y-119190000D02*
X247665000Y-119190000D01*
X247665000Y-118790000D01*
X248190000Y-118790000D01*
X248190000Y-119190000D01*
G36*
X248190000Y-119190000D02*
G01*
X247665000Y-119190000D01*
X247665000Y-118790000D01*
X248190000Y-118790000D01*
X248190000Y-119190000D01*
G37*
%TO.C,D50*%
X242560000Y-128262500D02*
X241800000Y-128262500D01*
X241800000Y-127742500D01*
X242560000Y-127742500D01*
X242560000Y-128262500D01*
G36*
X242560000Y-128262500D02*
G01*
X241800000Y-128262500D01*
X241800000Y-127742500D01*
X242560000Y-127742500D01*
X242560000Y-128262500D01*
G37*
X242560000Y-129512500D02*
X241800000Y-129512500D01*
X241800000Y-128992500D01*
X242560000Y-128992500D01*
X242560000Y-129512500D01*
G36*
X242560000Y-129512500D02*
G01*
X241800000Y-129512500D01*
X241800000Y-128992500D01*
X242560000Y-128992500D01*
X242560000Y-129512500D01*
G37*
%TO.C,D11*%
X249310000Y-117280000D02*
X248790000Y-117280000D01*
X248790000Y-116520000D01*
X249310000Y-116520000D01*
X249310000Y-117280000D01*
G36*
X249310000Y-117280000D02*
G01*
X248790000Y-117280000D01*
X248790000Y-116520000D01*
X249310000Y-116520000D01*
X249310000Y-117280000D01*
G37*
X250560000Y-117280000D02*
X250040000Y-117280000D01*
X250040000Y-116520000D01*
X250560000Y-116520000D01*
X250560000Y-117280000D01*
G36*
X250560000Y-117280000D02*
G01*
X250040000Y-117280000D01*
X250040000Y-116520000D01*
X250560000Y-116520000D01*
X250560000Y-117280000D01*
G37*
%TD*%
D11*
%TO.C,L2*%
X221800000Y-137900000D03*
X221800000Y-132200000D03*
%TD*%
D12*
%TO.C,R5*%
X235050000Y-137175000D03*
X235050000Y-138825000D03*
%TD*%
D13*
%TO.C,D4*%
X239985000Y-117690000D03*
X242085000Y-117690000D03*
%TD*%
D14*
%TO.C,R1*%
X240110000Y-119490000D03*
X241760000Y-119490000D03*
%TD*%
D15*
%TO.C,U2*%
X245080000Y-128490000D03*
X246400000Y-128490000D03*
X245080000Y-127170000D03*
X246400000Y-127170000D03*
D16*
X244490000Y-129780000D03*
X244990000Y-129780000D03*
X245490000Y-129780000D03*
X245990000Y-129780000D03*
X246490000Y-129780000D03*
X246990000Y-129780000D03*
D17*
X247690000Y-129080000D03*
X247690000Y-128580000D03*
X247690000Y-128080000D03*
X247690000Y-127580000D03*
X247690000Y-127080000D03*
X247690000Y-126580000D03*
D16*
X246990000Y-125880000D03*
X246490000Y-125880000D03*
X245990000Y-125880000D03*
X245490000Y-125880000D03*
X244990000Y-125880000D03*
X244490000Y-125880000D03*
D17*
X243790000Y-126580000D03*
X243790000Y-127080000D03*
X243790000Y-127580000D03*
X243790000Y-128080000D03*
X243790000Y-128580000D03*
X243790000Y-129080000D03*
%TD*%
D14*
%TO.C,R54*%
X249130000Y-124990000D03*
X250780000Y-124990000D03*
%TD*%
D18*
%TO.C,R18*%
X189935000Y-106500000D03*
X188285000Y-106500000D03*
%TD*%
D19*
%TO.C,C3*%
X240630000Y-130865000D03*
X240630000Y-129315000D03*
%TD*%
D18*
%TO.C,R19*%
X193475000Y-106500000D03*
X191825000Y-106500000D03*
%TD*%
D20*
%TO.C,C7*%
X226300000Y-130500000D03*
X224400000Y-130500000D03*
%TD*%
D21*
%TO.C,D3*%
X242685000Y-133790000D03*
X242685000Y-132490000D03*
X240805000Y-133140000D03*
%TD*%
D22*
%TO.C,R4*%
X243197500Y-123040000D03*
X240272500Y-123040000D03*
%TD*%
D23*
%TO.C,R3*%
X236300000Y-138800000D03*
X236300000Y-137780000D03*
%TD*%
D18*
%TO.C,R55*%
X250835000Y-130040000D03*
X249185000Y-130040000D03*
%TD*%
D24*
%TO.C,C4*%
X240160000Y-121040000D03*
X241710000Y-121040000D03*
%TD*%
D25*
%TO.C,C5*%
X226650000Y-136675000D03*
X226650000Y-139625000D03*
%TD*%
D26*
%TO.C,Q1*%
X245460000Y-120515000D03*
X246110000Y-120515000D03*
X246760000Y-120515000D03*
X247410000Y-120515000D03*
%TD*%
D14*
%TO.C,R11*%
X246055000Y-124040000D03*
X247705000Y-124040000D03*
%TD*%
D18*
%TO.C,R14*%
X198685000Y-103300000D03*
X197035000Y-103300000D03*
%TD*%
D14*
%TO.C,R53*%
X249130000Y-126540000D03*
X250780000Y-126540000D03*
%TD*%
D19*
%TO.C,C1*%
X242180000Y-126465000D03*
X242180000Y-124915000D03*
%TD*%
D27*
%TO.C,C10*%
X248900000Y-120640000D03*
X249860000Y-120640000D03*
%TD*%
%TO.C,C6*%
X233270000Y-135600000D03*
X234230000Y-135600000D03*
%TD*%
D14*
%TO.C,R10*%
X246055000Y-122490000D03*
X247705000Y-122490000D03*
%TD*%
%TO.C,R13*%
X249105000Y-121890000D03*
X250755000Y-121890000D03*
%TD*%
D28*
%TO.C,R21*%
X197450000Y-124675000D03*
X197450000Y-123025000D03*
%TD*%
D29*
%TO.C,U5*%
X229540000Y-136900000D03*
X229540000Y-137850000D03*
X229540000Y-138800000D03*
X231850000Y-138800000D03*
X231850000Y-137850000D03*
X231850000Y-136900000D03*
%TD*%
D20*
%TO.C,C8*%
X226300000Y-128500000D03*
X224400000Y-128500000D03*
%TD*%
D18*
%TO.C,R15*%
X186400000Y-106515000D03*
X184750000Y-106515000D03*
%TD*%
D24*
%TO.C,C2*%
X249180000Y-123440000D03*
X250730000Y-123440000D03*
%TD*%
D30*
%TO.C,J2*%
X242020000Y-135655000D03*
X242820000Y-135655000D03*
D31*
X244020000Y-135655000D03*
X245020000Y-135655000D03*
X245520000Y-135655000D03*
X246520000Y-135655000D03*
D30*
X247720000Y-135655000D03*
X248520000Y-135655000D03*
X248520000Y-135655000D03*
X247720000Y-135655000D03*
D31*
X247020000Y-135655000D03*
X246020000Y-135655000D03*
X244520000Y-135655000D03*
X243520000Y-135655000D03*
D30*
X242820000Y-135655000D03*
X242020000Y-135655000D03*
%TD*%
D32*
%TO.C,R2*%
X249272500Y-118940000D03*
X252197500Y-118940000D03*
%TD*%
D33*
%TO.C,C50*%
X246855000Y-132040000D03*
X249805000Y-132040000D03*
%TD*%
M02*
