M48
; DRILL file {KiCad 9.0.1} date 2026-04-18T17:25:40+0300
; FORMAT={-:-/ absolute / metric / decimal}
; #@! TF.CreationDate,2026-04-18T17:25:40+03:00
; #@! TF.GenerationSoftware,Kicad,Pcbnew,9.0.1
; #@! TF.FileFunction,Plated,1,2,PTH
FMAT,2
METRIC
; #@! TA.AperFunction,Plated,PTH,ViaDrill
T1C0.200
; #@! TA.AperFunction,Plated,PTH,ViaDrill
T2C0.300
; #@! TA.AperFunction,Plated,PTH,ViaDrill
T3C0.400
; #@! TA.AperFunction,Plated,PTH,ComponentDrill
T4C0.500
; #@! TA.AperFunction,Plated,PTH,ComponentDrill
T5C0.600
; #@! TA.AperFunction,Plated,PTH,ComponentDrill
T6C0.889
; #@! TA.AperFunction,Plated,PTH,ComponentDrill
T7C0.950
; #@! TA.AperFunction,Plated,PTH,ComponentDrill
T8C1.000
; #@! TA.AperFunction,Plated,PTH,ComponentDrill
T9C3.000
%
G90
G05
T1
X182.3Y-127.65
X187.36Y-129.55
X194.175Y-131.325
X197.365Y-131.265
X205.4Y-108.5
X206.85Y-112.7
X207.749Y-109.749
X218.8Y-136.8
X218.8Y-137.45
X218.8Y-138.1
X218.8Y-138.75
X218.8Y-139.4
X218.8Y-140.05
X218.8Y-140.7
X219.45Y-136.8
X219.45Y-137.45
X219.45Y-138.1
X219.45Y-138.75
X219.45Y-139.4
X219.45Y-140.05
X219.45Y-140.7
X220.1Y-140.05
X220.1Y-140.7
X220.75Y-140.05
X220.75Y-140.7
X220.85Y-129.9
X220.85Y-130.55
X221.4Y-140.05
X221.4Y-140.7
X221.5Y-129.9
X221.5Y-130.55
X222.05Y-140.05
X222.05Y-140.7
X222.15Y-129.9
X222.15Y-130.55
X222.7Y-140.05
X222.7Y-140.7
X222.8Y-129.9
X222.8Y-130.55
X223.35Y-140.05
X223.35Y-140.7
X225.95Y-135.45
X226.65Y-135.45
X227.35Y-135.45
X227.45Y-128.1
X227.45Y-128.8
X227.45Y-129.5
X227.45Y-130.2
X227.45Y-130.9
X228.2Y-137.75
X229.5Y-140.15
X230.15Y-140.15
X232.5Y-135.6
X239.485Y-130.89
X239.585Y-132.84
X239.585Y-133.44
X240.335Y-133.94
X240.385Y-132.34
X240.935Y-124.94
X241.035Y-133.94
X241.085Y-132.34
X241.38Y-127.29
X241.45Y-121.95
X242.1Y-121.95
X242.135Y-130.29
X242.985Y-134.59
X244.685Y-122.49
X246.01Y-121.44
X247.05Y-124.99
X247.2Y-104.85
X247.585Y-121.44
X248.085Y-132.04
X248.735Y-131.19
X248.785Y-133.29
X249.485Y-133.54
X250.185Y-133.54
X250.985Y-131.14
X250.985Y-131.84
X250.985Y-132.54
X250.985Y-133.24
X251.75Y-123.44
X251.75Y-126.54
X251.8Y-124.99
X251.885Y-130.04
X251.885Y-130.74
T2
X182.0Y-132.45
X192.5Y-119.4
X192.55Y-126.0
X196.702Y-126.05
X197.5Y-121.6
X201.15Y-103.45
X215.125Y-111.275
X228.4Y-139.65
X228.85Y-104.6
X237.95Y-113.95
X244.25Y-101.9
T3
X209.628Y-110.3
T4
X175.35Y-101.2
X175.4Y-137.6
X176.009Y-99.609
X176.009Y-102.791
X176.059Y-136.009
X176.059Y-139.191
X177.6Y-98.95
X177.6Y-103.45
X177.65Y-135.35
X177.65Y-139.85
X179.191Y-99.609
X179.191Y-102.791
X179.241Y-136.009
X179.241Y-139.191
X179.85Y-101.2
X179.9Y-137.6
X210.209Y-137.609
X210.868Y-136.018
X210.868Y-139.2
X212.459Y-135.359
X212.459Y-139.859
X214.05Y-136.018
X214.05Y-139.2
X214.709Y-137.609
X248.45Y-100.8
X249.109Y-99.209
X249.109Y-102.391
X250.7Y-98.55
X250.7Y-103.05
X252.291Y-99.209
X252.291Y-102.391
X252.95Y-100.8
T6
X175.93Y-112.78
X175.93Y-128.02
X178.47Y-112.78
X178.47Y-128.02
X179.74Y-115.399
X179.74Y-125.559
X181.01Y-112.78
X181.01Y-128.02
X182.28Y-115.399
X182.28Y-125.559
X183.55Y-112.78
X183.55Y-128.02
X184.82Y-115.399
X184.82Y-125.559
X186.09Y-112.78
X186.09Y-128.02
X187.36Y-115.399
X187.36Y-125.559
X188.63Y-112.78
X188.63Y-128.02
X189.125Y-119.4
X189.125Y-121.4
X191.17Y-112.78
X191.17Y-128.02
T7
X215.15Y-105.345
X217.65Y-105.345
X220.15Y-105.345
X222.65Y-105.345
T8
X184.61Y-138.5
X184.75Y-100.585
X184.75Y-103.125
X187.15Y-138.5
X188.3Y-100.585
X188.3Y-103.125
X189.69Y-138.5
X191.85Y-100.585
X191.85Y-103.125
X192.23Y-138.5
X194.77Y-138.5
X197.31Y-138.5
X197.58Y-100.55
X199.47Y-112.86
X199.47Y-115.4
X199.47Y-117.94
X199.47Y-120.48
X199.47Y-123.02
X199.47Y-125.56
X199.47Y-128.1
X199.47Y-130.64
X199.85Y-138.5
X200.12Y-100.55
X202.39Y-138.5
X202.66Y-100.55
X205.2Y-100.55
X207.74Y-100.55
X213.13Y-112.86
X213.13Y-115.4
X213.13Y-117.94
X213.13Y-120.48
X213.13Y-123.02
X213.13Y-125.56
X213.13Y-128.1
X213.13Y-130.64
X230.97Y-99.7
X233.51Y-99.7
X236.05Y-99.7
X238.59Y-99.7
X241.13Y-99.7
T9
X177.6Y-101.2
X177.65Y-137.6
X212.459Y-137.609
X250.7Y-100.8
T5
G00X240.95Y-136.02
M15
G01X240.95Y-137.12
M16
G05
G00X240.95Y-140.45
M15
G01X240.95Y-141.05
M16
G05
G00X249.59Y-136.02
M15
G01X249.59Y-137.12
M16
G05
G00X249.59Y-140.45
M15
G01X249.59Y-141.05
M16
G05
M30
