M48
; DRILL file {KiCad 9.0.1} date 2026-04-24T23:51:20+0300
; FORMAT={-:-/ absolute / metric / decimal}
; #@! TF.CreationDate,2026-04-24T23:51:20+03:00
; #@! TF.GenerationSoftware,Kicad,Pcbnew,9.0.1
; #@! TF.FileFunction,Plated,1,2,PTH
FMAT,2
METRIC
; #@! TA.AperFunction,Plated,PTH,ViaDrill
T1C0.200
; #@! TA.AperFunction,Plated,PTH,ViaDrill
T2C0.300
; #@! TA.AperFunction,Plated,PTH,ComponentDrill
T3C0.500
; #@! TA.AperFunction,Plated,PTH,ComponentDrill
T4C0.600
; #@! TA.AperFunction,Plated,PTH,ComponentDrill
T5C0.950
; #@! TA.AperFunction,Plated,PTH,ComponentDrill
T6C1.000
; #@! TA.AperFunction,Plated,PTH,ComponentDrill
T7C3.000
%
G90
G05
T1
X103.165Y-92.59
X104.265Y-120.99
X104.315Y-92.69
X106.015Y-120.99
X108.715Y-86.79
X109.165Y-120.99
X111.715Y-120.99
X111.965Y-114.39
X112.265Y-86.79
X114.315Y-120.99
X115.515Y-114.64
X115.815Y-86.79
X116.015Y-113.64
X121.915Y-117.29
X123.265Y-106.39
X123.315Y-99.74
X123.815Y-91.74
X124.465Y-92.29
X124.565Y-99.74
X124.565Y-106.39
X124.715Y-86.24
X128.415Y-118.89
X129.395Y-119.569
X130.8Y-116.65
X132.399Y-119.336
X132.952Y-117.002
X133.85Y-118.45
X139.15Y-116.6
X139.15Y-118.4
X149.265Y-116.34
X149.965Y-116.34
X150.665Y-116.34
X151.065Y-120.99
X151.065Y-121.64
X151.065Y-122.29
X151.065Y-122.94
X151.365Y-116.34
X151.715Y-120.99
X151.715Y-121.64
X151.715Y-122.29
X151.715Y-122.94
X152.065Y-116.34
X156.615Y-116.44
X156.615Y-117.14
X156.615Y-117.84
X156.765Y-111.29
X157.965Y-124.34
X157.965Y-124.99
X158.615Y-124.34
X158.615Y-124.99
X158.915Y-115.59
X159.265Y-124.34
X159.265Y-124.99
X159.915Y-124.34
X159.915Y-124.99
X160.565Y-124.34
X160.565Y-124.99
X161.215Y-120.44
X161.215Y-121.09
X161.215Y-121.74
X161.215Y-122.39
X161.215Y-123.04
X161.215Y-123.69
X161.215Y-124.34
X161.215Y-124.99
X161.315Y-113.64
X161.315Y-114.29
X161.865Y-120.44
X161.865Y-121.09
X161.865Y-121.74
X161.865Y-122.39
X161.865Y-123.04
X161.865Y-123.69
X161.865Y-124.34
X161.865Y-124.99
X164.061Y-115.361
X166.015Y-116.64
X166.015Y-118.29
X169.265Y-113.79
X169.9Y-109.85
X170.835Y-116.19
X170.915Y-118.04
X172.965Y-106.19
X173.465Y-86.19
X173.865Y-110.64
X175.115Y-105.74
X175.265Y-87.99
X176.515Y-87.84
X178.265Y-108.94
X178.265Y-110.49
X178.615Y-115.14
X178.615Y-115.84
X179.115Y-116.89
X179.115Y-117.59
X179.115Y-118.29
X181.415Y-101.89
X181.415Y-102.59
T2
X159.715Y-98.79
X159.915Y-88.79
X160.815Y-115.39
X165.915Y-111.2
X168.115Y-114.441
X169.695Y-118.99
X170.224Y-103.578
X170.25Y-99.89
X171.365Y-108.04
X173.665Y-116.54
X179.215Y-100.84
T3
X95.976Y-82.212
X95.976Y-123.869
X96.635Y-80.621
X96.635Y-83.803
X96.635Y-122.278
X96.635Y-125.46
X98.226Y-79.962
X98.226Y-84.462
X98.226Y-121.619
X98.226Y-126.119
X99.817Y-80.621
X99.817Y-83.803
X99.817Y-122.278
X99.817Y-125.46
X100.476Y-82.212
X100.476Y-123.869
X138.914Y-123.869
X139.573Y-122.278
X139.573Y-125.46
X141.164Y-121.619
X141.164Y-126.119
X142.755Y-122.278
X142.755Y-125.46
X143.414Y-123.869
X179.633Y-82.212
X180.292Y-80.621
X180.292Y-83.803
X181.883Y-79.962
X181.883Y-84.462
X183.474Y-80.621
X183.474Y-83.803
X184.133Y-82.212
T5
X148.265Y-87.56
X150.765Y-87.56
X153.265Y-87.56
X155.765Y-87.56
T6
X105.075Y-123.24
X107.065Y-82.02
X107.065Y-84.56
X107.615Y-123.24
X110.155Y-123.24
X110.615Y-82.02
X110.615Y-84.56
X112.695Y-123.24
X114.165Y-82.02
X114.165Y-84.56
X115.235Y-123.24
X117.775Y-123.24
X120.315Y-123.24
X122.855Y-123.24
X125.525Y-83.59
X128.065Y-83.59
X128.685Y-97.15
X128.685Y-99.69
X128.685Y-102.23
X128.685Y-104.77
X128.685Y-107.31
X128.685Y-109.85
X128.685Y-112.39
X128.685Y-114.93
X130.605Y-83.59
X133.145Y-83.59
X135.685Y-83.59
X142.345Y-97.15
X142.345Y-99.69
X142.345Y-102.23
X142.345Y-104.77
X142.345Y-107.31
X142.345Y-109.85
X142.345Y-112.39
X142.345Y-114.93
X163.795Y-83.59
X166.335Y-83.59
X168.875Y-83.59
X171.415Y-83.59
X173.955Y-83.59
T7
X98.226Y-82.212
X98.226Y-123.869
X141.164Y-123.869
X181.883Y-82.212
T4
G00X126.425Y-120.685
M15
G01X126.425Y-121.785
M16
G05
G00X126.425Y-125.015
M15
G01X126.425Y-125.815
M16
G05
G00X135.065Y-120.685
M15
G01X135.065Y-121.785
M16
G05
G00X135.065Y-125.015
M15
G01X135.065Y-125.815
M16
G05
G00X167.825Y-120.635
M15
G01X167.825Y-121.735
M16
G05
G00X167.825Y-124.965
M15
G01X167.825Y-125.765
M16
G05
G00X176.465Y-120.635
M15
G01X176.465Y-121.735
M16
G05
G00X176.465Y-124.965
M15
G01X176.465Y-125.765
M16
G05
M30
