%TF.GenerationSoftware,KiCad,Pcbnew,9.0.1*%
%TF.CreationDate,2026-04-18T17:25:42+03:00*%
%TF.ProjectId,hw1,6877312e-6b69-4636-9164-5f7063625858,rev?*%
%TF.SameCoordinates,Original*%
%TF.FileFunction,Soldermask,Bot*%
%TF.FilePolarity,Negative*%
%FSLAX46Y46*%
G04 Gerber Fmt 4.6, Leading zero omitted, Abs format (unit mm)*
G04 Created by KiCad (PCBNEW 9.0.1) date 2026-04-18 17:25:42*
%MOMM*%
%LPD*%
G01*
G04 APERTURE LIST*
G04 Aperture macros list*
%AMRoundRect*
0 Rectangle with rounded corners*
0 $1 Rounding radius*
0 $2 $3 $4 $5 $6 $7 $8 $9 X,Y pos of 4 corners*
0 Add a 4 corners polygon primitive as box body*
4,1,4,$2,$3,$4,$5,$6,$7,$8,$9,$2,$3,0*
0 Add four circle primitives for the rounded corners*
1,1,$1+$1,$2,$3*
1,1,$1+$1,$4,$5*
1,1,$1+$1,$6,$7*
1,1,$1+$1,$8,$9*
0 Add four rect primitives between the rounded corners*
20,1,$1+$1,$2,$3,$4,$5,0*
20,1,$1+$1,$4,$5,$6,$7,0*
20,1,$1+$1,$6,$7,$8,$9,0*
20,1,$1+$1,$8,$9,$2,$3,0*%
G04 Aperture macros list end*
%ADD10RoundRect,0.250000X0.600000X0.725000X-0.600000X0.725000X-0.600000X-0.725000X0.600000X-0.725000X0*%
%ADD11O,1.700000X1.950000*%
%ADD12C,0.800000*%
%ADD13C,6.000000*%
%ADD14C,1.524000*%
%ADD15C,1.600000*%
%ADD16RoundRect,0.140000X-0.660000X0.560000X-0.660000X-0.560000X0.660000X-0.560000X0.660000X0.560000X0*%
%ADD17RoundRect,0.110000X-0.690000X-0.440000X0.690000X-0.440000X0.690000X0.440000X-0.690000X0.440000X0*%
%ADD18C,1.100000*%
%ADD19R,1.700000X1.700000*%
%ADD20C,1.700000*%
%ADD21C,0.650000*%
%ADD22O,1.000000X2.100000*%
%ADD23O,1.000000X1.600000*%
G04 APERTURE END LIST*
D10*
%TO.C,M1*%
X222650000Y-105345000D03*
D11*
X220150000Y-105345000D03*
X217650000Y-105345000D03*
X215150000Y-105345000D03*
%TD*%
D12*
%TO.C,H1*%
X175350000Y-101200000D03*
X176009010Y-99609010D03*
X176009010Y-102790990D03*
X177600000Y-98950000D03*
D13*
X177600000Y-101200000D03*
D12*
X177600000Y-103450000D03*
X179190990Y-99609010D03*
X179190990Y-102790990D03*
X179850000Y-101200000D03*
%TD*%
D14*
%TO.C,U4*%
X175930000Y-128020000D03*
X178470000Y-128020000D03*
X181010000Y-128020000D03*
X183550000Y-128020000D03*
X186090000Y-128020000D03*
X188630000Y-128020000D03*
X191170000Y-128020000D03*
X191170000Y-112780000D03*
X188630000Y-112780000D03*
X186090000Y-112780000D03*
X183550000Y-112780000D03*
X181010000Y-112780000D03*
X178470000Y-112780000D03*
X175930000Y-112780000D03*
D15*
X179740000Y-115399006D03*
D16*
X179740000Y-114700000D03*
D15*
X182280000Y-115399006D03*
D16*
X182280000Y-114700000D03*
D15*
X184820000Y-115399006D03*
D16*
X184820000Y-114700000D03*
D15*
X187360000Y-115399006D03*
D16*
X187360000Y-114700000D03*
X187360000Y-126259006D03*
D15*
X187360000Y-125559006D03*
D16*
X184820000Y-126259006D03*
D15*
X184820000Y-125559006D03*
D16*
X182280000Y-126259006D03*
D15*
X182280000Y-125559006D03*
D16*
X179740000Y-126259006D03*
D15*
X179740000Y-125559006D03*
D17*
X189880000Y-121400000D03*
D18*
X189124811Y-121400000D03*
D17*
X189880000Y-119400000D03*
D18*
X189124811Y-119400000D03*
%TD*%
D19*
%TO.C,PN532-Module1*%
X230970000Y-99700000D03*
D20*
X233510000Y-99700000D03*
X236050000Y-99700000D03*
X238590000Y-99700000D03*
X241130000Y-99700000D03*
%TD*%
D12*
%TO.C,H4*%
X210209010Y-137609010D03*
X210868020Y-136018020D03*
X210868020Y-139200000D03*
X212459010Y-135359010D03*
D13*
X212459010Y-137609010D03*
D12*
X212459010Y-139859010D03*
X214050000Y-136018020D03*
X214050000Y-139200000D03*
X214709010Y-137609010D03*
%TD*%
D19*
%TO.C,U1*%
X199470000Y-112860000D03*
D20*
X199470000Y-115400000D03*
X199470000Y-117940000D03*
X199470000Y-120480000D03*
X199470000Y-123020000D03*
X199470000Y-125560000D03*
X199470000Y-128100000D03*
X199470000Y-130640000D03*
X213130000Y-115400000D03*
X213130000Y-130640000D03*
X213130000Y-128100000D03*
X213130000Y-125560000D03*
X213130000Y-123020000D03*
X213130000Y-120480000D03*
X213130000Y-117940000D03*
X213130000Y-112860000D03*
%TD*%
D12*
%TO.C,H3*%
X175400000Y-137600000D03*
X176059010Y-136009010D03*
X176059010Y-139190990D03*
X177650000Y-135350000D03*
D13*
X177650000Y-137600000D03*
D12*
X177650000Y-139850000D03*
X179240990Y-136009010D03*
X179240990Y-139190990D03*
X179900000Y-137600000D03*
%TD*%
D19*
%TO.C,SW2*%
X184750000Y-103125000D03*
D20*
X184750000Y-100585000D03*
%TD*%
D12*
%TO.C,H2*%
X248450000Y-100800000D03*
X249109010Y-99209010D03*
X249109010Y-102390990D03*
X250700000Y-98550000D03*
D13*
X250700000Y-100800000D03*
D12*
X250700000Y-103050000D03*
X252290990Y-99209010D03*
X252290990Y-102390990D03*
X252950000Y-100800000D03*
%TD*%
D19*
%TO.C,SW4*%
X191850000Y-103125000D03*
D20*
X191850000Y-100585000D03*
%TD*%
D19*
%TO.C,ST7789-Display1*%
X202390000Y-138500000D03*
D20*
X199850000Y-138500000D03*
X197310000Y-138500000D03*
X194770000Y-138500000D03*
X192230000Y-138500000D03*
X189690000Y-138500000D03*
X187150000Y-138500000D03*
X184610000Y-138500000D03*
%TD*%
D19*
%TO.C,SW3*%
X188300000Y-103125000D03*
D20*
X188300000Y-100585000D03*
%TD*%
D19*
%TO.C,SW1*%
X207740000Y-100550000D03*
D20*
X205200000Y-100550000D03*
X202660000Y-100550000D03*
X200120000Y-100550000D03*
X197580000Y-100550000D03*
%TD*%
D21*
%TO.C,J2*%
X242380000Y-137100000D03*
X248160000Y-137100000D03*
D22*
X240950000Y-136570000D03*
D23*
X240950000Y-140750000D03*
D22*
X249590000Y-136570000D03*
D23*
X249590000Y-140750000D03*
%TD*%
M02*
