%TF.GenerationSoftware,KiCad,Pcbnew,9.0.1*%
%TF.CreationDate,2026-04-25T00:05:26+03:00*%
%TF.ProjectId,hw1,6877312e-6b69-4636-9164-5f7063625858,6*%
%TF.SameCoordinates,Original*%
%TF.FileFunction,Copper,L2,Bot*%
%TF.FilePolarity,Positive*%
%FSLAX46Y46*%
G04 Gerber Fmt 4.6, Leading zero omitted, Abs format (unit mm)*
G04 Created by KiCad (PCBNEW 9.0.1) date 2026-04-25 00:05:26*
%MOMM*%
%LPD*%
G01*
G04 APERTURE LIST*
G04 Aperture macros list*
%AMRoundRect*
0 Rectangle with rounded corners*
0 $1 Rounding radius*
0 $2 $3 $4 $5 $6 $7 $8 $9 X,Y pos of 4 corners*
0 Add a 4 corners polygon primitive as box body*
4,1,4,$2,$3,$4,$5,$6,$7,$8,$9,$2,$3,0*
0 Add four circle primitives for the rounded corners*
1,1,$1+$1,$2,$3*
1,1,$1+$1,$4,$5*
1,1,$1+$1,$6,$7*
1,1,$1+$1,$8,$9*
0 Add four rect primitives between the rounded corners*
20,1,$1+$1,$2,$3,$4,$5,0*
20,1,$1+$1,$4,$5,$6,$7,0*
20,1,$1+$1,$6,$7,$8,$9,0*
20,1,$1+$1,$8,$9,$2,$3,0*%
G04 Aperture macros list end*
%TA.AperFunction,ComponentPad*%
%ADD10RoundRect,0.250000X0.600000X0.725000X-0.600000X0.725000X-0.600000X-0.725000X0.600000X-0.725000X0*%
%TD*%
%TA.AperFunction,ComponentPad*%
%ADD11O,1.700000X1.950000*%
%TD*%
%TA.AperFunction,ComponentPad*%
%ADD12C,0.800000*%
%TD*%
%TA.AperFunction,ComponentPad*%
%ADD13C,6.000000*%
%TD*%
%TA.AperFunction,ComponentPad*%
%ADD14R,1.700000X1.700000*%
%TD*%
%TA.AperFunction,ComponentPad*%
%ADD15C,1.700000*%
%TD*%
%TA.AperFunction,HeatsinkPad*%
%ADD16O,1.000000X2.100000*%
%TD*%
%TA.AperFunction,HeatsinkPad*%
%ADD17O,1.000000X1.800000*%
%TD*%
%TA.AperFunction,ViaPad*%
%ADD18C,0.600000*%
%TD*%
%TA.AperFunction,ViaPad*%
%ADD19C,1.000000*%
%TD*%
%TA.AperFunction,Conductor*%
%ADD20C,0.500000*%
%TD*%
%TA.AperFunction,Conductor*%
%ADD21C,1.500000*%
%TD*%
%TA.AperFunction,Conductor*%
%ADD22C,1.000000*%
%TD*%
%TA.AperFunction,Conductor*%
%ADD23C,0.200000*%
%TD*%
G04 APERTURE END LIST*
D10*
%TO.P,M1,1*%
%TO.N,M2B*%
X155764636Y-87560303D03*
D11*
%TO.P,M1,2,-*%
%TO.N,M2A*%
X153264636Y-87560303D03*
%TO.P,M1,3*%
%TO.N,M1B*%
X150764636Y-87560303D03*
%TO.P,M1,4*%
%TO.N,M1A*%
X148264636Y-87560303D03*
%TD*%
D12*
%TO.P,H1,1,1*%
%TO.N,GND*%
X95976209Y-82211876D03*
X96635219Y-80620886D03*
X96635219Y-83802866D03*
X98226209Y-79961876D03*
D13*
X98226209Y-82211876D03*
D12*
X98226209Y-84461876D03*
X99817199Y-80620886D03*
X99817199Y-83802866D03*
X100476209Y-82211876D03*
%TD*%
D14*
%TO.P,PN532-Module1,1,VCC*%
%TO.N,+3.3_BUCK*%
X163794636Y-83590303D03*
D15*
%TO.P,PN532-Module1,2,GND*%
%TO.N,GND*%
X166334636Y-83590303D03*
%TO.P,PN532-Module1,3,SDA*%
%TO.N,I2C_SDA*%
X168874636Y-83590303D03*
%TO.P,PN532-Module1,4,SCL*%
%TO.N,I2C_SCL*%
X171414636Y-83590303D03*
%TO.P,PN532-Module1,5,IRQ*%
%TO.N,NFC_IRQ*%
X173954636Y-83590303D03*
%TD*%
D12*
%TO.P,H4,1,1*%
%TO.N,GND*%
X138913646Y-123868730D03*
X139572656Y-122277740D03*
X139572656Y-125459720D03*
X141163646Y-121618730D03*
D13*
X141163646Y-123868730D03*
D12*
X141163646Y-126118730D03*
X142754636Y-122277740D03*
X142754636Y-125459720D03*
X143413646Y-123868730D03*
%TD*%
D14*
%TO.P,U1,1,EN*%
%TO.N,D_EN*%
X128684636Y-97150303D03*
D15*
%TO.P,U1,2,MS1*%
%TO.N,+3.3_BUCK*%
X128684636Y-99690303D03*
%TO.P,U1,3,MS2*%
X128684636Y-102230303D03*
%TO.P,U1,4,PDN*%
%TO.N,unconnected-(U1-PDN-Pad4)*%
X128684636Y-104770303D03*
%TO.P,U1,5,USART*%
%TO.N,D_UART*%
X128684636Y-107310303D03*
%TO.P,U1,6,CLK*%
%TO.N,unconnected-(U1-CLK-Pad6)*%
X128684636Y-109850303D03*
%TO.P,U1,7,STEP*%
%TO.N,D_STEP*%
X128684636Y-112390303D03*
%TO.P,U1,8,DIR*%
%TO.N,D_DIR*%
X128684636Y-114930303D03*
%TO.P,U1,9,GND*%
%TO.N,GND*%
X142344636Y-99690303D03*
X142344636Y-114930303D03*
%TO.P,U1,10,VIO*%
%TO.N,+3.3_BUCK*%
X142344636Y-112390303D03*
%TO.P,U1,11,M2B*%
%TO.N,M2B*%
X142344636Y-109850303D03*
%TO.P,U1,12,M2A*%
%TO.N,M2A*%
X142344636Y-107310303D03*
%TO.P,U1,13,M1B*%
%TO.N,M1B*%
X142344636Y-104770303D03*
%TO.P,U1,14,M1A*%
%TO.N,M1A*%
X142344636Y-102230303D03*
%TO.P,U1,15,VM*%
%TO.N,+20_USB*%
X142344636Y-97150303D03*
%TD*%
D12*
%TO.P,H3,1,1*%
%TO.N,GND*%
X95976209Y-123868730D03*
X96635219Y-122277740D03*
X96635219Y-125459720D03*
X98226209Y-121618730D03*
D13*
X98226209Y-123868730D03*
D12*
X98226209Y-126118730D03*
X99817199Y-122277740D03*
X99817199Y-125459720D03*
X100476209Y-123868730D03*
%TD*%
D14*
%TO.P,SW2,1,1*%
%TO.N,SW_BACK*%
X107064636Y-84560303D03*
D15*
%TO.P,SW2,2,2*%
%TO.N,+3.3_BUCK*%
X107064636Y-82020303D03*
%TD*%
D12*
%TO.P,H2,1,1*%
%TO.N,GND*%
X179633063Y-82211876D03*
X180292073Y-80620886D03*
X180292073Y-83802866D03*
X181883063Y-79961876D03*
D13*
X181883063Y-82211876D03*
D12*
X181883063Y-84461876D03*
X183474053Y-80620886D03*
X183474053Y-83802866D03*
X184133063Y-82211876D03*
%TD*%
D14*
%TO.P,SW4,1,1*%
%TO.N,SW_SETT*%
X114164636Y-84560303D03*
D15*
%TO.P,SW4,2,2*%
%TO.N,+3.3_BUCK*%
X114164636Y-82020303D03*
%TD*%
D14*
%TO.P,ST7789-Display1,1,VCC*%
%TO.N,+3.3_BUCK*%
X122854636Y-123240303D03*
D15*
%TO.P,ST7789-Display1,2,GND*%
%TO.N,GND*%
X120314636Y-123240303D03*
%TO.P,ST7789-Display1,3,BK*%
%TO.N,+3.3_BUCK*%
X117774636Y-123240303D03*
%TO.P,ST7789-Display1,4,DAT*%
%TO.N,ST_DAT*%
X115234636Y-123240303D03*
%TO.P,ST7789-Display1,5,CLK*%
%TO.N,ST_CLK*%
X112694636Y-123240303D03*
%TO.P,ST7789-Display1,6,DC*%
%TO.N,ST_DC*%
X110154636Y-123240303D03*
%TO.P,ST7789-Display1,7,RST*%
%TO.N,ST_RST*%
X107614636Y-123240303D03*
%TO.P,ST7789-Display1,8,CS*%
%TO.N,ST_CS*%
X105074636Y-123240303D03*
%TD*%
D14*
%TO.P,SW3,1,1*%
%TO.N,SW_BOLUS*%
X110614636Y-84560303D03*
D15*
%TO.P,SW3,2,2*%
%TO.N,+3.3_BUCK*%
X110614636Y-82020303D03*
%TD*%
D14*
%TO.P,SW1,1,A*%
%TO.N,ENC_A*%
X135684636Y-83590303D03*
D15*
%TO.P,SW1,2,C*%
%TO.N,GND*%
X133144636Y-83590303D03*
%TO.P,SW1,3,B*%
%TO.N,ENC_B*%
X130604636Y-83590303D03*
%TO.P,SW1,4,S1*%
%TO.N,+3.3_BUCK*%
X128064636Y-83590303D03*
%TO.P,SW1,5,S2*%
%TO.N,ENC_S2*%
X125524636Y-83590303D03*
%TD*%
D16*
%TO.P,J2,S1,SHIELD*%
%TO.N,GND*%
X167824636Y-121185303D03*
D17*
X167824636Y-125365303D03*
D16*
X176464636Y-121185303D03*
D17*
X176464636Y-125365303D03*
%TD*%
D16*
%TO.P,J1,S1,SHIELD*%
%TO.N,GND*%
X126424636Y-121235303D03*
D17*
X126424636Y-125415303D03*
D16*
X135064636Y-121235303D03*
D17*
X135064636Y-125415303D03*
%TD*%
D18*
%TO.N,D_EN*%
X111964636Y-114390303D03*
%TO.N,I2C_SDA*%
X124464636Y-92290303D03*
X104314636Y-92690303D03*
%TO.N,D_DIR*%
X115514636Y-114640303D03*
%TO.N,+3.3_BUCK*%
X151714636Y-122940303D03*
X151064636Y-122290303D03*
X151714636Y-120990303D03*
X151064636Y-120990303D03*
X151714636Y-122290303D03*
X151064636Y-122940303D03*
D19*
X159914636Y-88790303D03*
D18*
X151064636Y-121640303D03*
X151714636Y-121640303D03*
%TO.N,D_STEP*%
X116014636Y-113640303D03*
%TO.N,I2C_SCL*%
X175264636Y-87990303D03*
X123814636Y-91740303D03*
X173464636Y-86190303D03*
X103164636Y-92590303D03*
D19*
%TO.N,+20_USB*%
X179214636Y-100840303D03*
X160814636Y-115390303D03*
D18*
X161314636Y-113640303D03*
X161314636Y-114290303D03*
D19*
X170250000Y-99890303D03*
X159714636Y-98790303D03*
D18*
%TO.N,VREG_2v7*%
X169264636Y-113790303D03*
X173864636Y-110640303D03*
%TO.N,CC1*%
X170914636Y-118040303D03*
X170834636Y-116190303D03*
%TO.N,GND*%
X156614636Y-117140303D03*
X178614636Y-115840303D03*
X109164636Y-120990303D03*
X106014636Y-120990303D03*
X149264636Y-116340303D03*
X150664636Y-116340303D03*
X166014636Y-118290303D03*
X112264636Y-86790303D03*
X114314636Y-120990303D03*
X104264636Y-120990303D03*
X156614636Y-116440303D03*
X124564636Y-106390303D03*
X151364636Y-116340303D03*
X178614636Y-115140303D03*
X123264636Y-106390303D03*
X178264636Y-108940303D03*
X111714636Y-120990303D03*
X156614636Y-117840303D03*
X149964636Y-116340303D03*
X152064636Y-116340303D03*
X181414636Y-102590303D03*
X169900000Y-109850000D03*
X164061423Y-115361092D03*
X179114636Y-117590303D03*
X124564636Y-99740303D03*
X176514636Y-87840303D03*
X108714636Y-86790303D03*
X123314636Y-99740303D03*
X139150000Y-118400000D03*
X178264636Y-110490303D03*
X115814636Y-86790303D03*
X179114636Y-118290303D03*
X139150000Y-116600000D03*
X179114636Y-116890303D03*
X166014636Y-116640303D03*
X181414636Y-101890303D03*
X124714636Y-86240303D03*
D19*
%TO.N,VDD*%
X165914636Y-111200000D03*
X170224323Y-103577933D03*
D18*
%TO.N,Net-(J1-CC1)*%
X129394636Y-119568899D03*
X132952470Y-117002470D03*
%TO.N,+5V_USB*%
X121914636Y-117290303D03*
X130800000Y-116650000D03*
X128414636Y-118890303D03*
%TO.N,/Sheet_Power/SW_TPS*%
X160564636Y-124990303D03*
X161864636Y-123040303D03*
X159264636Y-124990303D03*
X156764636Y-111290303D03*
X159264636Y-124340303D03*
X158914636Y-115590303D03*
X161864636Y-121740303D03*
X161864636Y-123690303D03*
X161214636Y-124340303D03*
X161214636Y-123690303D03*
X158614636Y-124990303D03*
X161864636Y-124340303D03*
X159914636Y-124340303D03*
X161864636Y-122390303D03*
X160564636Y-124340303D03*
X161214636Y-120440303D03*
X161864636Y-120440303D03*
X161214636Y-121090303D03*
X161214636Y-121740303D03*
X161214636Y-124990303D03*
X161864636Y-121090303D03*
X158614636Y-124340303D03*
X161864636Y-124990303D03*
X161214636Y-122390303D03*
X157964636Y-124990303D03*
X157964636Y-124340303D03*
X159914636Y-124990303D03*
X161214636Y-123040303D03*
%TO.N,Net-(J1-CC2)*%
X132399305Y-119335634D03*
X133850000Y-118450000D03*
%TO.N,VBUS*%
X175114636Y-105740303D03*
D19*
X171364636Y-108040303D03*
D18*
X172964636Y-106190303D03*
D19*
X168114636Y-114441303D03*
X169694636Y-118990303D03*
X173664636Y-116540303D03*
%TD*%
D20*
%TO.N,D_EN*%
X128684636Y-97150303D02*
X124554636Y-97150303D01*
X112014636Y-114340303D02*
X111964636Y-114390303D01*
X112014636Y-109690303D02*
X112014636Y-114340303D01*
X124554636Y-97150303D02*
X112014636Y-109690303D01*
%TO.N,I2C_SDA*%
X124064636Y-92690303D02*
X104314636Y-92690303D01*
X124464636Y-92290303D02*
X124064636Y-92690303D01*
%TO.N,D_DIR*%
X115804636Y-114930303D02*
X128684636Y-114930303D01*
X115514636Y-114640303D02*
X115804636Y-114930303D01*
D21*
%TO.N,+3.3_BUCK*%
X163794636Y-83590303D02*
X161514636Y-83590303D01*
D22*
X125644636Y-81170303D02*
X133934636Y-89460303D01*
X114164636Y-82020303D02*
X115014636Y-81170303D01*
D21*
X159914636Y-88790303D02*
X159914636Y-85190303D01*
D22*
X115014636Y-81170303D02*
X125644636Y-81170303D01*
D21*
X161514636Y-83590303D02*
X159914636Y-85190303D01*
D22*
X129886717Y-99690303D02*
X128684636Y-99690303D01*
X133934636Y-95642384D02*
X129886717Y-99690303D01*
X133934636Y-89460303D02*
X133934636Y-95642384D01*
D20*
%TO.N,D_STEP*%
X116603636Y-114229303D02*
X126845636Y-114229303D01*
X116014636Y-113640303D02*
X116603636Y-114229303D01*
X126845636Y-114229303D02*
X128684636Y-112390303D01*
%TO.N,I2C_SCL*%
X175264636Y-87990303D02*
X173464636Y-86190303D01*
X123814636Y-91740303D02*
X104014636Y-91740303D01*
X104014636Y-91740303D02*
X103164636Y-92590303D01*
D21*
%TO.N,+20_USB*%
X163164636Y-102240303D02*
X163164636Y-114490303D01*
X165514636Y-99890303D02*
X163164636Y-102240303D01*
X159714636Y-98790303D02*
X158074636Y-97150303D01*
X179214636Y-100840303D02*
X177414636Y-100840303D01*
X170250000Y-99890303D02*
X172014636Y-99890303D01*
X158074636Y-97150303D02*
X142344636Y-97150303D01*
X163164636Y-114490303D02*
X162264636Y-115390303D01*
X172014636Y-99890303D02*
X165514636Y-99890303D01*
X177414636Y-100840303D02*
X176464636Y-99890303D01*
X162264636Y-115390303D02*
X160814636Y-115390303D01*
X159714636Y-98790303D02*
X163164636Y-102240303D01*
X176464636Y-99890303D02*
X172014636Y-99890303D01*
D23*
%TO.N,VREG_2v7*%
X169264636Y-113790303D02*
X169264636Y-109007518D01*
X173864636Y-109407518D02*
X173864636Y-110640303D01*
X171696421Y-107239303D02*
X173864636Y-109407518D01*
X169264636Y-109007518D02*
X171032851Y-107239303D01*
X171032851Y-107239303D02*
X171696421Y-107239303D01*
%TO.N,CC1*%
X170834636Y-117820303D02*
X170834636Y-116190303D01*
X170914636Y-117900303D02*
X170834636Y-117820303D01*
X170914636Y-118040303D02*
X170914636Y-117900303D01*
D22*
%TO.N,VDD*%
X170224323Y-105980616D02*
X170224323Y-103577933D01*
X165914636Y-110290303D02*
X170224323Y-105980616D01*
X165914636Y-111200000D02*
X165914636Y-110290303D01*
D23*
%TO.N,Net-(J1-CC1)*%
X130386040Y-119568899D02*
X129394636Y-119568899D01*
X132952470Y-117002470D02*
X130386040Y-119568899D01*
D20*
%TO.N,+5V_USB*%
X130650000Y-117950000D02*
X129954939Y-117950000D01*
X130850000Y-117750000D02*
X130650000Y-117950000D01*
X130850000Y-116700000D02*
X130850000Y-117750000D01*
X130669394Y-117930606D02*
X130669394Y-117950000D01*
X122574333Y-117950000D02*
X121914636Y-117290303D01*
X129014636Y-118890303D02*
X128414636Y-118890303D01*
X129954939Y-117950000D02*
X129014636Y-118890303D01*
X130850000Y-117750000D02*
X130669394Y-117930606D01*
X129954939Y-117950000D02*
X122574333Y-117950000D01*
X130800000Y-116650000D02*
X130850000Y-116700000D01*
D23*
%TO.N,Net-(J1-CC2)*%
X133850000Y-118450000D02*
X133284938Y-118450000D01*
X133284938Y-118450000D02*
X132399305Y-119335634D01*
D22*
%TO.N,VBUS*%
X168114636Y-114590303D02*
X169214636Y-115690303D01*
X171364636Y-108040303D02*
X171364636Y-114244675D01*
D20*
X174664636Y-106190303D02*
X175114636Y-105740303D01*
D22*
X171364636Y-114244675D02*
X170420008Y-115189303D01*
X169714636Y-117440303D02*
X169714636Y-118970303D01*
X173664636Y-116540303D02*
X172313636Y-115189303D01*
D20*
X172964636Y-106190303D02*
X174664636Y-106190303D01*
D22*
X169714636Y-118970303D02*
X169694636Y-118990303D01*
X169714636Y-115894675D02*
X169714636Y-116142162D01*
X169714636Y-116142162D02*
X169714636Y-117440303D01*
X169214636Y-115690303D02*
X169666495Y-116142162D01*
X172313636Y-115189303D02*
X170420008Y-115189303D01*
X170420008Y-115189303D02*
X169714636Y-115894675D01*
X169666495Y-116142162D02*
X169714636Y-116142162D01*
X168114636Y-114441303D02*
X168114636Y-114590303D01*
%TD*%
%TA.AperFunction,Conductor*%
%TO.N,GND*%
G36*
X170583470Y-108216169D02*
G01*
X170639403Y-108258041D01*
X170663820Y-108323505D01*
X170664136Y-108332351D01*
X170664136Y-113903156D01*
X170644451Y-113970195D01*
X170627817Y-113990837D01*
X169654503Y-114964151D01*
X169593180Y-114997636D01*
X169523488Y-114992652D01*
X169479141Y-114964151D01*
X168989193Y-114474203D01*
X168955708Y-114412880D01*
X168960692Y-114343188D01*
X169002564Y-114287255D01*
X169068028Y-114262838D01*
X169108963Y-114266746D01*
X169198744Y-114290803D01*
X169198746Y-114290803D01*
X169330526Y-114290803D01*
X169330528Y-114290803D01*
X169457822Y-114256695D01*
X169571950Y-114190803D01*
X169665136Y-114097617D01*
X169731028Y-113983489D01*
X169765136Y-113856195D01*
X169765136Y-113724411D01*
X169731028Y-113597117D01*
X169665136Y-113482989D01*
X169601454Y-113419307D01*
X169567970Y-113357983D01*
X169565136Y-113331626D01*
X169565136Y-109183351D01*
X169584821Y-109116312D01*
X169601455Y-109095670D01*
X170452455Y-108244670D01*
X170513778Y-108211185D01*
X170583470Y-108216169D01*
G37*
%TD.AperFunction*%
%TA.AperFunction,Conductor*%
G36*
X182057663Y-78540952D02*
G01*
X182391559Y-78557358D01*
X182403665Y-78558550D01*
X182731324Y-78607156D01*
X182743242Y-78609527D01*
X183064583Y-78690022D01*
X183076206Y-78693548D01*
X183388088Y-78805144D01*
X183399327Y-78809800D01*
X183399357Y-78809814D01*
X183698769Y-78951427D01*
X183709484Y-78957154D01*
X183941083Y-79095971D01*
X183993610Y-79127455D01*
X184003728Y-79134216D01*
X184269782Y-79331537D01*
X184279178Y-79339248D01*
X184524623Y-79561709D01*
X184533213Y-79570299D01*
X184578164Y-79619895D01*
X184755666Y-79815740D01*
X184763386Y-79825147D01*
X184960701Y-80091199D01*
X184967462Y-80101317D01*
X185137755Y-80385436D01*
X185143491Y-80396168D01*
X185285110Y-80695599D01*
X185289766Y-80706841D01*
X185401360Y-81018725D01*
X185404893Y-81030370D01*
X185485375Y-81351678D01*
X185487749Y-81363613D01*
X185536351Y-81691265D01*
X185537544Y-81703374D01*
X185538061Y-81713890D01*
X185553987Y-82038079D01*
X185554136Y-82044133D01*
X185554136Y-124037251D01*
X185553987Y-124043336D01*
X185537583Y-124377232D01*
X185536390Y-124389342D01*
X185487787Y-124716997D01*
X185485413Y-124728931D01*
X185404928Y-125050246D01*
X185401396Y-125061891D01*
X185289804Y-125373773D01*
X185285147Y-125385016D01*
X185143521Y-125684461D01*
X185137784Y-125695193D01*
X184967494Y-125979306D01*
X184960734Y-125989423D01*
X184763415Y-126255479D01*
X184755695Y-126264886D01*
X184533251Y-126510316D01*
X184524647Y-126518921D01*
X184279201Y-126741382D01*
X184269794Y-126749101D01*
X184003748Y-126946416D01*
X183993631Y-126953177D01*
X183821646Y-127056262D01*
X183709508Y-127123476D01*
X183698782Y-127129209D01*
X183399342Y-127270836D01*
X183388099Y-127275493D01*
X183076225Y-127387086D01*
X183064580Y-127390619D01*
X182743261Y-127471107D01*
X182731327Y-127473481D01*
X182403670Y-127522087D01*
X182391560Y-127523280D01*
X182067692Y-127539194D01*
X182058334Y-127539654D01*
X182052250Y-127539803D01*
X98128132Y-127539803D01*
X98120527Y-127539802D01*
X98120524Y-127539802D01*
X98090151Y-127539802D01*
X98057677Y-127539802D01*
X98057676Y-127539801D01*
X98051596Y-127539653D01*
X97717700Y-127523253D01*
X97705589Y-127522060D01*
X97377933Y-127473459D01*
X97365999Y-127471085D01*
X97044686Y-127390604D01*
X97033044Y-127387073D01*
X96851612Y-127322157D01*
X96721151Y-127275478D01*
X96709909Y-127270821D01*
X96410474Y-127129202D01*
X96399742Y-127123466D01*
X96115618Y-126953171D01*
X96105500Y-126946410D01*
X95839446Y-126749093D01*
X95830039Y-126741373D01*
X95584595Y-126518917D01*
X95576015Y-126510338D01*
X95353541Y-126264879D01*
X95345827Y-126255478D01*
X95148507Y-125989426D01*
X95141746Y-125979308D01*
X95121196Y-125945023D01*
X94971451Y-125695191D01*
X94965716Y-125684462D01*
X94937580Y-125624973D01*
X94824080Y-125384998D01*
X94819436Y-125373784D01*
X94707835Y-125061884D01*
X94704311Y-125050271D01*
X94623820Y-124728933D01*
X94621446Y-124716998D01*
X94572842Y-124389343D01*
X94571649Y-124377232D01*
X94561396Y-124168533D01*
X94555285Y-124044128D01*
X94555136Y-124038044D01*
X94555136Y-123136833D01*
X104024136Y-123136833D01*
X104024136Y-123343772D01*
X104064504Y-123546715D01*
X104064506Y-123546723D01*
X104143694Y-123737899D01*
X104258660Y-123909960D01*
X104404978Y-124056278D01*
X104404981Y-124056280D01*
X104577038Y-124171244D01*
X104768216Y-124250433D01*
X104912688Y-124279170D01*
X104971166Y-124290802D01*
X104971170Y-124290803D01*
X104971171Y-124290803D01*
X105178102Y-124290803D01*
X105178103Y-124290802D01*
X105381056Y-124250433D01*
X105572234Y-124171244D01*
X105744291Y-124056280D01*
X105890613Y-123909958D01*
X106005577Y-123737901D01*
X106084766Y-123546723D01*
X106125136Y-123343768D01*
X106125136Y-123136838D01*
X106125135Y-123136833D01*
X106564136Y-123136833D01*
X106564136Y-123343772D01*
X106604504Y-123546715D01*
X106604506Y-123546723D01*
X106683694Y-123737899D01*
X106798660Y-123909960D01*
X106944978Y-124056278D01*
X106944981Y-124056280D01*
X107117038Y-124171244D01*
X107308216Y-124250433D01*
X107452688Y-124279170D01*
X107511166Y-124290802D01*
X107511170Y-124290803D01*
X107511171Y-124290803D01*
X107718102Y-124290803D01*
X107718103Y-124290802D01*
X107921056Y-124250433D01*
X108112234Y-124171244D01*
X108284291Y-124056280D01*
X108430613Y-123909958D01*
X108545577Y-123737901D01*
X108624766Y-123546723D01*
X108665136Y-123343768D01*
X108665136Y-123136838D01*
X108665135Y-123136833D01*
X109104136Y-123136833D01*
X109104136Y-123343772D01*
X109144504Y-123546715D01*
X109144506Y-123546723D01*
X109223694Y-123737899D01*
X109338660Y-123909960D01*
X109484978Y-124056278D01*
X109484981Y-124056280D01*
X109657038Y-124171244D01*
X109848216Y-124250433D01*
X109992688Y-124279170D01*
X110051166Y-124290802D01*
X110051170Y-124290803D01*
X110051171Y-124290803D01*
X110258102Y-124290803D01*
X110258103Y-124290802D01*
X110461056Y-124250433D01*
X110652234Y-124171244D01*
X110824291Y-124056280D01*
X110970613Y-123909958D01*
X111085577Y-123737901D01*
X111164766Y-123546723D01*
X111205136Y-123343768D01*
X111205136Y-123136838D01*
X111205135Y-123136833D01*
X111644136Y-123136833D01*
X111644136Y-123343772D01*
X111684504Y-123546715D01*
X111684506Y-123546723D01*
X111763694Y-123737899D01*
X111878660Y-123909960D01*
X112024978Y-124056278D01*
X112024981Y-124056280D01*
X112197038Y-124171244D01*
X112388216Y-124250433D01*
X112532688Y-124279170D01*
X112591166Y-124290802D01*
X112591170Y-124290803D01*
X112591171Y-124290803D01*
X112798102Y-124290803D01*
X112798103Y-124290802D01*
X113001056Y-124250433D01*
X113192234Y-124171244D01*
X113364291Y-124056280D01*
X113510613Y-123909958D01*
X113625577Y-123737901D01*
X113704766Y-123546723D01*
X113745136Y-123343768D01*
X113745136Y-123136838D01*
X113745135Y-123136833D01*
X114184136Y-123136833D01*
X114184136Y-123343772D01*
X114224504Y-123546715D01*
X114224506Y-123546723D01*
X114303694Y-123737899D01*
X114418660Y-123909960D01*
X114564978Y-124056278D01*
X114564981Y-124056280D01*
X114737038Y-124171244D01*
X114928216Y-124250433D01*
X115072688Y-124279170D01*
X115131166Y-124290802D01*
X115131170Y-124290803D01*
X115131171Y-124290803D01*
X115338102Y-124290803D01*
X115338103Y-124290802D01*
X115541056Y-124250433D01*
X115732234Y-124171244D01*
X115904291Y-124056280D01*
X116050613Y-123909958D01*
X116165577Y-123737901D01*
X116244766Y-123546723D01*
X116285136Y-123343768D01*
X116285136Y-123136838D01*
X116285135Y-123136833D01*
X116724136Y-123136833D01*
X116724136Y-123343772D01*
X116764504Y-123546715D01*
X116764506Y-123546723D01*
X116843694Y-123737899D01*
X116958660Y-123909960D01*
X117104978Y-124056278D01*
X117104981Y-124056280D01*
X117277038Y-124171244D01*
X117468216Y-124250433D01*
X117612688Y-124279170D01*
X117671166Y-124290802D01*
X117671170Y-124290803D01*
X117671171Y-124290803D01*
X117878102Y-124290803D01*
X117878103Y-124290802D01*
X118081056Y-124250433D01*
X118272234Y-124171244D01*
X118444291Y-124056280D01*
X118590613Y-123909958D01*
X118705577Y-123737901D01*
X118784766Y-123546723D01*
X118825136Y-123343768D01*
X118825136Y-123136838D01*
X118784766Y-122933883D01*
X118705577Y-122742705D01*
X118590613Y-122570648D01*
X118590611Y-122570645D01*
X118444293Y-122424327D01*
X118363809Y-122370550D01*
X121804136Y-122370550D01*
X121804136Y-124110055D01*
X121815767Y-124168532D01*
X121815768Y-124168533D01*
X121860083Y-124234855D01*
X121926405Y-124279170D01*
X121926406Y-124279171D01*
X121984883Y-124290802D01*
X121984886Y-124290803D01*
X121984888Y-124290803D01*
X123724386Y-124290803D01*
X123724387Y-124290802D01*
X123739204Y-124287855D01*
X123782865Y-124279171D01*
X123782865Y-124279170D01*
X123782867Y-124279170D01*
X123849188Y-124234855D01*
X123893503Y-124168534D01*
X123893503Y-124168532D01*
X123893504Y-124168532D01*
X123905135Y-124110055D01*
X123905136Y-124110053D01*
X123905136Y-122370552D01*
X123905135Y-122370550D01*
X123893504Y-122312073D01*
X123893503Y-122312072D01*
X123849188Y-122245750D01*
X123782866Y-122201435D01*
X123782865Y-122201434D01*
X123724388Y-122189803D01*
X123724384Y-122189803D01*
X121984888Y-122189803D01*
X121984883Y-122189803D01*
X121926406Y-122201434D01*
X121926405Y-122201435D01*
X121860083Y-122245750D01*
X121815768Y-122312072D01*
X121815767Y-122312073D01*
X121804136Y-122370550D01*
X118363809Y-122370550D01*
X118276291Y-122312073D01*
X118272234Y-122309362D01*
X118181030Y-122271584D01*
X118081056Y-122230173D01*
X118081048Y-122230171D01*
X117878105Y-122189803D01*
X117878101Y-122189803D01*
X117671171Y-122189803D01*
X117671166Y-122189803D01*
X117468223Y-122230171D01*
X117468215Y-122230173D01*
X117277039Y-122309361D01*
X117104978Y-122424327D01*
X116958660Y-122570645D01*
X116843694Y-122742706D01*
X116764506Y-122933882D01*
X116764504Y-122933890D01*
X116724136Y-123136833D01*
X116285135Y-123136833D01*
X116244766Y-122933883D01*
X116165577Y-122742705D01*
X116050613Y-122570648D01*
X116050611Y-122570645D01*
X115904293Y-122424327D01*
X115736291Y-122312073D01*
X115732234Y-122309362D01*
X115641030Y-122271584D01*
X115541056Y-122230173D01*
X115541048Y-122230171D01*
X115338105Y-122189803D01*
X115338101Y-122189803D01*
X115131171Y-122189803D01*
X115131166Y-122189803D01*
X114928223Y-122230171D01*
X114928215Y-122230173D01*
X114737039Y-122309361D01*
X114564978Y-122424327D01*
X114418660Y-122570645D01*
X114303694Y-122742706D01*
X114224506Y-122933882D01*
X114224504Y-122933890D01*
X114184136Y-123136833D01*
X113745135Y-123136833D01*
X113704766Y-122933883D01*
X113625577Y-122742705D01*
X113510613Y-122570648D01*
X113510611Y-122570645D01*
X113364293Y-122424327D01*
X113196291Y-122312073D01*
X113192234Y-122309362D01*
X113101030Y-122271584D01*
X113001056Y-122230173D01*
X113001048Y-122230171D01*
X112798105Y-122189803D01*
X112798101Y-122189803D01*
X112591171Y-122189803D01*
X112591166Y-122189803D01*
X112388223Y-122230171D01*
X112388215Y-122230173D01*
X112197039Y-122309361D01*
X112024978Y-122424327D01*
X111878660Y-122570645D01*
X111763694Y-122742706D01*
X111684506Y-122933882D01*
X111684504Y-122933890D01*
X111644136Y-123136833D01*
X111205135Y-123136833D01*
X111164766Y-122933883D01*
X111085577Y-122742705D01*
X110970613Y-122570648D01*
X110970611Y-122570645D01*
X110824293Y-122424327D01*
X110656291Y-122312073D01*
X110652234Y-122309362D01*
X110561030Y-122271584D01*
X110461056Y-122230173D01*
X110461048Y-122230171D01*
X110258105Y-122189803D01*
X110258101Y-122189803D01*
X110051171Y-122189803D01*
X110051166Y-122189803D01*
X109848223Y-122230171D01*
X109848215Y-122230173D01*
X109657039Y-122309361D01*
X109484978Y-122424327D01*
X109338660Y-122570645D01*
X109223694Y-122742706D01*
X109144506Y-122933882D01*
X109144504Y-122933890D01*
X109104136Y-123136833D01*
X108665135Y-123136833D01*
X108624766Y-122933883D01*
X108545577Y-122742705D01*
X108430613Y-122570648D01*
X108430611Y-122570645D01*
X108284293Y-122424327D01*
X108116291Y-122312073D01*
X108112234Y-122309362D01*
X108021030Y-122271584D01*
X107921056Y-122230173D01*
X107921048Y-122230171D01*
X107718105Y-122189803D01*
X107718101Y-122189803D01*
X107511171Y-122189803D01*
X107511166Y-122189803D01*
X107308223Y-122230171D01*
X107308215Y-122230173D01*
X107117039Y-122309361D01*
X106944978Y-122424327D01*
X106798660Y-122570645D01*
X106683694Y-122742706D01*
X106604506Y-122933882D01*
X106604504Y-122933890D01*
X106564136Y-123136833D01*
X106125135Y-123136833D01*
X106084766Y-122933883D01*
X106005577Y-122742705D01*
X105890613Y-122570648D01*
X105890611Y-122570645D01*
X105744293Y-122424327D01*
X105576291Y-122312073D01*
X105572234Y-122309362D01*
X105481030Y-122271584D01*
X105381056Y-122230173D01*
X105381048Y-122230171D01*
X105178105Y-122189803D01*
X105178101Y-122189803D01*
X104971171Y-122189803D01*
X104971166Y-122189803D01*
X104768223Y-122230171D01*
X104768215Y-122230173D01*
X104577039Y-122309361D01*
X104404978Y-122424327D01*
X104258660Y-122570645D01*
X104143694Y-122742706D01*
X104064506Y-122933882D01*
X104064504Y-122933890D01*
X104024136Y-123136833D01*
X94555136Y-123136833D01*
X94555136Y-121659537D01*
X127279136Y-121659537D01*
X127279136Y-121811068D01*
X127318355Y-121957439D01*
X127356238Y-122023053D01*
X127394121Y-122088668D01*
X127501271Y-122195818D01*
X127632501Y-122271584D01*
X127778870Y-122310803D01*
X127778872Y-122310803D01*
X127930400Y-122310803D01*
X127930402Y-122310803D01*
X128076771Y-122271584D01*
X128208001Y-122195818D01*
X128315151Y-122088668D01*
X128390917Y-121957438D01*
X128430136Y-121811069D01*
X128430136Y-121659537D01*
X133059136Y-121659537D01*
X133059136Y-121811068D01*
X133098355Y-121957439D01*
X133136238Y-122023053D01*
X133174121Y-122088668D01*
X133281271Y-122195818D01*
X133412501Y-122271584D01*
X133558870Y-122310803D01*
X133558872Y-122310803D01*
X133710400Y-122310803D01*
X133710402Y-122310803D01*
X133856771Y-122271584D01*
X133988001Y-122195818D01*
X134095151Y-122088668D01*
X134170917Y-121957438D01*
X134210136Y-121811069D01*
X134210136Y-121659537D01*
X134170917Y-121513168D01*
X134095151Y-121381938D01*
X133988001Y-121274788D01*
X133922386Y-121236905D01*
X133856772Y-121199022D01*
X133783586Y-121179412D01*
X133710402Y-121159803D01*
X133558870Y-121159803D01*
X133412499Y-121199022D01*
X133281271Y-121274788D01*
X133281268Y-121274790D01*
X133174123Y-121381935D01*
X133174121Y-121381938D01*
X133098355Y-121513166D01*
X133059136Y-121659537D01*
X128430136Y-121659537D01*
X128390917Y-121513168D01*
X128315151Y-121381938D01*
X128208001Y-121274788D01*
X128142386Y-121236905D01*
X128076772Y-121199022D01*
X128003586Y-121179412D01*
X127930402Y-121159803D01*
X127778870Y-121159803D01*
X127632499Y-121199022D01*
X127501271Y-121274788D01*
X127501268Y-121274790D01*
X127394123Y-121381935D01*
X127394121Y-121381938D01*
X127318355Y-121513166D01*
X127279136Y-121659537D01*
X94555136Y-121659537D01*
X94555136Y-117224411D01*
X121414136Y-117224411D01*
X121414136Y-117356194D01*
X121448244Y-117483490D01*
X121468220Y-117518089D01*
X121514136Y-117597617D01*
X121607322Y-117690803D01*
X121721450Y-117756695D01*
X121721452Y-117756695D01*
X121728962Y-117759807D01*
X121728407Y-117761144D01*
X121775646Y-117788416D01*
X122297719Y-118310489D01*
X122297720Y-118310490D01*
X122297722Y-118310491D01*
X122350222Y-118340801D01*
X122350224Y-118340803D01*
X122400443Y-118369797D01*
X122400444Y-118369797D01*
X122400447Y-118369799D01*
X122515024Y-118400500D01*
X127904722Y-118400500D01*
X127971761Y-118420185D01*
X128017516Y-118472989D01*
X128027460Y-118542147D01*
X128012109Y-118586498D01*
X128001102Y-118605565D01*
X127948244Y-118697115D01*
X127914136Y-118824411D01*
X127914136Y-118956194D01*
X127948244Y-119083490D01*
X127981190Y-119140553D01*
X128014136Y-119197617D01*
X128107322Y-119290803D01*
X128202624Y-119345826D01*
X128216061Y-119353584D01*
X128221450Y-119356695D01*
X128348744Y-119390803D01*
X128348746Y-119390803D01*
X128480526Y-119390803D01*
X128480528Y-119390803D01*
X128607822Y-119356695D01*
X128607830Y-119356690D01*
X128615332Y-119353584D01*
X128615885Y-119354921D01*
X128622060Y-119353266D01*
X128633638Y-119345826D01*
X128668573Y-119340803D01*
X128775999Y-119340803D01*
X128843038Y-119360488D01*
X128888793Y-119413292D01*
X128898737Y-119482450D01*
X128895773Y-119496898D01*
X128894136Y-119503005D01*
X128894136Y-119503007D01*
X128894136Y-119634791D01*
X128909144Y-119690803D01*
X128928244Y-119762086D01*
X128951303Y-119802025D01*
X128994136Y-119876213D01*
X129087322Y-119969399D01*
X129201450Y-120035291D01*
X129328744Y-120069399D01*
X129328746Y-120069399D01*
X129460526Y-120069399D01*
X129460528Y-120069399D01*
X129587822Y-120035291D01*
X129701950Y-119969399D01*
X129765631Y-119905718D01*
X129826954Y-119872233D01*
X129853312Y-119869399D01*
X130425600Y-119869399D01*
X130425602Y-119869399D01*
X130502029Y-119848920D01*
X130570551Y-119809359D01*
X130626500Y-119753410D01*
X130626499Y-119753410D01*
X131110167Y-119269742D01*
X131898805Y-119269742D01*
X131898805Y-119401526D01*
X131915859Y-119465173D01*
X131932913Y-119528821D01*
X131936143Y-119534415D01*
X131998805Y-119642948D01*
X132091991Y-119736134D01*
X132206119Y-119802026D01*
X132333413Y-119836134D01*
X132333415Y-119836134D01*
X132465195Y-119836134D01*
X132465197Y-119836134D01*
X132592491Y-119802026D01*
X132706619Y-119736134D01*
X132799805Y-119642948D01*
X132865697Y-119528820D01*
X132899805Y-119401526D01*
X132899805Y-119311466D01*
X132919490Y-119244427D01*
X132936124Y-119223785D01*
X133131592Y-119028317D01*
X133338368Y-118821540D01*
X133399689Y-118788057D01*
X133469380Y-118793041D01*
X133513728Y-118821542D01*
X133542686Y-118850500D01*
X133656814Y-118916392D01*
X133784108Y-118950500D01*
X133784110Y-118950500D01*
X133915890Y-118950500D01*
X133915892Y-118950500D01*
X134043186Y-118916392D01*
X134157314Y-118850500D01*
X134250500Y-118757314D01*
X134316392Y-118643186D01*
X134350500Y-118515892D01*
X134350500Y-118384108D01*
X134316392Y-118256814D01*
X134250500Y-118142686D01*
X134157314Y-118049500D01*
X134084994Y-118007746D01*
X134043187Y-117983608D01*
X133979539Y-117966554D01*
X133915892Y-117949500D01*
X133784108Y-117949500D01*
X133656812Y-117983608D01*
X133542686Y-118049500D01*
X133542683Y-118049502D01*
X133479005Y-118113181D01*
X133417682Y-118146666D01*
X133391324Y-118149500D01*
X133245376Y-118149500D01*
X133177977Y-118167559D01*
X133168945Y-118169980D01*
X133116086Y-118200499D01*
X133100430Y-118209537D01*
X133100425Y-118209541D01*
X132511152Y-118798815D01*
X132449829Y-118832300D01*
X132423471Y-118835134D01*
X132333413Y-118835134D01*
X132206117Y-118869242D01*
X132091991Y-118935134D01*
X132091988Y-118935136D01*
X131998807Y-119028317D01*
X131998805Y-119028320D01*
X131932913Y-119142446D01*
X131918130Y-119197619D01*
X131898805Y-119269742D01*
X131110167Y-119269742D01*
X132840621Y-117539289D01*
X132901944Y-117505804D01*
X132928302Y-117502970D01*
X133018360Y-117502970D01*
X133018362Y-117502970D01*
X133145656Y-117468862D01*
X133259784Y-117402970D01*
X133352970Y-117309784D01*
X133418862Y-117195656D01*
X133452970Y-117068362D01*
X133452970Y-116936578D01*
X133418862Y-116809284D01*
X133352970Y-116695156D01*
X133259784Y-116601970D01*
X133189338Y-116561298D01*
X133145657Y-116536078D01*
X133082009Y-116519024D01*
X133018362Y-116501970D01*
X132886578Y-116501970D01*
X132759282Y-116536078D01*
X132645156Y-116601970D01*
X132645153Y-116601972D01*
X132551972Y-116695153D01*
X132551970Y-116695156D01*
X132486078Y-116809282D01*
X132451970Y-116936578D01*
X132451970Y-117026636D01*
X132432285Y-117093675D01*
X132415651Y-117114317D01*
X131472814Y-118057153D01*
X131469483Y-118058971D01*
X131467471Y-118062189D01*
X131439053Y-118075587D01*
X131411491Y-118090638D01*
X131407706Y-118090367D01*
X131404274Y-118091986D01*
X131373132Y-118087894D01*
X131341799Y-118085654D01*
X131338760Y-118083379D01*
X131334999Y-118082885D01*
X131311013Y-118062607D01*
X131285866Y-118043782D01*
X131284540Y-118040227D01*
X131281642Y-118037777D01*
X131272425Y-118007746D01*
X131261449Y-117978318D01*
X131261931Y-117973555D01*
X131261142Y-117970982D01*
X131263358Y-117959478D01*
X131265739Y-117935989D01*
X131268503Y-117926130D01*
X131269799Y-117923887D01*
X131283890Y-117871297D01*
X131300500Y-117809309D01*
X131300500Y-116640691D01*
X131300500Y-116584108D01*
X131266392Y-116456814D01*
X131200500Y-116342686D01*
X131107314Y-116249500D01*
X131050250Y-116216554D01*
X130993187Y-116183608D01*
X130929539Y-116166554D01*
X130865892Y-116149500D01*
X130734108Y-116149500D01*
X130606812Y-116183608D01*
X130492686Y-116249500D01*
X130492683Y-116249502D01*
X130399502Y-116342683D01*
X130399500Y-116342686D01*
X130333608Y-116456812D01*
X130320572Y-116505464D01*
X130299500Y-116584108D01*
X130299500Y-116715892D01*
X130333608Y-116843186D01*
X130382887Y-116928540D01*
X130399500Y-116990539D01*
X130399500Y-117375500D01*
X130379815Y-117442539D01*
X130327011Y-117488294D01*
X130275500Y-117499500D01*
X122812298Y-117499500D01*
X122745259Y-117479815D01*
X122724617Y-117463181D01*
X122412749Y-117151313D01*
X122385477Y-117104074D01*
X122384140Y-117104629D01*
X122381028Y-117097118D01*
X122381028Y-117097117D01*
X122315136Y-116982989D01*
X122221950Y-116889803D01*
X122164886Y-116856857D01*
X122107823Y-116823911D01*
X122044175Y-116806857D01*
X121980528Y-116789803D01*
X121848744Y-116789803D01*
X121721448Y-116823911D01*
X121607322Y-116889803D01*
X121607319Y-116889805D01*
X121514138Y-116982986D01*
X121514136Y-116982989D01*
X121448244Y-117097115D01*
X121414136Y-117224411D01*
X94555136Y-117224411D01*
X94555136Y-114324411D01*
X111464136Y-114324411D01*
X111464136Y-114456194D01*
X111498244Y-114583490D01*
X111529413Y-114637476D01*
X111564136Y-114697617D01*
X111657322Y-114790803D01*
X111771450Y-114856695D01*
X111898744Y-114890803D01*
X111898746Y-114890803D01*
X112030526Y-114890803D01*
X112030528Y-114890803D01*
X112157822Y-114856695D01*
X112271950Y-114790803D01*
X112365136Y-114697617D01*
X112431028Y-114583489D01*
X112433460Y-114574411D01*
X115014136Y-114574411D01*
X115014136Y-114706195D01*
X115030575Y-114767546D01*
X115048244Y-114833490D01*
X115061641Y-114856694D01*
X115114136Y-114947617D01*
X115207322Y-115040803D01*
X115321450Y-115106695D01*
X115321452Y-115106695D01*
X115328962Y-115109807D01*
X115328407Y-115111144D01*
X115375646Y-115138416D01*
X115528022Y-115290792D01*
X115630749Y-115350102D01*
X115654957Y-115356587D01*
X115654960Y-115356589D01*
X115654961Y-115356589D01*
X115685083Y-115364660D01*
X115745327Y-115380803D01*
X127655945Y-115380803D01*
X127722984Y-115400488D01*
X127759047Y-115435912D01*
X127868658Y-115599958D01*
X128014978Y-115746278D01*
X128014981Y-115746280D01*
X128187038Y-115861244D01*
X128378216Y-115940433D01*
X128557256Y-115976046D01*
X128581166Y-115980802D01*
X128581170Y-115980803D01*
X128581171Y-115980803D01*
X128788102Y-115980803D01*
X128788103Y-115980802D01*
X128991056Y-115940433D01*
X129182234Y-115861244D01*
X129354291Y-115746280D01*
X129500613Y-115599958D01*
X129615577Y-115427901D01*
X129694766Y-115236723D01*
X129735136Y-115033768D01*
X129735136Y-114826838D01*
X129694766Y-114623883D01*
X129615577Y-114432705D01*
X129500613Y-114260648D01*
X129500612Y-114260647D01*
X129500611Y-114260645D01*
X129354293Y-114114327D01*
X129215668Y-114021702D01*
X129182234Y-113999362D01*
X129171126Y-113994761D01*
X128991056Y-113920173D01*
X128991048Y-113920171D01*
X128788105Y-113879803D01*
X128788101Y-113879803D01*
X128581171Y-113879803D01*
X128581166Y-113879803D01*
X128378223Y-113920171D01*
X128378215Y-113920173D01*
X128187039Y-113999361D01*
X128014978Y-114114327D01*
X127868658Y-114260647D01*
X127759047Y-114424694D01*
X127705435Y-114469499D01*
X127655945Y-114479803D01*
X127531601Y-114479803D01*
X127464562Y-114460118D01*
X127418807Y-114407314D01*
X127408863Y-114338156D01*
X127437888Y-114274600D01*
X127443920Y-114268122D01*
X127855849Y-113856193D01*
X128275794Y-113436247D01*
X128337115Y-113402764D01*
X128387664Y-113402313D01*
X128581166Y-113440802D01*
X128581170Y-113440803D01*
X128581171Y-113440803D01*
X128788102Y-113440803D01*
X128788103Y-113440802D01*
X128991056Y-113400433D01*
X129182234Y-113321244D01*
X129354291Y-113206280D01*
X129500613Y-113059958D01*
X129615577Y-112887901D01*
X129694766Y-112696723D01*
X129735136Y-112493768D01*
X129735136Y-112286838D01*
X129735135Y-112286833D01*
X141294136Y-112286833D01*
X141294136Y-112493772D01*
X141334504Y-112696715D01*
X141334506Y-112696723D01*
X141413694Y-112887899D01*
X141528660Y-113059960D01*
X141674978Y-113206278D01*
X141674981Y-113206280D01*
X141847038Y-113321244D01*
X142038216Y-113400433D01*
X142241166Y-113440802D01*
X142241170Y-113440803D01*
X142241171Y-113440803D01*
X142448102Y-113440803D01*
X142448103Y-113440802D01*
X142651056Y-113400433D01*
X142842234Y-113321244D01*
X143014291Y-113206280D01*
X143160613Y-113059958D01*
X143275577Y-112887901D01*
X143354766Y-112696723D01*
X143395136Y-112493768D01*
X143395136Y-112286838D01*
X143354766Y-112083883D01*
X143275577Y-111892705D01*
X143160613Y-111720648D01*
X143160611Y-111720645D01*
X143014293Y-111574327D01*
X142928262Y-111516844D01*
X142842234Y-111459362D01*
X142709356Y-111404322D01*
X142651056Y-111380173D01*
X142651048Y-111380171D01*
X142448105Y-111339803D01*
X142448101Y-111339803D01*
X142241171Y-111339803D01*
X142241166Y-111339803D01*
X142038223Y-111380171D01*
X142038215Y-111380173D01*
X141847039Y-111459361D01*
X141674978Y-111574327D01*
X141528660Y-111720645D01*
X141413694Y-111892706D01*
X141334506Y-112083882D01*
X141334504Y-112083890D01*
X141294136Y-112286833D01*
X129735135Y-112286833D01*
X129694766Y-112083883D01*
X129615577Y-111892705D01*
X129500613Y-111720648D01*
X129500611Y-111720645D01*
X129354293Y-111574327D01*
X129268262Y-111516844D01*
X129182234Y-111459362D01*
X129049356Y-111404322D01*
X128991056Y-111380173D01*
X128991048Y-111380171D01*
X128788105Y-111339803D01*
X128788101Y-111339803D01*
X128581171Y-111339803D01*
X128581166Y-111339803D01*
X128378223Y-111380171D01*
X128378215Y-111380173D01*
X128187039Y-111459361D01*
X128014978Y-111574327D01*
X127868660Y-111720645D01*
X127753694Y-111892706D01*
X127674506Y-112083882D01*
X127674504Y-112083890D01*
X127634136Y-112286833D01*
X127634136Y-112493772D01*
X127672625Y-112687272D01*
X127666398Y-112756864D01*
X127638689Y-112799144D01*
X126695352Y-113742484D01*
X126634029Y-113775969D01*
X126607671Y-113778803D01*
X116841602Y-113778803D01*
X116774563Y-113759118D01*
X116753921Y-113742484D01*
X116512748Y-113501311D01*
X116485472Y-113454067D01*
X116484136Y-113454621D01*
X116481028Y-113447117D01*
X116459333Y-113409540D01*
X116415136Y-113332989D01*
X116321950Y-113239803D01*
X116263883Y-113206278D01*
X116207823Y-113173911D01*
X116139077Y-113155491D01*
X116080528Y-113139803D01*
X115948744Y-113139803D01*
X115821448Y-113173911D01*
X115707322Y-113239803D01*
X115707319Y-113239805D01*
X115614138Y-113332986D01*
X115614136Y-113332989D01*
X115548244Y-113447115D01*
X115546233Y-113454621D01*
X115514136Y-113574411D01*
X115514136Y-113706195D01*
X115523409Y-113740803D01*
X115548244Y-113833490D01*
X115561352Y-113856193D01*
X115614136Y-113947617D01*
X115614138Y-113947619D01*
X115617708Y-113953802D01*
X115634181Y-114021702D01*
X115611329Y-114087729D01*
X115556408Y-114130920D01*
X115510321Y-114139803D01*
X115448744Y-114139803D01*
X115321448Y-114173911D01*
X115207322Y-114239803D01*
X115207319Y-114239805D01*
X115114138Y-114332986D01*
X115114136Y-114332989D01*
X115048244Y-114447115D01*
X115024913Y-114534189D01*
X115014136Y-114574411D01*
X112433460Y-114574411D01*
X112465136Y-114456195D01*
X112465136Y-114324411D01*
X112465136Y-109928268D01*
X112484821Y-109861229D01*
X112501455Y-109840587D01*
X112595209Y-109746833D01*
X127634136Y-109746833D01*
X127634136Y-109953772D01*
X127674504Y-110156715D01*
X127674506Y-110156723D01*
X127753694Y-110347899D01*
X127868660Y-110519960D01*
X128014978Y-110666278D01*
X128014981Y-110666280D01*
X128187038Y-110781244D01*
X128378216Y-110860433D01*
X128581166Y-110900802D01*
X128581170Y-110900803D01*
X128581171Y-110900803D01*
X128788102Y-110900803D01*
X128788103Y-110900802D01*
X128991056Y-110860433D01*
X129182234Y-110781244D01*
X129354291Y-110666280D01*
X129500613Y-110519958D01*
X129615577Y-110347901D01*
X129694766Y-110156723D01*
X129735136Y-109953768D01*
X129735136Y-109746838D01*
X129735135Y-109746833D01*
X141294136Y-109746833D01*
X141294136Y-109953772D01*
X141334504Y-110156715D01*
X141334506Y-110156723D01*
X141413694Y-110347899D01*
X141528660Y-110519960D01*
X141674978Y-110666278D01*
X141674981Y-110666280D01*
X141847038Y-110781244D01*
X142038216Y-110860433D01*
X142241166Y-110900802D01*
X142241170Y-110900803D01*
X142241171Y-110900803D01*
X142448102Y-110900803D01*
X142448103Y-110900802D01*
X142651056Y-110860433D01*
X142842234Y-110781244D01*
X143014291Y-110666280D01*
X143160613Y-110519958D01*
X143275577Y-110347901D01*
X143354766Y-110156723D01*
X143395136Y-109953768D01*
X143395136Y-109746838D01*
X143354766Y-109543883D01*
X143275577Y-109352705D01*
X143160613Y-109180648D01*
X143160611Y-109180645D01*
X143014293Y-109034327D01*
X142914962Y-108967957D01*
X142842234Y-108919362D01*
X142651056Y-108840173D01*
X142651048Y-108840171D01*
X142448105Y-108799803D01*
X142448101Y-108799803D01*
X142241171Y-108799803D01*
X142241166Y-108799803D01*
X142038223Y-108840171D01*
X142038215Y-108840173D01*
X141847039Y-108919361D01*
X141674978Y-109034327D01*
X141528660Y-109180645D01*
X141413694Y-109352706D01*
X141334506Y-109543882D01*
X141334504Y-109543890D01*
X141294136Y-109746833D01*
X129735135Y-109746833D01*
X129694766Y-109543883D01*
X129615577Y-109352705D01*
X129500613Y-109180648D01*
X129500611Y-109180645D01*
X129354293Y-109034327D01*
X129254962Y-108967957D01*
X129182234Y-108919362D01*
X128991056Y-108840173D01*
X128991048Y-108840171D01*
X128788105Y-108799803D01*
X128788101Y-108799803D01*
X128581171Y-108799803D01*
X128581166Y-108799803D01*
X128378223Y-108840171D01*
X128378215Y-108840173D01*
X128187039Y-108919361D01*
X128014978Y-109034327D01*
X127868660Y-109180645D01*
X127753694Y-109352706D01*
X127674506Y-109543882D01*
X127674504Y-109543890D01*
X127634136Y-109746833D01*
X112595209Y-109746833D01*
X115135209Y-107206833D01*
X127634136Y-107206833D01*
X127634136Y-107413772D01*
X127674504Y-107616715D01*
X127674506Y-107616723D01*
X127753694Y-107807899D01*
X127868660Y-107979960D01*
X128014978Y-108126278D01*
X128014981Y-108126280D01*
X128187038Y-108241244D01*
X128378216Y-108320433D01*
X128581166Y-108360802D01*
X128581170Y-108360803D01*
X128581171Y-108360803D01*
X128788102Y-108360803D01*
X128788103Y-108360802D01*
X128991056Y-108320433D01*
X129182234Y-108241244D01*
X129354291Y-108126280D01*
X129500613Y-107979958D01*
X129615577Y-107807901D01*
X129694766Y-107616723D01*
X129735136Y-107413768D01*
X129735136Y-107206838D01*
X129735135Y-107206833D01*
X141294136Y-107206833D01*
X141294136Y-107413772D01*
X141334504Y-107616715D01*
X141334506Y-107616723D01*
X141413694Y-107807899D01*
X141528660Y-107979960D01*
X141674978Y-108126278D01*
X141674981Y-108126280D01*
X141847038Y-108241244D01*
X142038216Y-108320433D01*
X142241166Y-108360802D01*
X142241170Y-108360803D01*
X142241171Y-108360803D01*
X142448102Y-108360803D01*
X142448103Y-108360802D01*
X142651056Y-108320433D01*
X142842234Y-108241244D01*
X143014291Y-108126280D01*
X143160613Y-107979958D01*
X143275577Y-107807901D01*
X143354766Y-107616723D01*
X143395136Y-107413768D01*
X143395136Y-107206838D01*
X143354766Y-107003883D01*
X143275577Y-106812705D01*
X143160613Y-106640648D01*
X143160611Y-106640645D01*
X143014293Y-106494327D01*
X142848412Y-106383490D01*
X142842234Y-106379362D01*
X142651056Y-106300173D01*
X142651048Y-106300171D01*
X142448105Y-106259803D01*
X142448101Y-106259803D01*
X142241171Y-106259803D01*
X142241166Y-106259803D01*
X142038223Y-106300171D01*
X142038215Y-106300173D01*
X141847039Y-106379361D01*
X141674978Y-106494327D01*
X141528660Y-106640645D01*
X141413694Y-106812706D01*
X141334506Y-107003882D01*
X141334504Y-107003890D01*
X141294136Y-107206833D01*
X129735135Y-107206833D01*
X129694766Y-107003883D01*
X129615577Y-106812705D01*
X129500613Y-106640648D01*
X129500611Y-106640645D01*
X129354293Y-106494327D01*
X129188412Y-106383490D01*
X129182234Y-106379362D01*
X128991056Y-106300173D01*
X128991048Y-106300171D01*
X128788105Y-106259803D01*
X128788101Y-106259803D01*
X128581171Y-106259803D01*
X128581166Y-106259803D01*
X128378223Y-106300171D01*
X128378215Y-106300173D01*
X128187039Y-106379361D01*
X128014978Y-106494327D01*
X127868660Y-106640645D01*
X127753694Y-106812706D01*
X127674506Y-107003882D01*
X127674504Y-107003890D01*
X127634136Y-107206833D01*
X115135209Y-107206833D01*
X117675209Y-104666833D01*
X127634136Y-104666833D01*
X127634136Y-104873772D01*
X127674504Y-105076715D01*
X127674506Y-105076723D01*
X127753694Y-105267899D01*
X127868660Y-105439960D01*
X128014978Y-105586278D01*
X128014981Y-105586280D01*
X128187038Y-105701244D01*
X128378216Y-105780433D01*
X128581166Y-105820802D01*
X128581170Y-105820803D01*
X128581171Y-105820803D01*
X128788102Y-105820803D01*
X128788103Y-105820802D01*
X128991056Y-105780433D01*
X129182234Y-105701244D01*
X129354291Y-105586280D01*
X129500613Y-105439958D01*
X129615577Y-105267901D01*
X129694766Y-105076723D01*
X129735136Y-104873768D01*
X129735136Y-104666838D01*
X129735135Y-104666833D01*
X141294136Y-104666833D01*
X141294136Y-104873772D01*
X141334504Y-105076715D01*
X141334506Y-105076723D01*
X141413694Y-105267899D01*
X141528660Y-105439960D01*
X141674978Y-105586278D01*
X141674981Y-105586280D01*
X141847038Y-105701244D01*
X142038216Y-105780433D01*
X142241166Y-105820802D01*
X142241170Y-105820803D01*
X142241171Y-105820803D01*
X142448102Y-105820803D01*
X142448103Y-105820802D01*
X142651056Y-105780433D01*
X142842234Y-105701244D01*
X143014291Y-105586280D01*
X143160613Y-105439958D01*
X143275577Y-105267901D01*
X143354766Y-105076723D01*
X143395136Y-104873768D01*
X143395136Y-104666838D01*
X143354766Y-104463883D01*
X143275577Y-104272705D01*
X143160613Y-104100648D01*
X143160611Y-104100645D01*
X143014293Y-103954327D01*
X142928262Y-103896844D01*
X142842234Y-103839362D01*
X142651056Y-103760173D01*
X142651048Y-103760171D01*
X142448105Y-103719803D01*
X142448101Y-103719803D01*
X142241171Y-103719803D01*
X142241166Y-103719803D01*
X142038223Y-103760171D01*
X142038215Y-103760173D01*
X141847039Y-103839361D01*
X141674978Y-103954327D01*
X141528660Y-104100645D01*
X141413694Y-104272706D01*
X141334506Y-104463882D01*
X141334504Y-104463890D01*
X141294136Y-104666833D01*
X129735135Y-104666833D01*
X129694766Y-104463883D01*
X129615577Y-104272705D01*
X129500613Y-104100648D01*
X129500611Y-104100645D01*
X129354293Y-103954327D01*
X129268262Y-103896844D01*
X129182234Y-103839362D01*
X128991056Y-103760173D01*
X128991048Y-103760171D01*
X128788105Y-103719803D01*
X128788101Y-103719803D01*
X128581171Y-103719803D01*
X128581166Y-103719803D01*
X128378223Y-103760171D01*
X128378215Y-103760173D01*
X128187039Y-103839361D01*
X128014978Y-103954327D01*
X127868660Y-104100645D01*
X127753694Y-104272706D01*
X127674506Y-104463882D01*
X127674504Y-104463890D01*
X127634136Y-104666833D01*
X117675209Y-104666833D01*
X120215209Y-102126833D01*
X127634136Y-102126833D01*
X127634136Y-102333772D01*
X127674504Y-102536715D01*
X127674506Y-102536723D01*
X127753694Y-102727899D01*
X127868660Y-102899960D01*
X128014978Y-103046278D01*
X128014981Y-103046280D01*
X128187038Y-103161244D01*
X128378216Y-103240433D01*
X128581166Y-103280802D01*
X128581170Y-103280803D01*
X128581171Y-103280803D01*
X128788102Y-103280803D01*
X128788103Y-103280802D01*
X128991056Y-103240433D01*
X129182234Y-103161244D01*
X129354291Y-103046280D01*
X129500613Y-102899958D01*
X129615577Y-102727901D01*
X129694766Y-102536723D01*
X129735136Y-102333768D01*
X129735136Y-102126838D01*
X129735135Y-102126833D01*
X141294136Y-102126833D01*
X141294136Y-102333772D01*
X141334504Y-102536715D01*
X141334506Y-102536723D01*
X141413694Y-102727899D01*
X141528660Y-102899960D01*
X141674978Y-103046278D01*
X141674981Y-103046280D01*
X141847038Y-103161244D01*
X142038216Y-103240433D01*
X142241166Y-103280802D01*
X142241170Y-103280803D01*
X142241171Y-103280803D01*
X142448102Y-103280803D01*
X142448103Y-103280802D01*
X142651056Y-103240433D01*
X142842234Y-103161244D01*
X143014291Y-103046280D01*
X143160613Y-102899958D01*
X143275577Y-102727901D01*
X143354766Y-102536723D01*
X143395136Y-102333768D01*
X143395136Y-102126838D01*
X143354766Y-101923883D01*
X143275577Y-101732705D01*
X143160613Y-101560648D01*
X143160611Y-101560645D01*
X143014293Y-101414327D01*
X142928262Y-101356844D01*
X142842234Y-101299362D01*
X142820921Y-101290534D01*
X142651056Y-101220173D01*
X142651048Y-101220171D01*
X142448105Y-101179803D01*
X142448101Y-101179803D01*
X142241171Y-101179803D01*
X142241166Y-101179803D01*
X142038223Y-101220171D01*
X142038215Y-101220173D01*
X141847039Y-101299361D01*
X141674978Y-101414327D01*
X141528660Y-101560645D01*
X141413694Y-101732706D01*
X141334506Y-101923882D01*
X141334504Y-101923890D01*
X141294136Y-102126833D01*
X129735135Y-102126833D01*
X129694766Y-101923883D01*
X129615577Y-101732705D01*
X129500613Y-101560648D01*
X129500611Y-101560645D01*
X129354293Y-101414327D01*
X129268262Y-101356844D01*
X129182234Y-101299362D01*
X129160921Y-101290534D01*
X128991056Y-101220173D01*
X128991048Y-101220171D01*
X128788105Y-101179803D01*
X128788101Y-101179803D01*
X128581171Y-101179803D01*
X128581166Y-101179803D01*
X128378223Y-101220171D01*
X128378215Y-101220173D01*
X128187039Y-101299361D01*
X128014978Y-101414327D01*
X127868660Y-101560645D01*
X127753694Y-101732706D01*
X127674506Y-101923882D01*
X127674504Y-101923890D01*
X127634136Y-102126833D01*
X120215209Y-102126833D01*
X124704920Y-97637122D01*
X124766243Y-97603637D01*
X124792601Y-97600803D01*
X127510136Y-97600803D01*
X127577175Y-97620488D01*
X127622930Y-97673292D01*
X127634136Y-97724803D01*
X127634136Y-98020055D01*
X127645767Y-98078532D01*
X127645768Y-98078533D01*
X127690083Y-98144855D01*
X127756405Y-98189170D01*
X127756406Y-98189171D01*
X127814883Y-98200802D01*
X127814886Y-98200803D01*
X127814888Y-98200803D01*
X129554386Y-98200803D01*
X129554387Y-98200802D01*
X129569204Y-98197855D01*
X129612865Y-98189171D01*
X129612865Y-98189170D01*
X129612867Y-98189170D01*
X129679188Y-98144855D01*
X129723503Y-98078534D01*
X129723503Y-98078532D01*
X129723504Y-98078532D01*
X129735135Y-98020055D01*
X129735136Y-98020053D01*
X129735136Y-96280552D01*
X129735135Y-96280550D01*
X129723504Y-96222073D01*
X129723503Y-96222072D01*
X129679188Y-96155750D01*
X129612866Y-96111435D01*
X129612865Y-96111434D01*
X129554388Y-96099803D01*
X129554384Y-96099803D01*
X127814888Y-96099803D01*
X127814883Y-96099803D01*
X127756406Y-96111434D01*
X127756405Y-96111435D01*
X127690083Y-96155750D01*
X127645768Y-96222072D01*
X127645767Y-96222073D01*
X127634136Y-96280550D01*
X127634136Y-96575803D01*
X127614451Y-96642842D01*
X127561647Y-96688597D01*
X127510136Y-96699803D01*
X124495327Y-96699803D01*
X124404961Y-96724016D01*
X124404960Y-96724015D01*
X124380752Y-96730502D01*
X124380749Y-96730503D01*
X124278022Y-96789814D01*
X124278019Y-96789816D01*
X111654149Y-109413686D01*
X111654145Y-109413692D01*
X111594837Y-109516415D01*
X111594836Y-109516420D01*
X111564136Y-109630994D01*
X111564136Y-114049763D01*
X111547523Y-114111763D01*
X111498245Y-114197113D01*
X111498245Y-114197114D01*
X111498244Y-114197116D01*
X111498244Y-114197117D01*
X111477483Y-114274600D01*
X111464136Y-114324411D01*
X94555136Y-114324411D01*
X94555136Y-112264303D01*
X94574821Y-112197264D01*
X94627625Y-112151509D01*
X94679136Y-112140303D01*
X100264636Y-112140303D01*
X100264636Y-94140303D01*
X94679136Y-94140303D01*
X94612097Y-94120618D01*
X94566342Y-94067814D01*
X94555136Y-94016303D01*
X94555136Y-92524411D01*
X102664136Y-92524411D01*
X102664136Y-92656194D01*
X102698244Y-92783490D01*
X102730245Y-92838916D01*
X102764136Y-92897617D01*
X102857322Y-92990803D01*
X102971450Y-93056695D01*
X103098744Y-93090803D01*
X103098746Y-93090803D01*
X103230526Y-93090803D01*
X103230528Y-93090803D01*
X103357822Y-93056695D01*
X103471950Y-92990803D01*
X103565136Y-92897617D01*
X103611407Y-92817472D01*
X103661974Y-92769257D01*
X103730581Y-92756034D01*
X103795446Y-92782002D01*
X103835974Y-92838916D01*
X103838569Y-92847380D01*
X103848244Y-92883490D01*
X103856402Y-92897619D01*
X103914136Y-92997617D01*
X104007322Y-93090803D01*
X104106157Y-93147866D01*
X104116061Y-93153584D01*
X104121450Y-93156695D01*
X104248744Y-93190803D01*
X104248746Y-93190803D01*
X104380526Y-93190803D01*
X104380528Y-93190803D01*
X104507822Y-93156695D01*
X104507830Y-93156690D01*
X104515332Y-93153584D01*
X104515885Y-93154921D01*
X104568573Y-93140803D01*
X124123944Y-93140803D01*
X124123945Y-93140803D01*
X124214309Y-93116589D01*
X124238523Y-93110102D01*
X124341250Y-93050792D01*
X124603627Y-92788413D01*
X124650864Y-92761145D01*
X124650310Y-92759807D01*
X124657816Y-92756696D01*
X124657822Y-92756695D01*
X124771950Y-92690803D01*
X124865136Y-92597617D01*
X124931028Y-92483489D01*
X124965136Y-92356195D01*
X124965136Y-92224411D01*
X124931028Y-92097117D01*
X124865136Y-91982989D01*
X124771950Y-91889803D01*
X124714886Y-91856857D01*
X124657823Y-91823911D01*
X124591704Y-91806195D01*
X124530528Y-91789803D01*
X124439073Y-91789803D01*
X124372034Y-91770118D01*
X124326279Y-91717314D01*
X124316134Y-91681993D01*
X124315136Y-91674417D01*
X124315136Y-91674411D01*
X124281028Y-91547117D01*
X124215136Y-91432989D01*
X124121950Y-91339803D01*
X124035348Y-91289803D01*
X124007823Y-91273911D01*
X123944175Y-91256857D01*
X123880528Y-91239803D01*
X123748744Y-91239803D01*
X123621450Y-91273911D01*
X123613940Y-91277022D01*
X123613386Y-91275684D01*
X123560699Y-91289803D01*
X103955327Y-91289803D01*
X103886580Y-91308223D01*
X103840748Y-91320504D01*
X103840743Y-91320507D01*
X103738029Y-91379808D01*
X103738021Y-91379814D01*
X103025645Y-92092189D01*
X102978411Y-92119464D01*
X102978964Y-92120798D01*
X102971452Y-92123909D01*
X102857325Y-92189801D01*
X102857319Y-92189805D01*
X102764138Y-92282986D01*
X102764136Y-92282989D01*
X102698244Y-92397115D01*
X102664136Y-92524411D01*
X94555136Y-92524411D01*
X94555136Y-83690550D01*
X106014136Y-83690550D01*
X106014136Y-85430055D01*
X106025767Y-85488532D01*
X106025768Y-85488533D01*
X106070083Y-85554855D01*
X106136405Y-85599170D01*
X106136406Y-85599171D01*
X106194883Y-85610802D01*
X106194886Y-85610803D01*
X106194888Y-85610803D01*
X107934386Y-85610803D01*
X107934387Y-85610802D01*
X107949204Y-85607855D01*
X107992865Y-85599171D01*
X107992865Y-85599170D01*
X107992867Y-85599170D01*
X108059188Y-85554855D01*
X108103503Y-85488534D01*
X108103503Y-85488532D01*
X108103504Y-85488532D01*
X108115135Y-85430055D01*
X108115136Y-85430053D01*
X108115136Y-83690552D01*
X108115135Y-83690550D01*
X109564136Y-83690550D01*
X109564136Y-85430055D01*
X109575767Y-85488532D01*
X109575768Y-85488533D01*
X109620083Y-85554855D01*
X109686405Y-85599170D01*
X109686406Y-85599171D01*
X109744883Y-85610802D01*
X109744886Y-85610803D01*
X109744888Y-85610803D01*
X111484386Y-85610803D01*
X111484387Y-85610802D01*
X111499204Y-85607855D01*
X111542865Y-85599171D01*
X111542865Y-85599170D01*
X111542867Y-85599170D01*
X111609188Y-85554855D01*
X111653503Y-85488534D01*
X111653503Y-85488532D01*
X111653504Y-85488532D01*
X111665135Y-85430055D01*
X111665136Y-85430053D01*
X111665136Y-83690552D01*
X111665135Y-83690550D01*
X113114136Y-83690550D01*
X113114136Y-85430055D01*
X113125767Y-85488532D01*
X113125768Y-85488533D01*
X113170083Y-85554855D01*
X113236405Y-85599170D01*
X113236406Y-85599171D01*
X113294883Y-85610802D01*
X113294886Y-85610803D01*
X113294888Y-85610803D01*
X115034386Y-85610803D01*
X115034387Y-85610802D01*
X115049204Y-85607855D01*
X115092865Y-85599171D01*
X115092865Y-85599170D01*
X115092867Y-85599170D01*
X115159188Y-85554855D01*
X115203503Y-85488534D01*
X115203503Y-85488532D01*
X115203504Y-85488532D01*
X115215135Y-85430055D01*
X115215136Y-85430053D01*
X115215136Y-83690552D01*
X115215135Y-83690550D01*
X115203504Y-83632073D01*
X115203503Y-83632072D01*
X115159188Y-83565750D01*
X115092866Y-83521435D01*
X115092865Y-83521434D01*
X115034388Y-83509803D01*
X115034384Y-83509803D01*
X113294888Y-83509803D01*
X113294883Y-83509803D01*
X113236406Y-83521434D01*
X113236405Y-83521435D01*
X113170083Y-83565750D01*
X113125768Y-83632072D01*
X113125767Y-83632073D01*
X113114136Y-83690550D01*
X111665135Y-83690550D01*
X111653504Y-83632073D01*
X111653503Y-83632072D01*
X111609188Y-83565750D01*
X111542866Y-83521435D01*
X111542865Y-83521434D01*
X111484388Y-83509803D01*
X111484384Y-83509803D01*
X109744888Y-83509803D01*
X109744883Y-83509803D01*
X109686406Y-83521434D01*
X109686405Y-83521435D01*
X109620083Y-83565750D01*
X109575768Y-83632072D01*
X109575767Y-83632073D01*
X109564136Y-83690550D01*
X108115135Y-83690550D01*
X108103504Y-83632073D01*
X108103503Y-83632072D01*
X108059188Y-83565750D01*
X107992866Y-83521435D01*
X107992865Y-83521434D01*
X107934388Y-83509803D01*
X107934384Y-83509803D01*
X106194888Y-83509803D01*
X106194883Y-83509803D01*
X106136406Y-83521434D01*
X106136405Y-83521435D01*
X106070083Y-83565750D01*
X106025768Y-83632072D01*
X106025767Y-83632073D01*
X106014136Y-83690550D01*
X94555136Y-83690550D01*
X94555136Y-82043354D01*
X94555285Y-82037269D01*
X94561202Y-81916837D01*
X106014136Y-81916837D01*
X106014136Y-82123772D01*
X106054504Y-82326715D01*
X106054506Y-82326723D01*
X106133695Y-82517901D01*
X106162022Y-82560295D01*
X106248660Y-82689960D01*
X106394978Y-82836278D01*
X106394981Y-82836280D01*
X106567038Y-82951244D01*
X106758216Y-83030433D01*
X106961166Y-83070802D01*
X106961170Y-83070803D01*
X106961171Y-83070803D01*
X107168102Y-83070803D01*
X107168103Y-83070802D01*
X107371056Y-83030433D01*
X107562234Y-82951244D01*
X107734291Y-82836280D01*
X107880613Y-82689958D01*
X107995577Y-82517901D01*
X108074766Y-82326723D01*
X108115136Y-82123768D01*
X108115136Y-81916838D01*
X108115136Y-81916837D01*
X109564136Y-81916837D01*
X109564136Y-82123772D01*
X109604504Y-82326715D01*
X109604506Y-82326723D01*
X109683695Y-82517901D01*
X109712022Y-82560295D01*
X109798660Y-82689960D01*
X109944978Y-82836278D01*
X109944981Y-82836280D01*
X110117038Y-82951244D01*
X110308216Y-83030433D01*
X110511166Y-83070802D01*
X110511170Y-83070803D01*
X110511171Y-83070803D01*
X110718102Y-83070803D01*
X110718103Y-83070802D01*
X110921056Y-83030433D01*
X111112234Y-82951244D01*
X111284291Y-82836280D01*
X111430613Y-82689958D01*
X111545577Y-82517901D01*
X111624766Y-82326723D01*
X111665136Y-82123768D01*
X111665136Y-81916838D01*
X111665136Y-81916837D01*
X113114136Y-81916837D01*
X113114136Y-82123772D01*
X113154504Y-82326715D01*
X113154506Y-82326723D01*
X113233695Y-82517901D01*
X113262022Y-82560295D01*
X113348660Y-82689960D01*
X113494978Y-82836278D01*
X113494981Y-82836280D01*
X113667038Y-82951244D01*
X113858216Y-83030433D01*
X114061166Y-83070802D01*
X114061170Y-83070803D01*
X114061171Y-83070803D01*
X114268102Y-83070803D01*
X114268103Y-83070802D01*
X114471056Y-83030433D01*
X114662234Y-82951244D01*
X114834291Y-82836280D01*
X114980613Y-82689958D01*
X115095577Y-82517901D01*
X115174766Y-82326723D01*
X115215136Y-82123768D01*
X115215136Y-82011822D01*
X115223780Y-81982381D01*
X115230304Y-81952395D01*
X115234058Y-81947379D01*
X115234821Y-81944783D01*
X115251455Y-81924141D01*
X115268474Y-81907122D01*
X115329797Y-81873637D01*
X115356155Y-81870803D01*
X125303117Y-81870803D01*
X125370156Y-81890488D01*
X125390798Y-81907122D01*
X125832606Y-82348930D01*
X125866091Y-82410253D01*
X125861107Y-82479945D01*
X125819235Y-82535878D01*
X125753771Y-82560295D01*
X125720734Y-82558228D01*
X125628105Y-82539803D01*
X125628101Y-82539803D01*
X125421171Y-82539803D01*
X125421166Y-82539803D01*
X125218223Y-82580171D01*
X125218215Y-82580173D01*
X125027039Y-82659361D01*
X124854978Y-82774327D01*
X124708660Y-82920645D01*
X124593694Y-83092706D01*
X124514506Y-83283882D01*
X124514504Y-83283890D01*
X124474136Y-83486833D01*
X124474136Y-83693772D01*
X124514504Y-83896715D01*
X124514506Y-83896723D01*
X124593694Y-84087899D01*
X124708660Y-84259960D01*
X124854978Y-84406278D01*
X124854981Y-84406280D01*
X125027038Y-84521244D01*
X125218216Y-84600433D01*
X125362688Y-84629170D01*
X125421166Y-84640802D01*
X125421170Y-84640803D01*
X125421171Y-84640803D01*
X125628102Y-84640803D01*
X125628103Y-84640802D01*
X125831056Y-84600433D01*
X126022234Y-84521244D01*
X126194291Y-84406280D01*
X126340613Y-84259958D01*
X126455577Y-84087901D01*
X126534766Y-83896723D01*
X126575136Y-83693768D01*
X126575136Y-83486838D01*
X126556710Y-83394203D01*
X126562937Y-83324612D01*
X126605800Y-83269435D01*
X126671690Y-83246190D01*
X126739687Y-83262258D01*
X126766008Y-83282331D01*
X126977817Y-83494140D01*
X127011302Y-83555463D01*
X127014136Y-83581821D01*
X127014136Y-83693772D01*
X127054504Y-83896715D01*
X127054506Y-83896723D01*
X127133694Y-84087899D01*
X127248660Y-84259960D01*
X127394978Y-84406278D01*
X127394981Y-84406280D01*
X127567038Y-84521244D01*
X127758216Y-84600433D01*
X127902688Y-84629170D01*
X127961166Y-84640802D01*
X127961170Y-84640803D01*
X127961171Y-84640803D01*
X128073117Y-84640803D01*
X128140156Y-84660488D01*
X128160798Y-84677122D01*
X133197817Y-89714140D01*
X133231302Y-89775463D01*
X133234136Y-89801821D01*
X133234136Y-95300865D01*
X133214451Y-95367904D01*
X133197817Y-95388546D01*
X129632879Y-98953484D01*
X129605951Y-98968187D01*
X129580133Y-98984780D01*
X129573932Y-98985671D01*
X129571556Y-98986969D01*
X129545198Y-98989803D01*
X129521130Y-98989803D01*
X129454091Y-98970118D01*
X129433453Y-98953488D01*
X129354291Y-98874326D01*
X129182234Y-98759362D01*
X128991056Y-98680173D01*
X128991048Y-98680171D01*
X128788105Y-98639803D01*
X128788101Y-98639803D01*
X128581171Y-98639803D01*
X128581166Y-98639803D01*
X128378223Y-98680171D01*
X128378215Y-98680173D01*
X128187039Y-98759361D01*
X128014978Y-98874327D01*
X127868660Y-99020645D01*
X127753694Y-99192706D01*
X127674506Y-99383882D01*
X127674504Y-99383890D01*
X127634136Y-99586833D01*
X127634136Y-99793772D01*
X127660504Y-99926330D01*
X127674506Y-99996723D01*
X127753695Y-100187901D01*
X127784776Y-100234417D01*
X127868660Y-100359960D01*
X128014978Y-100506278D01*
X128014981Y-100506280D01*
X128187038Y-100621244D01*
X128378216Y-100700433D01*
X128581166Y-100740802D01*
X128581170Y-100740803D01*
X128581171Y-100740803D01*
X128788102Y-100740803D01*
X128788103Y-100740802D01*
X128991056Y-100700433D01*
X129182234Y-100621244D01*
X129354291Y-100506280D01*
X129433450Y-100427120D01*
X129494771Y-100393637D01*
X129521130Y-100390803D01*
X129955713Y-100390803D01*
X130046757Y-100372692D01*
X130091045Y-100363883D01*
X130154786Y-100337480D01*
X130218524Y-100311080D01*
X130218525Y-100311079D01*
X130218528Y-100311078D01*
X130333260Y-100234417D01*
X131927874Y-98639803D01*
X133520845Y-97046833D01*
X141294136Y-97046833D01*
X141294136Y-97253772D01*
X141334504Y-97456715D01*
X141334506Y-97456723D01*
X141413694Y-97647899D01*
X141528660Y-97819960D01*
X141674978Y-97966278D01*
X141674981Y-97966280D01*
X141847038Y-98081244D01*
X142038216Y-98160433D01*
X142182688Y-98189170D01*
X142241166Y-98200802D01*
X142241170Y-98200803D01*
X142241171Y-98200803D01*
X142448102Y-98200803D01*
X142448103Y-98200802D01*
X142651056Y-98160433D01*
X142772227Y-98110241D01*
X142819680Y-98100803D01*
X157629564Y-98100803D01*
X157696603Y-98120488D01*
X157717245Y-98137122D01*
X162177817Y-102597694D01*
X162211302Y-102659017D01*
X162214136Y-102685375D01*
X162214136Y-113286802D01*
X162194451Y-113353841D01*
X162141647Y-113399596D01*
X162072489Y-113409540D01*
X162008933Y-113380515D01*
X161971159Y-113321737D01*
X161966847Y-113300060D01*
X161966124Y-113293337D01*
X161966123Y-113293335D01*
X161964077Y-113286802D01*
X161942165Y-113216821D01*
X161908680Y-113155498D01*
X161896931Y-113139803D01*
X161873637Y-113108687D01*
X161873634Y-113108684D01*
X161873627Y-113108674D01*
X161846265Y-113081312D01*
X161846264Y-113081311D01*
X161846259Y-113081306D01*
X161829919Y-113066628D01*
X161829905Y-113066616D01*
X161809256Y-113049975D01*
X161738211Y-113012812D01*
X161671179Y-112993129D01*
X161670530Y-112993035D01*
X161613274Y-112984803D01*
X159878950Y-112984803D01*
X159872043Y-112984919D01*
X159872018Y-112984919D01*
X159872008Y-112984920D01*
X159863722Y-112985198D01*
X159799616Y-112997740D01*
X159734057Y-113021879D01*
X159711037Y-113031994D01*
X159711035Y-113031996D01*
X159652870Y-113080947D01*
X159588903Y-113109052D01*
X159538092Y-113105050D01*
X159497496Y-113093130D01*
X159497491Y-113093129D01*
X159497487Y-113093128D01*
X159439589Y-113084803D01*
X159439585Y-113084803D01*
X157894136Y-113084803D01*
X157827097Y-113065118D01*
X157781342Y-113012314D01*
X157770136Y-112960803D01*
X157770136Y-110314311D01*
X157770135Y-110314295D01*
X157765439Y-110270619D01*
X157757879Y-110235868D01*
X157754238Y-110219128D01*
X157753913Y-110217801D01*
X157751746Y-110208930D01*
X157708736Y-110128218D01*
X157662981Y-110075414D01*
X157662975Y-110075407D01*
X157645393Y-110057463D01*
X157645392Y-110057462D01*
X157645390Y-110057460D01*
X157645388Y-110057459D01*
X157645386Y-110057457D01*
X157565576Y-110012814D01*
X157565571Y-110012812D01*
X157498539Y-109993129D01*
X157498535Y-109993128D01*
X157498534Y-109993128D01*
X157440636Y-109984803D01*
X156188636Y-109984803D01*
X156188628Y-109984803D01*
X156144949Y-109989500D01*
X156093461Y-110000700D01*
X156083263Y-110003193D01*
X156083260Y-110003194D01*
X156002552Y-110046202D01*
X156002549Y-110046204D01*
X155949740Y-110091963D01*
X155931796Y-110109545D01*
X155931790Y-110109552D01*
X155887147Y-110189362D01*
X155887145Y-110189367D01*
X155867462Y-110256399D01*
X155867461Y-110256404D01*
X155867461Y-110256405D01*
X155859138Y-110314295D01*
X155859136Y-110314306D01*
X155859136Y-113290303D01*
X152514636Y-113290303D01*
X148864636Y-113290303D01*
X148864636Y-118384803D01*
X148288636Y-118384803D01*
X148288628Y-118384803D01*
X148244949Y-118389500D01*
X148193461Y-118400700D01*
X148183263Y-118403193D01*
X148183260Y-118403194D01*
X148102552Y-118446202D01*
X148102549Y-118446204D01*
X148049740Y-118491963D01*
X148031796Y-118509545D01*
X148031790Y-118509552D01*
X147987147Y-118589362D01*
X147987145Y-118589367D01*
X147967462Y-118656399D01*
X147967461Y-118656404D01*
X147967461Y-118656405D01*
X147959136Y-118714303D01*
X147959136Y-125615530D01*
X147960166Y-125624973D01*
X147963969Y-125659839D01*
X147966583Y-125671675D01*
X147971775Y-125695193D01*
X147975504Y-125712078D01*
X147978184Y-125722829D01*
X147978185Y-125722830D01*
X147978186Y-125722833D01*
X148021696Y-125803277D01*
X148067778Y-125855796D01*
X148076376Y-125864463D01*
X148085478Y-125873639D01*
X148085482Y-125873642D01*
X148127066Y-125896564D01*
X148165575Y-125917791D01*
X148218991Y-125933116D01*
X148232731Y-125937058D01*
X148232735Y-125937059D01*
X148290682Y-125945024D01*
X156092682Y-125896564D01*
X156135715Y-125891734D01*
X156174598Y-125883148D01*
X156186434Y-125880535D01*
X156186439Y-125880533D01*
X156186456Y-125880530D01*
X156196009Y-125878180D01*
X156276721Y-125835170D01*
X156329525Y-125789415D01*
X156347479Y-125771824D01*
X156392126Y-125692007D01*
X156411811Y-125624968D01*
X156420136Y-125567070D01*
X156420136Y-118714303D01*
X156415439Y-118670619D01*
X156409471Y-118643186D01*
X156404238Y-118619128D01*
X156403984Y-118618092D01*
X156401746Y-118608930D01*
X156358736Y-118528218D01*
X156312981Y-118475414D01*
X156312975Y-118475407D01*
X156295393Y-118457463D01*
X156295392Y-118457462D01*
X156295390Y-118457460D01*
X156295388Y-118457459D01*
X156295386Y-118457457D01*
X156290285Y-118454603D01*
X157309136Y-118449351D01*
X157309136Y-125566310D01*
X157313833Y-125609989D01*
X157325033Y-125661477D01*
X157327526Y-125671675D01*
X157327527Y-125671678D01*
X157370535Y-125752386D01*
X157370537Y-125752389D01*
X157416296Y-125805198D01*
X157433878Y-125823142D01*
X157433882Y-125823146D01*
X157433883Y-125823147D01*
X157433885Y-125823148D01*
X157513695Y-125867791D01*
X157513699Y-125867793D01*
X157580738Y-125887478D01*
X157638636Y-125895803D01*
X157638640Y-125895803D01*
X162690627Y-125895803D01*
X162690636Y-125895803D01*
X162734320Y-125891106D01*
X162763511Y-125884755D01*
X162785810Y-125879905D01*
X162785826Y-125879901D01*
X162785831Y-125879900D01*
X162796009Y-125877413D01*
X162876721Y-125834403D01*
X162929525Y-125788648D01*
X162947479Y-125771057D01*
X162992126Y-125691240D01*
X163011811Y-125624201D01*
X163020136Y-125566303D01*
X163020136Y-121609537D01*
X168679136Y-121609537D01*
X168679136Y-121761068D01*
X168718355Y-121907439D01*
X168747223Y-121957439D01*
X168794121Y-122038668D01*
X168901271Y-122145818D01*
X169032501Y-122221584D01*
X169178870Y-122260803D01*
X169178872Y-122260803D01*
X169330400Y-122260803D01*
X169330402Y-122260803D01*
X169476771Y-122221584D01*
X169608001Y-122145818D01*
X169715151Y-122038668D01*
X169790917Y-121907438D01*
X169830136Y-121761069D01*
X169830136Y-121609537D01*
X174459136Y-121609537D01*
X174459136Y-121761068D01*
X174498355Y-121907439D01*
X174527223Y-121957439D01*
X174574121Y-122038668D01*
X174681271Y-122145818D01*
X174812501Y-122221584D01*
X174958870Y-122260803D01*
X174958872Y-122260803D01*
X175110400Y-122260803D01*
X175110402Y-122260803D01*
X175256771Y-122221584D01*
X175388001Y-122145818D01*
X175495151Y-122038668D01*
X175570917Y-121907438D01*
X175610136Y-121761069D01*
X175610136Y-121609537D01*
X175570917Y-121463168D01*
X175495151Y-121331938D01*
X175388001Y-121224788D01*
X175322386Y-121186905D01*
X175256772Y-121149022D01*
X175183586Y-121129412D01*
X175110402Y-121109803D01*
X174958870Y-121109803D01*
X174812499Y-121149022D01*
X174681271Y-121224788D01*
X174681268Y-121224790D01*
X174574123Y-121331935D01*
X174574121Y-121331938D01*
X174498355Y-121463166D01*
X174459136Y-121609537D01*
X169830136Y-121609537D01*
X169790917Y-121463168D01*
X169715151Y-121331938D01*
X169608001Y-121224788D01*
X169542386Y-121186905D01*
X169476772Y-121149022D01*
X169403586Y-121129412D01*
X169330402Y-121109803D01*
X169178870Y-121109803D01*
X169032499Y-121149022D01*
X168901271Y-121224788D01*
X168901268Y-121224790D01*
X168794123Y-121331935D01*
X168794121Y-121331938D01*
X168718355Y-121463166D01*
X168679136Y-121609537D01*
X163020136Y-121609537D01*
X163020136Y-119351348D01*
X163015350Y-119307255D01*
X163003933Y-119255284D01*
X163001313Y-119244707D01*
X162957975Y-119164171D01*
X162957974Y-119164169D01*
X162912024Y-119111576D01*
X162912005Y-119111554D01*
X162894341Y-119093672D01*
X162894340Y-119093671D01*
X162832296Y-119059297D01*
X162814342Y-119049350D01*
X162814340Y-119049349D01*
X162814336Y-119049347D01*
X162747236Y-119029941D01*
X162747231Y-119029940D01*
X162747226Y-119029939D01*
X162747225Y-119029939D01*
X162689294Y-119021851D01*
X162689291Y-119021851D01*
X159847433Y-119033443D01*
X159837989Y-119030711D01*
X159828246Y-119032029D01*
X159804979Y-119021165D01*
X159780314Y-119014032D01*
X159773845Y-119006628D01*
X159764938Y-119002469D01*
X159751238Y-118980752D01*
X159734344Y-118961415D01*
X159731911Y-118950114D01*
X159727660Y-118943375D01*
X159722931Y-118908405D01*
X159723265Y-118868757D01*
X159743514Y-118801887D01*
X159796702Y-118756579D01*
X159847261Y-118745803D01*
X161613275Y-118745803D01*
X161615816Y-118745666D01*
X161635243Y-118744625D01*
X161635250Y-118744624D01*
X161635254Y-118744624D01*
X161661601Y-118741791D01*
X161738118Y-118717832D01*
X161799441Y-118684347D01*
X161846265Y-118649294D01*
X161873627Y-118621932D01*
X161888329Y-118605565D01*
X161904963Y-118584923D01*
X161904966Y-118584915D01*
X161908304Y-118579823D01*
X161908545Y-118579980D01*
X161913316Y-118572403D01*
X161913966Y-118571537D01*
X161927777Y-118541296D01*
X161942138Y-118513838D01*
X161942900Y-118511241D01*
X161941670Y-118510880D01*
X161950272Y-118492048D01*
X161954291Y-118473566D01*
X161956480Y-118464991D01*
X161958693Y-118457457D01*
X161961811Y-118446841D01*
X161970136Y-118388941D01*
X161970136Y-116464803D01*
X161989821Y-116397764D01*
X162042625Y-116352009D01*
X162094136Y-116340803D01*
X162358254Y-116340803D01*
X162369922Y-116338481D01*
X162450069Y-116322539D01*
X162541887Y-116304276D01*
X162613537Y-116274597D01*
X162714866Y-116232626D01*
X162870544Y-116128605D01*
X163902937Y-115096212D01*
X163907220Y-115089803D01*
X164006958Y-114940534D01*
X164078609Y-114767554D01*
X164098627Y-114666917D01*
X164100142Y-114659299D01*
X167414135Y-114659299D01*
X167441054Y-114794625D01*
X167441057Y-114794635D01*
X167493858Y-114922110D01*
X167570523Y-115036848D01*
X167570524Y-115036849D01*
X168670522Y-116136846D01*
X168977817Y-116444141D01*
X169011302Y-116505464D01*
X169014136Y-116531822D01*
X169014136Y-118808551D01*
X169011753Y-118832743D01*
X168994136Y-118921306D01*
X168994136Y-118921309D01*
X168994136Y-119059297D01*
X168994136Y-119059299D01*
X168994135Y-119059299D01*
X169021054Y-119194625D01*
X169021057Y-119194635D01*
X169073858Y-119322110D01*
X169150523Y-119436848D01*
X169248090Y-119534415D01*
X169362828Y-119611080D01*
X169490303Y-119663881D01*
X169490308Y-119663883D01*
X169490312Y-119663883D01*
X169490313Y-119663884D01*
X169625639Y-119690803D01*
X169625642Y-119690803D01*
X169763632Y-119690803D01*
X169854676Y-119672692D01*
X169898964Y-119663883D01*
X169969201Y-119634790D01*
X170026443Y-119611080D01*
X170026444Y-119611079D01*
X170026447Y-119611078D01*
X170141179Y-119534417D01*
X170258750Y-119416846D01*
X170335411Y-119302114D01*
X170388216Y-119174632D01*
X170399191Y-119119456D01*
X170402562Y-119102510D01*
X170402562Y-119102507D01*
X170415136Y-119039296D01*
X170415136Y-118544618D01*
X170434821Y-118477579D01*
X170487625Y-118431824D01*
X170556783Y-118421880D01*
X170601137Y-118437231D01*
X170607319Y-118440800D01*
X170607322Y-118440803D01*
X170721450Y-118506695D01*
X170848744Y-118540803D01*
X170848746Y-118540803D01*
X170980526Y-118540803D01*
X170980528Y-118540803D01*
X171107822Y-118506695D01*
X171221950Y-118440803D01*
X171315136Y-118347617D01*
X171381028Y-118233489D01*
X171415136Y-118106195D01*
X171415136Y-117974411D01*
X171381028Y-117847117D01*
X171315136Y-117732989D01*
X171221950Y-117639803D01*
X171197134Y-117625475D01*
X171148920Y-117574907D01*
X171135136Y-117518089D01*
X171135136Y-116648979D01*
X171154821Y-116581940D01*
X171171455Y-116561298D01*
X171200931Y-116531822D01*
X171235136Y-116497617D01*
X171301028Y-116383489D01*
X171335136Y-116256195D01*
X171335136Y-116124411D01*
X171314098Y-116045895D01*
X171315761Y-115976046D01*
X171354924Y-115918184D01*
X171419152Y-115890680D01*
X171433873Y-115889803D01*
X171972117Y-115889803D01*
X172039156Y-115909488D01*
X172059798Y-115926122D01*
X173218089Y-117084414D01*
X173218090Y-117084415D01*
X173332828Y-117161080D01*
X173416306Y-117195657D01*
X173460308Y-117213883D01*
X173460312Y-117213883D01*
X173460313Y-117213884D01*
X173595640Y-117240803D01*
X173595643Y-117240803D01*
X173733632Y-117240803D01*
X173824678Y-117222692D01*
X173868965Y-117213883D01*
X173996448Y-117161078D01*
X174111179Y-117084417D01*
X174208750Y-116986846D01*
X174285411Y-116872115D01*
X174338216Y-116744632D01*
X174357243Y-116648979D01*
X174365136Y-116609299D01*
X174365136Y-116471307D01*
X174338217Y-116335980D01*
X174338216Y-116335979D01*
X174338216Y-116335975D01*
X174325086Y-116304276D01*
X174285413Y-116208495D01*
X174208748Y-116093757D01*
X172760181Y-114645190D01*
X172645443Y-114568525D01*
X172517968Y-114515724D01*
X172517958Y-114515721D01*
X172382632Y-114488803D01*
X172382630Y-114488803D01*
X172382629Y-114488803D01*
X172181394Y-114488803D01*
X172114355Y-114469118D01*
X172068600Y-114416314D01*
X172058656Y-114347156D01*
X172059777Y-114340610D01*
X172065136Y-114313670D01*
X172065136Y-108332351D01*
X172084821Y-108265312D01*
X172137625Y-108219557D01*
X172206783Y-108209613D01*
X172270339Y-108238638D01*
X172276817Y-108244670D01*
X173527817Y-109495670D01*
X173561302Y-109556993D01*
X173564136Y-109583351D01*
X173564136Y-110181626D01*
X173544451Y-110248665D01*
X173527818Y-110269307D01*
X173464136Y-110332989D01*
X173398244Y-110447115D01*
X173364136Y-110574411D01*
X173364136Y-110706194D01*
X173398244Y-110833490D01*
X173431190Y-110890553D01*
X173464136Y-110947617D01*
X173557322Y-111040803D01*
X173671450Y-111106695D01*
X173798744Y-111140803D01*
X173798746Y-111140803D01*
X173930526Y-111140803D01*
X173930528Y-111140803D01*
X174057822Y-111106695D01*
X174171950Y-111040803D01*
X174265136Y-110947617D01*
X174331028Y-110833489D01*
X174365136Y-110706195D01*
X174365136Y-110574411D01*
X174331028Y-110447117D01*
X174265136Y-110332989D01*
X174201454Y-110269307D01*
X174167970Y-110207983D01*
X174165136Y-110181626D01*
X174165136Y-109367957D01*
X174165136Y-109367956D01*
X174144657Y-109291529D01*
X174144653Y-109291522D01*
X174105100Y-109223013D01*
X174105094Y-109223005D01*
X171880933Y-106998844D01*
X171880925Y-106998838D01*
X171812416Y-106959285D01*
X171812411Y-106959282D01*
X171786934Y-106952455D01*
X171735983Y-106938803D01*
X171072413Y-106938803D01*
X170993289Y-106938803D01*
X170916861Y-106959281D01*
X170848340Y-106998843D01*
X170848337Y-106998845D01*
X169024177Y-108823005D01*
X169024171Y-108823013D01*
X168984618Y-108891522D01*
X168984615Y-108891527D01*
X168964136Y-108967957D01*
X168964136Y-113331626D01*
X168944451Y-113398665D01*
X168927818Y-113419307D01*
X168864136Y-113482989D01*
X168798244Y-113597115D01*
X168764136Y-113724411D01*
X168764136Y-113801575D01*
X168744451Y-113868614D01*
X168691647Y-113914369D01*
X168622489Y-113924313D01*
X168566778Y-113899770D01*
X168566243Y-113900573D01*
X168561683Y-113897526D01*
X168561483Y-113897438D01*
X168561183Y-113897192D01*
X168446453Y-113820531D01*
X168446440Y-113820524D01*
X168318968Y-113767724D01*
X168318958Y-113767721D01*
X168183631Y-113740803D01*
X168183629Y-113740803D01*
X168045643Y-113740803D01*
X168045641Y-113740803D01*
X167910313Y-113767721D01*
X167910303Y-113767724D01*
X167782831Y-113820524D01*
X167782818Y-113820531D01*
X167668094Y-113897188D01*
X167668090Y-113897191D01*
X167570524Y-113994757D01*
X167570521Y-113994761D01*
X167493864Y-114109485D01*
X167493857Y-114109498D01*
X167441057Y-114236970D01*
X167441054Y-114236980D01*
X167414136Y-114372307D01*
X167414136Y-114372310D01*
X167414136Y-114521309D01*
X167414136Y-114659297D01*
X167414136Y-114659299D01*
X167414135Y-114659299D01*
X164100142Y-114659299D01*
X164115136Y-114583920D01*
X164115136Y-114396686D01*
X164115136Y-111268995D01*
X165214135Y-111268995D01*
X165241054Y-111404322D01*
X165241057Y-111404332D01*
X165293857Y-111531804D01*
X165293864Y-111531817D01*
X165370521Y-111646541D01*
X165370524Y-111646545D01*
X165468090Y-111744111D01*
X165468094Y-111744114D01*
X165582818Y-111820771D01*
X165582831Y-111820778D01*
X165710303Y-111873578D01*
X165710308Y-111873580D01*
X165710312Y-111873580D01*
X165710313Y-111873581D01*
X165845640Y-111900500D01*
X165845643Y-111900500D01*
X165983631Y-111900500D01*
X166074677Y-111882389D01*
X166118964Y-111873580D01*
X166246447Y-111820775D01*
X166361178Y-111744114D01*
X166458750Y-111646542D01*
X166535411Y-111531811D01*
X166588216Y-111404328D01*
X166615136Y-111268993D01*
X166615136Y-110631822D01*
X166634821Y-110564783D01*
X166651455Y-110544141D01*
X170768435Y-106427161D01*
X170768437Y-106427159D01*
X170845098Y-106312427D01*
X170866896Y-106259803D01*
X170897901Y-106184948D01*
X170897903Y-106184944D01*
X170909944Y-106124411D01*
X172464136Y-106124411D01*
X172464136Y-106256194D01*
X172498244Y-106383490D01*
X172523457Y-106427159D01*
X172564136Y-106497617D01*
X172657322Y-106590803D01*
X172756157Y-106647866D01*
X172766061Y-106653584D01*
X172771450Y-106656695D01*
X172898744Y-106690803D01*
X172898746Y-106690803D01*
X173030526Y-106690803D01*
X173030528Y-106690803D01*
X173157822Y-106656695D01*
X173157830Y-106656690D01*
X173165332Y-106653584D01*
X173165885Y-106654921D01*
X173218573Y-106640803D01*
X174723944Y-106640803D01*
X174723945Y-106640803D01*
X174814309Y-106616589D01*
X174838523Y-106610102D01*
X174941250Y-106550792D01*
X175253627Y-106238413D01*
X175300864Y-106211145D01*
X175300310Y-106209807D01*
X175307816Y-106206696D01*
X175307822Y-106206695D01*
X175421950Y-106140803D01*
X175515136Y-106047617D01*
X175581028Y-105933489D01*
X175615136Y-105806195D01*
X175615136Y-105674411D01*
X175581028Y-105547117D01*
X175515136Y-105432989D01*
X175421950Y-105339803D01*
X175364886Y-105306857D01*
X175307823Y-105273911D01*
X175244175Y-105256857D01*
X175180528Y-105239803D01*
X175048744Y-105239803D01*
X174921448Y-105273911D01*
X174807322Y-105339803D01*
X174807319Y-105339805D01*
X174714138Y-105432986D01*
X174714134Y-105432992D01*
X174648242Y-105547119D01*
X174645131Y-105554631D01*
X174643795Y-105554077D01*
X174640598Y-105559614D01*
X174637675Y-105573055D01*
X174616524Y-105601309D01*
X174514352Y-105703483D01*
X174453029Y-105736969D01*
X174426670Y-105739803D01*
X173218573Y-105739803D01*
X173165885Y-105725684D01*
X173165332Y-105727022D01*
X173157824Y-105723912D01*
X173157822Y-105723911D01*
X173030528Y-105689803D01*
X172898744Y-105689803D01*
X172771448Y-105723911D01*
X172657322Y-105789803D01*
X172657319Y-105789805D01*
X172564138Y-105882986D01*
X172564136Y-105882989D01*
X172498244Y-105997115D01*
X172464136Y-106124411D01*
X170909944Y-106124411D01*
X170924823Y-106049610D01*
X170924823Y-105911622D01*
X170924823Y-103508940D01*
X170924823Y-103508937D01*
X170897904Y-103373610D01*
X170897903Y-103373609D01*
X170897903Y-103373605D01*
X170897901Y-103373600D01*
X170845101Y-103246128D01*
X170845094Y-103246115D01*
X170768437Y-103131391D01*
X170768434Y-103131387D01*
X170670868Y-103033821D01*
X170670864Y-103033818D01*
X170556140Y-102957161D01*
X170556127Y-102957154D01*
X170428655Y-102904354D01*
X170428645Y-102904351D01*
X170293318Y-102877433D01*
X170293316Y-102877433D01*
X170155330Y-102877433D01*
X170155328Y-102877433D01*
X170020000Y-102904351D01*
X170019990Y-102904354D01*
X169892518Y-102957154D01*
X169892505Y-102957161D01*
X169777781Y-103033818D01*
X169777777Y-103033821D01*
X169680211Y-103131387D01*
X169680208Y-103131391D01*
X169603551Y-103246115D01*
X169603544Y-103246128D01*
X169550744Y-103373600D01*
X169550741Y-103373610D01*
X169523823Y-103508937D01*
X169523823Y-105639096D01*
X169504138Y-105706135D01*
X169487504Y-105726777D01*
X165370524Y-109843756D01*
X165370523Y-109843757D01*
X165293858Y-109958495D01*
X165241057Y-110085970D01*
X165241054Y-110085982D01*
X165216599Y-110208923D01*
X165216600Y-110208924D01*
X165216599Y-110208930D01*
X165214136Y-110221310D01*
X165214136Y-111268993D01*
X165214136Y-111268995D01*
X165214135Y-111268995D01*
X164115136Y-111268995D01*
X164115136Y-102685375D01*
X164134821Y-102618336D01*
X164151455Y-102597694D01*
X165872027Y-100877122D01*
X165933350Y-100843637D01*
X165959708Y-100840803D01*
X170156384Y-100840803D01*
X171921020Y-100840803D01*
X176019564Y-100840803D01*
X176086603Y-100860488D01*
X176107245Y-100877122D01*
X176808724Y-101578602D01*
X176808728Y-101578605D01*
X176964399Y-101682622D01*
X176964401Y-101682623D01*
X176964406Y-101682626D01*
X177065735Y-101724597D01*
X177137385Y-101754276D01*
X177229202Y-101772539D01*
X177309254Y-101788462D01*
X177321018Y-101790803D01*
X177321019Y-101790803D01*
X179308253Y-101790803D01*
X179308254Y-101790802D01*
X179491887Y-101754276D01*
X179664867Y-101682625D01*
X179820544Y-101578605D01*
X179952938Y-101446211D01*
X180056958Y-101290534D01*
X180128609Y-101117554D01*
X180165136Y-100933919D01*
X180165136Y-100746687D01*
X180128609Y-100563052D01*
X180056958Y-100390072D01*
X180056957Y-100390071D01*
X180056954Y-100390065D01*
X179952938Y-100234395D01*
X179952935Y-100234391D01*
X179820547Y-100102003D01*
X179820543Y-100102000D01*
X179664873Y-99997984D01*
X179664864Y-99997979D01*
X179491887Y-99926330D01*
X179491879Y-99926328D01*
X179308256Y-99889803D01*
X179308252Y-99889803D01*
X177859708Y-99889803D01*
X177792669Y-99870118D01*
X177772027Y-99853484D01*
X177070547Y-99152003D01*
X177070543Y-99152000D01*
X176914872Y-99047983D01*
X176914859Y-99047976D01*
X176793260Y-98997609D01*
X176793255Y-98997607D01*
X176786069Y-98994631D01*
X176741887Y-98976330D01*
X176650069Y-98958066D01*
X176645757Y-98957208D01*
X176645745Y-98957205D01*
X176558256Y-98939803D01*
X176558253Y-98939803D01*
X176558252Y-98939803D01*
X172108252Y-98939803D01*
X165608253Y-98939803D01*
X165421019Y-98939803D01*
X165421014Y-98939803D01*
X165237392Y-98976328D01*
X165237384Y-98976330D01*
X165193203Y-98994631D01*
X165193202Y-98994631D01*
X165064412Y-99047976D01*
X165064399Y-99047983D01*
X164908728Y-99152000D01*
X164908724Y-99152003D01*
X163252316Y-100808411D01*
X163190993Y-100841896D01*
X163121301Y-100836912D01*
X163076954Y-100808411D01*
X160320544Y-98052001D01*
X158680547Y-96412003D01*
X158680543Y-96412000D01*
X158524872Y-96307983D01*
X158524859Y-96307976D01*
X158422998Y-96265785D01*
X158422997Y-96265784D01*
X158416658Y-96263159D01*
X158351887Y-96236330D01*
X158260069Y-96218066D01*
X158243700Y-96214810D01*
X158168256Y-96199803D01*
X158168253Y-96199803D01*
X158168252Y-96199803D01*
X142819680Y-96199803D01*
X142772227Y-96190364D01*
X142651056Y-96140173D01*
X142651048Y-96140171D01*
X142448105Y-96099803D01*
X142448101Y-96099803D01*
X142241171Y-96099803D01*
X142241166Y-96099803D01*
X142038223Y-96140171D01*
X142038215Y-96140173D01*
X141847039Y-96219361D01*
X141674978Y-96334327D01*
X141528660Y-96480645D01*
X141413694Y-96652706D01*
X141334506Y-96843882D01*
X141334504Y-96843890D01*
X141294136Y-97046833D01*
X133520845Y-97046833D01*
X133614613Y-96953065D01*
X134478747Y-96088930D01*
X134478748Y-96088929D01*
X134478750Y-96088927D01*
X134555411Y-95974195D01*
X134608216Y-95846712D01*
X134635136Y-95711378D01*
X134635136Y-95573390D01*
X134635136Y-89391310D01*
X134635136Y-89391307D01*
X134608217Y-89255980D01*
X134608216Y-89255979D01*
X134608216Y-89255975D01*
X134601819Y-89240531D01*
X134555414Y-89128498D01*
X134555407Y-89128485D01*
X134478751Y-89013762D01*
X134478750Y-89013761D01*
X134381178Y-88916189D01*
X132796822Y-87331833D01*
X147214136Y-87331833D01*
X147214136Y-87788772D01*
X147254504Y-87991715D01*
X147254506Y-87991723D01*
X147331058Y-88176536D01*
X147333695Y-88182901D01*
X147334088Y-88183489D01*
X147448660Y-88354960D01*
X147594978Y-88501278D01*
X147594981Y-88501280D01*
X147767038Y-88616244D01*
X147958216Y-88695433D01*
X148146823Y-88732949D01*
X148161166Y-88735802D01*
X148161170Y-88735803D01*
X148161171Y-88735803D01*
X148368102Y-88735803D01*
X148368103Y-88735802D01*
X148571056Y-88695433D01*
X148762234Y-88616244D01*
X148934291Y-88501280D01*
X149080613Y-88354958D01*
X149195577Y-88182901D01*
X149274766Y-87991723D01*
X149315136Y-87788768D01*
X149315136Y-87331838D01*
X149315135Y-87331833D01*
X149714136Y-87331833D01*
X149714136Y-87788772D01*
X149754504Y-87991715D01*
X149754506Y-87991723D01*
X149831058Y-88176536D01*
X149833695Y-88182901D01*
X149834088Y-88183489D01*
X149948660Y-88354960D01*
X150094978Y-88501278D01*
X150094981Y-88501280D01*
X150267038Y-88616244D01*
X150458216Y-88695433D01*
X150646823Y-88732949D01*
X150661166Y-88735802D01*
X150661170Y-88735803D01*
X150661171Y-88735803D01*
X150868102Y-88735803D01*
X150868103Y-88735802D01*
X151071056Y-88695433D01*
X151262234Y-88616244D01*
X151434291Y-88501280D01*
X151580613Y-88354958D01*
X151695577Y-88182901D01*
X151774766Y-87991723D01*
X151815136Y-87788768D01*
X151815136Y-87331838D01*
X151815135Y-87331833D01*
X152214136Y-87331833D01*
X152214136Y-87788772D01*
X152254504Y-87991715D01*
X152254506Y-87991723D01*
X152331058Y-88176536D01*
X152333695Y-88182901D01*
X152334088Y-88183489D01*
X152448660Y-88354960D01*
X152594978Y-88501278D01*
X152594981Y-88501280D01*
X152767038Y-88616244D01*
X152958216Y-88695433D01*
X153146823Y-88732949D01*
X153161166Y-88735802D01*
X153161170Y-88735803D01*
X153161171Y-88735803D01*
X153368102Y-88735803D01*
X153368103Y-88735802D01*
X153571056Y-88695433D01*
X153762234Y-88616244D01*
X153934291Y-88501280D01*
X154080613Y-88354958D01*
X154195577Y-88182901D01*
X154274766Y-87991723D01*
X154315136Y-87788768D01*
X154315136Y-87331838D01*
X154274766Y-87128883D01*
X154195577Y-86937705D01*
X154134989Y-86847028D01*
X154134988Y-86847025D01*
X154090893Y-86781033D01*
X154714136Y-86781033D01*
X154714136Y-88339572D01*
X154716989Y-88370002D01*
X154716989Y-88370004D01*
X154759260Y-88490803D01*
X154761843Y-88498185D01*
X154842486Y-88607453D01*
X154951754Y-88688096D01*
X154972725Y-88695434D01*
X155079935Y-88732949D01*
X155110366Y-88735803D01*
X155110370Y-88735803D01*
X156418906Y-88735803D01*
X156449335Y-88732949D01*
X156449337Y-88732949D01*
X156513426Y-88710522D01*
X156577518Y-88688096D01*
X156686786Y-88607453D01*
X156767429Y-88498185D01*
X156789855Y-88434093D01*
X156812282Y-88370004D01*
X156812282Y-88370002D01*
X156815136Y-88339572D01*
X156815136Y-86781033D01*
X156812282Y-86750603D01*
X156812282Y-86750601D01*
X156767429Y-86622422D01*
X156767428Y-86622420D01*
X156686786Y-86513153D01*
X156577518Y-86432510D01*
X156577516Y-86432509D01*
X156449336Y-86387656D01*
X156418906Y-86384803D01*
X156418902Y-86384803D01*
X155110370Y-86384803D01*
X155110366Y-86384803D01*
X155079936Y-86387656D01*
X155079934Y-86387656D01*
X154951755Y-86432509D01*
X154951753Y-86432510D01*
X154842486Y-86513153D01*
X154761843Y-86622420D01*
X154761842Y-86622422D01*
X154716989Y-86750601D01*
X154716989Y-86750603D01*
X154714136Y-86781033D01*
X154090893Y-86781033D01*
X154080616Y-86765652D01*
X154080610Y-86765644D01*
X153934293Y-86619327D01*
X153848262Y-86561844D01*
X153762234Y-86504362D01*
X153745950Y-86497617D01*
X153571056Y-86425173D01*
X153571048Y-86425171D01*
X153368105Y-86384803D01*
X153368101Y-86384803D01*
X153161171Y-86384803D01*
X153161166Y-86384803D01*
X152958223Y-86425171D01*
X152958215Y-86425173D01*
X152767039Y-86504361D01*
X152594978Y-86619327D01*
X152448660Y-86765645D01*
X152333694Y-86937706D01*
X152254506Y-87128882D01*
X152254504Y-87128890D01*
X152214136Y-87331833D01*
X151815135Y-87331833D01*
X151774766Y-87128883D01*
X151695577Y-86937705D01*
X151580613Y-86765648D01*
X151580611Y-86765645D01*
X151434293Y-86619327D01*
X151348262Y-86561844D01*
X151262234Y-86504362D01*
X151245950Y-86497617D01*
X151071056Y-86425173D01*
X151071048Y-86425171D01*
X150868105Y-86384803D01*
X150868101Y-86384803D01*
X150661171Y-86384803D01*
X150661166Y-86384803D01*
X150458223Y-86425171D01*
X150458215Y-86425173D01*
X150267039Y-86504361D01*
X150094978Y-86619327D01*
X149948660Y-86765645D01*
X149833694Y-86937706D01*
X149754506Y-87128882D01*
X149754504Y-87128890D01*
X149714136Y-87331833D01*
X149315135Y-87331833D01*
X149274766Y-87128883D01*
X149195577Y-86937705D01*
X149080613Y-86765648D01*
X149080611Y-86765645D01*
X148934293Y-86619327D01*
X148848262Y-86561844D01*
X148762234Y-86504362D01*
X148745950Y-86497617D01*
X148571056Y-86425173D01*
X148571048Y-86425171D01*
X148368105Y-86384803D01*
X148368101Y-86384803D01*
X148161171Y-86384803D01*
X148161166Y-86384803D01*
X147958223Y-86425171D01*
X147958215Y-86425173D01*
X147767039Y-86504361D01*
X147594978Y-86619327D01*
X147448660Y-86765645D01*
X147333694Y-86937706D01*
X147254506Y-87128882D01*
X147254504Y-87128890D01*
X147214136Y-87331833D01*
X132796822Y-87331833D01*
X130561672Y-85096682D01*
X158964136Y-85096682D01*
X158964136Y-88883923D01*
X159000661Y-89067546D01*
X159000663Y-89067554D01*
X159072312Y-89240531D01*
X159072317Y-89240540D01*
X159176333Y-89396210D01*
X159176336Y-89396214D01*
X159308724Y-89528602D01*
X159308728Y-89528605D01*
X159464398Y-89632621D01*
X159464404Y-89632624D01*
X159464405Y-89632625D01*
X159637385Y-89704276D01*
X159821015Y-89740802D01*
X159821019Y-89740803D01*
X159821020Y-89740803D01*
X160008253Y-89740803D01*
X160008254Y-89740802D01*
X160191887Y-89704276D01*
X160364867Y-89632625D01*
X160520544Y-89528605D01*
X160652938Y-89396211D01*
X160756958Y-89240534D01*
X160828609Y-89067554D01*
X160865136Y-88883919D01*
X160865136Y-86124411D01*
X172964136Y-86124411D01*
X172964136Y-86256194D01*
X172998244Y-86383490D01*
X173000650Y-86387657D01*
X173064136Y-86497617D01*
X173157322Y-86590803D01*
X173271450Y-86656695D01*
X173271452Y-86656695D01*
X173278962Y-86659807D01*
X173278407Y-86661144D01*
X173325646Y-86688416D01*
X174766523Y-88129293D01*
X174793799Y-88176536D01*
X174795135Y-88175983D01*
X174798243Y-88183488D01*
X174826092Y-88231724D01*
X174864136Y-88297617D01*
X174957322Y-88390803D01*
X175071450Y-88456695D01*
X175198744Y-88490803D01*
X175198746Y-88490803D01*
X175330526Y-88490803D01*
X175330528Y-88490803D01*
X175457822Y-88456695D01*
X175571950Y-88390803D01*
X175665136Y-88297617D01*
X175731028Y-88183489D01*
X175765136Y-88056195D01*
X175765136Y-87924411D01*
X175731028Y-87797117D01*
X175665136Y-87682989D01*
X175571950Y-87589803D01*
X175506057Y-87551759D01*
X175457821Y-87523910D01*
X175450316Y-87520802D01*
X175450869Y-87519466D01*
X175403626Y-87492190D01*
X173962749Y-86051313D01*
X173935477Y-86004074D01*
X173934140Y-86004629D01*
X173931028Y-85997118D01*
X173931028Y-85997117D01*
X173865136Y-85882989D01*
X173771950Y-85789803D01*
X173714886Y-85756857D01*
X173657823Y-85723911D01*
X173594175Y-85706857D01*
X173530528Y-85689803D01*
X173398744Y-85689803D01*
X173271448Y-85723911D01*
X173157322Y-85789803D01*
X173157319Y-85789805D01*
X173064138Y-85882986D01*
X173064136Y-85882989D01*
X172998244Y-85997115D01*
X172964136Y-86124411D01*
X160865136Y-86124411D01*
X160865136Y-85635375D01*
X160884821Y-85568336D01*
X160901455Y-85547694D01*
X161872027Y-84577122D01*
X161933350Y-84543637D01*
X161959708Y-84540803D01*
X162704669Y-84540803D01*
X162771708Y-84560488D01*
X162792350Y-84577122D01*
X162800082Y-84584854D01*
X162866405Y-84629170D01*
X162866406Y-84629171D01*
X162924883Y-84640802D01*
X162924886Y-84640803D01*
X162924888Y-84640803D01*
X164664386Y-84640803D01*
X164664387Y-84640802D01*
X164679204Y-84637855D01*
X164722865Y-84629171D01*
X164722865Y-84629170D01*
X164722867Y-84629170D01*
X164789188Y-84584855D01*
X164833503Y-84518534D01*
X164833503Y-84518532D01*
X164833504Y-84518532D01*
X164845135Y-84460055D01*
X164845136Y-84460053D01*
X164845136Y-83486833D01*
X167824136Y-83486833D01*
X167824136Y-83693772D01*
X167864504Y-83896715D01*
X167864506Y-83896723D01*
X167943694Y-84087899D01*
X168058660Y-84259960D01*
X168204978Y-84406278D01*
X168204981Y-84406280D01*
X168377038Y-84521244D01*
X168568216Y-84600433D01*
X168712688Y-84629170D01*
X168771166Y-84640802D01*
X168771170Y-84640803D01*
X168771171Y-84640803D01*
X168978102Y-84640803D01*
X168978103Y-84640802D01*
X169181056Y-84600433D01*
X169372234Y-84521244D01*
X169544291Y-84406280D01*
X169690613Y-84259958D01*
X169805577Y-84087901D01*
X169884766Y-83896723D01*
X169925136Y-83693768D01*
X169925136Y-83486838D01*
X169925135Y-83486833D01*
X170364136Y-83486833D01*
X170364136Y-83693772D01*
X170404504Y-83896715D01*
X170404506Y-83896723D01*
X170483694Y-84087899D01*
X170598660Y-84259960D01*
X170744978Y-84406278D01*
X170744981Y-84406280D01*
X170917038Y-84521244D01*
X171108216Y-84600433D01*
X171252688Y-84629170D01*
X171311166Y-84640802D01*
X171311170Y-84640803D01*
X171311171Y-84640803D01*
X171518102Y-84640803D01*
X171518103Y-84640802D01*
X171721056Y-84600433D01*
X171912234Y-84521244D01*
X172084291Y-84406280D01*
X172230613Y-84259958D01*
X172345577Y-84087901D01*
X172424766Y-83896723D01*
X172465136Y-83693768D01*
X172465136Y-83486838D01*
X172465135Y-83486833D01*
X172904136Y-83486833D01*
X172904136Y-83693772D01*
X172944504Y-83896715D01*
X172944506Y-83896723D01*
X173023694Y-84087899D01*
X173138660Y-84259960D01*
X173284978Y-84406278D01*
X173284981Y-84406280D01*
X173457038Y-84521244D01*
X173648216Y-84600433D01*
X173792688Y-84629170D01*
X173851166Y-84640802D01*
X173851170Y-84640803D01*
X173851171Y-84640803D01*
X174058102Y-84640803D01*
X174058103Y-84640802D01*
X174261056Y-84600433D01*
X174452234Y-84521244D01*
X174624291Y-84406280D01*
X174770613Y-84259958D01*
X174885577Y-84087901D01*
X174964766Y-83896723D01*
X175005136Y-83693768D01*
X175005136Y-83486838D01*
X174964766Y-83283883D01*
X174885577Y-83092705D01*
X174770613Y-82920648D01*
X174770611Y-82920645D01*
X174624293Y-82774327D01*
X174538262Y-82716844D01*
X174452234Y-82659362D01*
X174317333Y-82603484D01*
X174261056Y-82580173D01*
X174261048Y-82580171D01*
X174058105Y-82539803D01*
X174058101Y-82539803D01*
X173851171Y-82539803D01*
X173851166Y-82539803D01*
X173648223Y-82580171D01*
X173648215Y-82580173D01*
X173457039Y-82659361D01*
X173284978Y-82774327D01*
X173138660Y-82920645D01*
X173023694Y-83092706D01*
X172944506Y-83283882D01*
X172944504Y-83283890D01*
X172904136Y-83486833D01*
X172465135Y-83486833D01*
X172424766Y-83283883D01*
X172345577Y-83092705D01*
X172230613Y-82920648D01*
X172230611Y-82920645D01*
X172084293Y-82774327D01*
X171998262Y-82716844D01*
X171912234Y-82659362D01*
X171777333Y-82603484D01*
X171721056Y-82580173D01*
X171721048Y-82580171D01*
X171518105Y-82539803D01*
X171518101Y-82539803D01*
X171311171Y-82539803D01*
X171311166Y-82539803D01*
X171108223Y-82580171D01*
X171108215Y-82580173D01*
X170917039Y-82659361D01*
X170744978Y-82774327D01*
X170598660Y-82920645D01*
X170483694Y-83092706D01*
X170404506Y-83283882D01*
X170404504Y-83283890D01*
X170364136Y-83486833D01*
X169925135Y-83486833D01*
X169884766Y-83283883D01*
X169805577Y-83092705D01*
X169690613Y-82920648D01*
X169690611Y-82920645D01*
X169544293Y-82774327D01*
X169458262Y-82716844D01*
X169372234Y-82659362D01*
X169237333Y-82603484D01*
X169181056Y-82580173D01*
X169181048Y-82580171D01*
X168978105Y-82539803D01*
X168978101Y-82539803D01*
X168771171Y-82539803D01*
X168771166Y-82539803D01*
X168568223Y-82580171D01*
X168568215Y-82580173D01*
X168377039Y-82659361D01*
X168204978Y-82774327D01*
X168058660Y-82920645D01*
X167943694Y-83092706D01*
X167864506Y-83283882D01*
X167864504Y-83283890D01*
X167824136Y-83486833D01*
X164845136Y-83486833D01*
X164845136Y-82720552D01*
X164845135Y-82720550D01*
X164833504Y-82662073D01*
X164833503Y-82662072D01*
X164789188Y-82595750D01*
X164722866Y-82551435D01*
X164722865Y-82551434D01*
X164664388Y-82539803D01*
X164664384Y-82539803D01*
X162924888Y-82539803D01*
X162924883Y-82539803D01*
X162866406Y-82551434D01*
X162866405Y-82551435D01*
X162800082Y-82595751D01*
X162792350Y-82603484D01*
X162731027Y-82636969D01*
X162704669Y-82639803D01*
X161421015Y-82639803D01*
X161237392Y-82676328D01*
X161237384Y-82676330D01*
X161195009Y-82693883D01*
X161195008Y-82693883D01*
X161064412Y-82747976D01*
X161064399Y-82747983D01*
X160908728Y-82852000D01*
X160908724Y-82852003D01*
X159176336Y-84584391D01*
X159176333Y-84584395D01*
X159072316Y-84740067D01*
X159072309Y-84740080D01*
X159056100Y-84779215D01*
X159056100Y-84779216D01*
X159000663Y-84913051D01*
X159000661Y-84913059D01*
X158964136Y-85096682D01*
X130561672Y-85096682D01*
X130296665Y-84831675D01*
X130263180Y-84770352D01*
X130268164Y-84700660D01*
X130310036Y-84644727D01*
X130375500Y-84620310D01*
X130408536Y-84622376D01*
X130501169Y-84640802D01*
X130501170Y-84640803D01*
X130501171Y-84640803D01*
X130708102Y-84640803D01*
X130708103Y-84640802D01*
X130911056Y-84600433D01*
X131102234Y-84521244D01*
X131274291Y-84406280D01*
X131420613Y-84259958D01*
X131535577Y-84087901D01*
X131614766Y-83896723D01*
X131655136Y-83693768D01*
X131655136Y-83486838D01*
X131614766Y-83283883D01*
X131535577Y-83092705D01*
X131420613Y-82920648D01*
X131420611Y-82920645D01*
X131274293Y-82774327D01*
X131193809Y-82720550D01*
X134634136Y-82720550D01*
X134634136Y-84460055D01*
X134645767Y-84518532D01*
X134645768Y-84518533D01*
X134690083Y-84584855D01*
X134756405Y-84629170D01*
X134756406Y-84629171D01*
X134814883Y-84640802D01*
X134814886Y-84640803D01*
X134814888Y-84640803D01*
X136554386Y-84640803D01*
X136554387Y-84640802D01*
X136569204Y-84637855D01*
X136612865Y-84629171D01*
X136612865Y-84629170D01*
X136612867Y-84629170D01*
X136679188Y-84584855D01*
X136723503Y-84518534D01*
X136723503Y-84518532D01*
X136723504Y-84518532D01*
X136735135Y-84460055D01*
X136735136Y-84460053D01*
X136735136Y-82720552D01*
X136735135Y-82720550D01*
X136723504Y-82662073D01*
X136723503Y-82662072D01*
X136679188Y-82595750D01*
X136612866Y-82551435D01*
X136612865Y-82551434D01*
X136554388Y-82539803D01*
X136554384Y-82539803D01*
X134814888Y-82539803D01*
X134814883Y-82539803D01*
X134756406Y-82551434D01*
X134756405Y-82551435D01*
X134690083Y-82595750D01*
X134645768Y-82662072D01*
X134645767Y-82662073D01*
X134634136Y-82720550D01*
X131193809Y-82720550D01*
X131188262Y-82716844D01*
X131102234Y-82659362D01*
X130967333Y-82603484D01*
X130911056Y-82580173D01*
X130911048Y-82580171D01*
X130708105Y-82539803D01*
X130708101Y-82539803D01*
X130501171Y-82539803D01*
X130501166Y-82539803D01*
X130298223Y-82580171D01*
X130298215Y-82580173D01*
X130107039Y-82659361D01*
X129934978Y-82774327D01*
X129788660Y-82920645D01*
X129673694Y-83092706D01*
X129594506Y-83283882D01*
X129594504Y-83283890D01*
X129554136Y-83486833D01*
X129554136Y-83693772D01*
X129572561Y-83786401D01*
X129566334Y-83855993D01*
X129523470Y-83911170D01*
X129457581Y-83934414D01*
X129389584Y-83918346D01*
X129363263Y-83898273D01*
X129151455Y-83686465D01*
X129117970Y-83625142D01*
X129115136Y-83598784D01*
X129115136Y-83486837D01*
X129115135Y-83486833D01*
X129074767Y-83283890D01*
X129074766Y-83283883D01*
X128995577Y-83092705D01*
X128880613Y-82920648D01*
X128880611Y-82920645D01*
X128734293Y-82774327D01*
X128648262Y-82716844D01*
X128562234Y-82659362D01*
X128427333Y-82603484D01*
X128371056Y-82580173D01*
X128371048Y-82580171D01*
X128168105Y-82539803D01*
X128168101Y-82539803D01*
X128056155Y-82539803D01*
X127989116Y-82520118D01*
X127968474Y-82503484D01*
X126091182Y-80626191D01*
X126091181Y-80626190D01*
X125976443Y-80549525D01*
X125848968Y-80496724D01*
X125848958Y-80496721D01*
X125713632Y-80469803D01*
X125713630Y-80469803D01*
X125713629Y-80469803D01*
X115083630Y-80469803D01*
X114945643Y-80469803D01*
X114945641Y-80469803D01*
X114810313Y-80496721D01*
X114810303Y-80496724D01*
X114682828Y-80549525D01*
X114568090Y-80626190D01*
X114568089Y-80626191D01*
X114260798Y-80933484D01*
X114199475Y-80966969D01*
X114173117Y-80969803D01*
X114061166Y-80969803D01*
X113858223Y-81010171D01*
X113858215Y-81010173D01*
X113667039Y-81089361D01*
X113494978Y-81204327D01*
X113348660Y-81350645D01*
X113233694Y-81522706D01*
X113154506Y-81713882D01*
X113154504Y-81713890D01*
X113114137Y-81916831D01*
X113114136Y-81916837D01*
X111665136Y-81916837D01*
X111663203Y-81907122D01*
X111624767Y-81713890D01*
X111624766Y-81713883D01*
X111545577Y-81522705D01*
X111430613Y-81350648D01*
X111430611Y-81350645D01*
X111284293Y-81204327D01*
X111198262Y-81146844D01*
X111112234Y-81089362D01*
X110921056Y-81010173D01*
X110921048Y-81010171D01*
X110718105Y-80969803D01*
X110718101Y-80969803D01*
X110511171Y-80969803D01*
X110511166Y-80969803D01*
X110308223Y-81010171D01*
X110308215Y-81010173D01*
X110117039Y-81089361D01*
X109944978Y-81204327D01*
X109798660Y-81350645D01*
X109683694Y-81522706D01*
X109604506Y-81713882D01*
X109604504Y-81713890D01*
X109564137Y-81916831D01*
X109564136Y-81916837D01*
X108115136Y-81916837D01*
X108113203Y-81907122D01*
X108074767Y-81713890D01*
X108074766Y-81713883D01*
X107995577Y-81522705D01*
X107880613Y-81350648D01*
X107880611Y-81350645D01*
X107734293Y-81204327D01*
X107648262Y-81146844D01*
X107562234Y-81089362D01*
X107371056Y-81010173D01*
X107371048Y-81010171D01*
X107168105Y-80969803D01*
X107168101Y-80969803D01*
X106961171Y-80969803D01*
X106961166Y-80969803D01*
X106758223Y-81010171D01*
X106758215Y-81010173D01*
X106567039Y-81089361D01*
X106394978Y-81204327D01*
X106248660Y-81350645D01*
X106133694Y-81522706D01*
X106054506Y-81713882D01*
X106054504Y-81713890D01*
X106014137Y-81916831D01*
X106014136Y-81916837D01*
X94561202Y-81916837D01*
X94561800Y-81904661D01*
X94561800Y-81904660D01*
X94571688Y-81703376D01*
X94572881Y-81691265D01*
X94621484Y-81363613D01*
X94623858Y-81351679D01*
X94637043Y-81299040D01*
X94704347Y-81030346D01*
X94707872Y-81018729D01*
X94819468Y-80706838D01*
X94824113Y-80695623D01*
X94965755Y-80396147D01*
X94971481Y-80385436D01*
X95141781Y-80101310D01*
X95148524Y-80091217D01*
X95345868Y-79825131D01*
X95353562Y-79815755D01*
X95576040Y-79570290D01*
X95584620Y-79561711D01*
X95830076Y-79339245D01*
X95839454Y-79331549D01*
X96105531Y-79134215D01*
X96115634Y-79127465D01*
X96399772Y-78957161D01*
X96410473Y-78951440D01*
X96709930Y-78809810D01*
X96721156Y-78805160D01*
X97033056Y-78693562D01*
X97044689Y-78690034D01*
X97366022Y-78609547D01*
X97377925Y-78607180D01*
X97705596Y-78558577D01*
X97717698Y-78557385D01*
X98052273Y-78540951D01*
X98058345Y-78540803D01*
X98120524Y-78540804D01*
X98120528Y-78540803D01*
X181988739Y-78540803D01*
X182051578Y-78540803D01*
X182057663Y-78540952D01*
G37*
%TD.AperFunction*%
%TD*%
%TA.AperFunction,Conductor*%
%TO.N,GND*%
G36*
X155859136Y-114316310D02*
G01*
X155863833Y-114359989D01*
X155875033Y-114411477D01*
X155877526Y-114421675D01*
X155877527Y-114421678D01*
X155920535Y-114502386D01*
X155920537Y-114502389D01*
X155966296Y-114555198D01*
X155983878Y-114573142D01*
X155983882Y-114573146D01*
X155983883Y-114573147D01*
X155983885Y-114573148D01*
X156063695Y-114617791D01*
X156063699Y-114617793D01*
X156130738Y-114637478D01*
X156188636Y-114645803D01*
X157185136Y-114645803D01*
X157252175Y-114665488D01*
X157297930Y-114718292D01*
X157309136Y-114769803D01*
X157309136Y-118449351D01*
X156290285Y-118454603D01*
X156215576Y-118412814D01*
X156215571Y-118412812D01*
X156148539Y-118393129D01*
X156148535Y-118393128D01*
X156148534Y-118393128D01*
X156090636Y-118384803D01*
X148864636Y-118384803D01*
X148864636Y-113290303D01*
X152514636Y-113290303D01*
X155859136Y-113290303D01*
X155859136Y-114316310D01*
G37*
%TD.AperFunction*%
%TD*%
%TA.AperFunction,Conductor*%
%TO.N,/Sheet_Power/SW_TPS*%
G36*
X157507675Y-110209988D02*
G01*
X157553430Y-110262792D01*
X157564636Y-110314303D01*
X157564636Y-113290303D01*
X157514636Y-113290303D01*
X157514636Y-114440303D01*
X156188636Y-114440303D01*
X156121597Y-114420618D01*
X156075842Y-114367814D01*
X156064636Y-114316303D01*
X156064636Y-110314303D01*
X156084321Y-110247264D01*
X156137125Y-110201509D01*
X156188636Y-110190303D01*
X157440636Y-110190303D01*
X157507675Y-110209988D01*
G37*
%TD.AperFunction*%
%TD*%
%TA.AperFunction,Conductor*%
%TO.N,+3.3_BUCK*%
G36*
X156157675Y-118609988D02*
G01*
X156203430Y-118662792D01*
X156214636Y-118714303D01*
X156214636Y-125567070D01*
X156194951Y-125634109D01*
X156142147Y-125679864D01*
X156091406Y-125691068D01*
X148289406Y-125739528D01*
X148222246Y-125720260D01*
X148176164Y-125667741D01*
X148164636Y-125615530D01*
X148164636Y-118714303D01*
X148184321Y-118647264D01*
X148237125Y-118601509D01*
X148288636Y-118590303D01*
X156090636Y-118590303D01*
X156157675Y-118609988D01*
G37*
%TD.AperFunction*%
%TD*%
%TA.AperFunction,Conductor*%
%TO.N,+20_USB*%
G36*
X161680313Y-113209988D02*
G01*
X161700955Y-113226622D01*
X161728317Y-113253984D01*
X161761802Y-113315307D01*
X161764636Y-113341665D01*
X161764636Y-118388941D01*
X161755991Y-118418381D01*
X161749468Y-118448368D01*
X161745713Y-118453383D01*
X161744951Y-118455980D01*
X161728317Y-118476622D01*
X161700955Y-118503984D01*
X161639632Y-118537469D01*
X161613274Y-118540303D01*
X159851072Y-118540303D01*
X159784033Y-118520618D01*
X159738278Y-118467814D01*
X159727076Y-118415261D01*
X159727297Y-118388941D01*
X159769078Y-113417072D01*
X159764570Y-113372504D01*
X159757674Y-113340152D01*
X159762951Y-113270482D01*
X159805057Y-113214725D01*
X159870624Y-113190583D01*
X159878950Y-113190303D01*
X161613274Y-113190303D01*
X161680313Y-113209988D01*
G37*
%TD.AperFunction*%
%TD*%
%TA.AperFunction,Conductor*%
%TO.N,/Sheet_Power/SW_TPS*%
G36*
X159506628Y-113309988D02*
G01*
X159552383Y-113362792D01*
X159563585Y-113415345D01*
X159514636Y-119240302D01*
X159514636Y-119240303D01*
X162690132Y-119227349D01*
X162757249Y-119246760D01*
X162803219Y-119299377D01*
X162814636Y-119351348D01*
X162814636Y-125566303D01*
X162794951Y-125633342D01*
X162742147Y-125679097D01*
X162690636Y-125690303D01*
X157638636Y-125690303D01*
X157571597Y-125670618D01*
X157525842Y-125617814D01*
X157514636Y-125566303D01*
X157514636Y-114440303D01*
X157514636Y-113290303D01*
X157564636Y-113290303D01*
X159439589Y-113290303D01*
X159506628Y-113309988D01*
G37*
%TD.AperFunction*%
%TD*%
M02*
