%TF.GenerationSoftware,KiCad,Pcbnew,9.0.1*%
%TF.CreationDate,2026-04-25T00:05:27+03:00*%
%TF.ProjectId,hw1,6877312e-6b69-4636-9164-5f7063625858,6*%
%TF.SameCoordinates,Original*%
%TF.FileFunction,Soldermask,Bot*%
%TF.FilePolarity,Negative*%
%FSLAX46Y46*%
G04 Gerber Fmt 4.6, Leading zero omitted, Abs format (unit mm)*
G04 Created by KiCad (PCBNEW 9.0.1) date 2026-04-25 00:05:27*
%MOMM*%
%LPD*%
G01*
G04 APERTURE LIST*
G04 Aperture macros list*
%AMRoundRect*
0 Rectangle with rounded corners*
0 $1 Rounding radius*
0 $2 $3 $4 $5 $6 $7 $8 $9 X,Y pos of 4 corners*
0 Add a 4 corners polygon primitive as box body*
4,1,4,$2,$3,$4,$5,$6,$7,$8,$9,$2,$3,0*
0 Add four circle primitives for the rounded corners*
1,1,$1+$1,$2,$3*
1,1,$1+$1,$4,$5*
1,1,$1+$1,$6,$7*
1,1,$1+$1,$8,$9*
0 Add four rect primitives between the rounded corners*
20,1,$1+$1,$2,$3,$4,$5,0*
20,1,$1+$1,$4,$5,$6,$7,0*
20,1,$1+$1,$6,$7,$8,$9,0*
20,1,$1+$1,$8,$9,$2,$3,0*%
G04 Aperture macros list end*
%ADD10C,0.000000*%
%ADD11RoundRect,0.250000X0.600000X0.725000X-0.600000X0.725000X-0.600000X-0.725000X0.600000X-0.725000X0*%
%ADD12O,1.700000X1.950000*%
%ADD13C,0.800000*%
%ADD14C,6.000000*%
%ADD15R,1.700000X1.700000*%
%ADD16C,1.700000*%
%ADD17C,0.650000*%
%ADD18O,1.000000X2.100000*%
%ADD19O,1.000000X1.800000*%
G04 APERTURE END LIST*
D10*
%TO.C,REF\u002A\u002A*%
G36*
X174482084Y-93211671D02*
G01*
X174483221Y-93255219D01*
X174484078Y-93298867D01*
X174484390Y-93342712D01*
X174484259Y-93364740D01*
X174483893Y-93386854D01*
X173297013Y-93386854D01*
X173299137Y-93365113D01*
X173300723Y-93343195D01*
X173301736Y-93321113D01*
X173302139Y-93298880D01*
X173301895Y-93276507D01*
X173300966Y-93254007D01*
X173299317Y-93231392D01*
X173296910Y-93208673D01*
X174482084Y-93211671D01*
G37*
G36*
X174326677Y-92534125D02*
G01*
X174333002Y-92547441D01*
X174338957Y-92560893D01*
X174344605Y-92574456D01*
X174350007Y-92588109D01*
X174355224Y-92601829D01*
X174365347Y-92629381D01*
X174376410Y-92660034D01*
X174381576Y-92674832D01*
X174386444Y-92689390D01*
X174390976Y-92703792D01*
X174395134Y-92718120D01*
X174398877Y-92732460D01*
X174402166Y-92746893D01*
X173288282Y-93152322D01*
X173281774Y-93122431D01*
X173278154Y-93106955D01*
X173274238Y-93091240D01*
X173269986Y-93075367D01*
X173265359Y-93059422D01*
X173260317Y-93043488D01*
X173254820Y-93027650D01*
X173249647Y-93014171D01*
X173244176Y-93001217D01*
X173238426Y-92988644D01*
X173232412Y-92976305D01*
X173226152Y-92964056D01*
X173219663Y-92951750D01*
X173206063Y-92926392D01*
X174319923Y-92520966D01*
X174326677Y-92534125D01*
G37*
G36*
X172727232Y-91322117D02*
G01*
X172767610Y-91326861D01*
X172807562Y-91332736D01*
X172847190Y-91339635D01*
X172886595Y-91347452D01*
X172925877Y-91356081D01*
X172965136Y-91365416D01*
X173004474Y-91375350D01*
X172815157Y-92473629D01*
X173363755Y-91512344D01*
X173396785Y-91529596D01*
X173429850Y-91547324D01*
X173462802Y-91565511D01*
X173495497Y-91584141D01*
X173527789Y-91603197D01*
X173559532Y-91622661D01*
X173590582Y-91642517D01*
X173620792Y-91662747D01*
X173038788Y-92695707D01*
X173939506Y-91933506D01*
X173961437Y-91957042D01*
X173983424Y-91981116D01*
X174005343Y-92005774D01*
X174027072Y-92031058D01*
X174048488Y-92057015D01*
X174069468Y-92083687D01*
X174089888Y-92111121D01*
X174109626Y-92139360D01*
X173198416Y-92905360D01*
X173179688Y-92874530D01*
X173159738Y-92844742D01*
X173116360Y-92788379D01*
X173068651Y-92736452D01*
X173016982Y-92689138D01*
X172961723Y-92646617D01*
X172903244Y-92609068D01*
X172841917Y-92576669D01*
X172778110Y-92549601D01*
X172712195Y-92528042D01*
X172644541Y-92512170D01*
X172575518Y-92502166D01*
X172505498Y-92498208D01*
X172470229Y-92498552D01*
X172434850Y-92500475D01*
X172399406Y-92503998D01*
X172363945Y-92509145D01*
X172328511Y-92515938D01*
X172293152Y-92524400D01*
X172257914Y-92534551D01*
X172222842Y-92546416D01*
X172189816Y-92559236D01*
X172157681Y-92573309D01*
X172126455Y-92588596D01*
X172096155Y-92605059D01*
X172066800Y-92622660D01*
X172038408Y-92641360D01*
X171984583Y-92681902D01*
X171934824Y-92726375D01*
X171889275Y-92774473D01*
X171848080Y-92825886D01*
X171811382Y-92880305D01*
X171779326Y-92937422D01*
X171752054Y-92996928D01*
X171729710Y-93058515D01*
X171712440Y-93121873D01*
X171700385Y-93186695D01*
X171693690Y-93252672D01*
X171692498Y-93319494D01*
X171696954Y-93386854D01*
X170518897Y-93386854D01*
X170517087Y-93350659D01*
X170515982Y-93314570D01*
X170515610Y-93278560D01*
X170515999Y-93242600D01*
X170517177Y-93206660D01*
X170519172Y-93170713D01*
X170522011Y-93134729D01*
X170525723Y-93098680D01*
X171265207Y-93103229D01*
X170564828Y-92846422D01*
X170577936Y-92795084D01*
X170592232Y-92743942D01*
X170607739Y-92693056D01*
X170624479Y-92642488D01*
X170642473Y-92592301D01*
X170661745Y-92542555D01*
X170682317Y-92493314D01*
X170704211Y-92444639D01*
X171486742Y-92731029D01*
X170849335Y-92189511D01*
X170878492Y-92146253D01*
X170908661Y-92104230D01*
X170939818Y-92063383D01*
X170971939Y-92023649D01*
X171005002Y-91984967D01*
X171038982Y-91947276D01*
X171073858Y-91910514D01*
X171109605Y-91874620D01*
X171804824Y-92460556D01*
X171351725Y-91673444D01*
X171389621Y-91648786D01*
X171427779Y-91624658D01*
X171466284Y-91601101D01*
X171505220Y-91578153D01*
X171544671Y-91555855D01*
X171584720Y-91534245D01*
X171625451Y-91513363D01*
X171666950Y-91493249D01*
X172155429Y-92344851D01*
X171982212Y-91378528D01*
X172024961Y-91367977D01*
X172067615Y-91358506D01*
X172110213Y-91350032D01*
X172152795Y-91342470D01*
X172195399Y-91335737D01*
X172238065Y-91329748D01*
X172280833Y-91324420D01*
X172323741Y-91319668D01*
X172509389Y-92352860D01*
X172686329Y-91318609D01*
X172727232Y-91322117D01*
G37*
%TD*%
D11*
%TO.C,M1*%
X155764636Y-87560303D03*
D12*
X153264636Y-87560303D03*
X150764636Y-87560303D03*
X148264636Y-87560303D03*
%TD*%
D13*
%TO.C,H1*%
X95976209Y-82211876D03*
X96635219Y-80620886D03*
X96635219Y-83802866D03*
X98226209Y-79961876D03*
D14*
X98226209Y-82211876D03*
D13*
X98226209Y-84461876D03*
X99817199Y-80620886D03*
X99817199Y-83802866D03*
X100476209Y-82211876D03*
%TD*%
D15*
%TO.C,PN532-Module1*%
X163794636Y-83590303D03*
D16*
X166334636Y-83590303D03*
X168874636Y-83590303D03*
X171414636Y-83590303D03*
X173954636Y-83590303D03*
%TD*%
D13*
%TO.C,H4*%
X138913646Y-123868730D03*
X139572656Y-122277740D03*
X139572656Y-125459720D03*
X141163646Y-121618730D03*
D14*
X141163646Y-123868730D03*
D13*
X141163646Y-126118730D03*
X142754636Y-122277740D03*
X142754636Y-125459720D03*
X143413646Y-123868730D03*
%TD*%
D15*
%TO.C,U1*%
X128684636Y-97150303D03*
D16*
X128684636Y-99690303D03*
X128684636Y-102230303D03*
X128684636Y-104770303D03*
X128684636Y-107310303D03*
X128684636Y-109850303D03*
X128684636Y-112390303D03*
X128684636Y-114930303D03*
X142344636Y-99690303D03*
X142344636Y-114930303D03*
X142344636Y-112390303D03*
X142344636Y-109850303D03*
X142344636Y-107310303D03*
X142344636Y-104770303D03*
X142344636Y-102230303D03*
X142344636Y-97150303D03*
%TD*%
D13*
%TO.C,H3*%
X95976209Y-123868730D03*
X96635219Y-122277740D03*
X96635219Y-125459720D03*
X98226209Y-121618730D03*
D14*
X98226209Y-123868730D03*
D13*
X98226209Y-126118730D03*
X99817199Y-122277740D03*
X99817199Y-125459720D03*
X100476209Y-123868730D03*
%TD*%
D15*
%TO.C,SW2*%
X107064636Y-84560303D03*
D16*
X107064636Y-82020303D03*
%TD*%
D13*
%TO.C,H2*%
X179633063Y-82211876D03*
X180292073Y-80620886D03*
X180292073Y-83802866D03*
X181883063Y-79961876D03*
D14*
X181883063Y-82211876D03*
D13*
X181883063Y-84461876D03*
X183474053Y-80620886D03*
X183474053Y-83802866D03*
X184133063Y-82211876D03*
%TD*%
D15*
%TO.C,SW4*%
X114164636Y-84560303D03*
D16*
X114164636Y-82020303D03*
%TD*%
D15*
%TO.C,ST7789-Display1*%
X122854636Y-123240303D03*
D16*
X120314636Y-123240303D03*
X117774636Y-123240303D03*
X115234636Y-123240303D03*
X112694636Y-123240303D03*
X110154636Y-123240303D03*
X107614636Y-123240303D03*
X105074636Y-123240303D03*
%TD*%
D15*
%TO.C,SW3*%
X110614636Y-84560303D03*
D16*
X110614636Y-82020303D03*
%TD*%
D15*
%TO.C,SW1*%
X135684636Y-83590303D03*
D16*
X133144636Y-83590303D03*
X130604636Y-83590303D03*
X128064636Y-83590303D03*
X125524636Y-83590303D03*
%TD*%
D17*
%TO.C,J2*%
X169254636Y-121685303D03*
X175034636Y-121685303D03*
D18*
X167824636Y-121185303D03*
D19*
X167824636Y-125365303D03*
D18*
X176464636Y-121185303D03*
D19*
X176464636Y-125365303D03*
%TD*%
D17*
%TO.C,J1*%
X127854636Y-121735303D03*
X133634636Y-121735303D03*
D18*
X126424636Y-121235303D03*
D19*
X126424636Y-125415303D03*
D18*
X135064636Y-121235303D03*
D19*
X135064636Y-125415303D03*
%TD*%
M02*
