<?xml version="1.0" standalone="no"?>
 <!DOCTYPE svg PUBLIC "-//W3C//DTD SVG 1.1//EN" 
 "http://www.w3.org/Graphics/SVG/1.1/DTD/svg11.dtd"> 
<svg
  xmlns:svg="http://www.w3.org/2000/svg"
  xmlns="http://www.w3.org/2000/svg"
  xmlns:xlink="http://www.w3.org/1999/xlink"
  version="1.1"
  width="297.0022mm" height="210.0072mm" viewBox="0.0000 0.0000 297.0022 210.0072">
<title>SVG Image created as hw1-B_Paste.svg date 2026/04/20 14:10:48 </title>
  <desc>Image generated by PCBNEW </desc>
<g style="fill:#000000; fill-opacity:1.0000;stroke:#000000; stroke-opacity:1.0000;
stroke-linecap:round; stroke-linejoin:round;"
 transform="translate(0 0) scale(1 1)">
<path style="fill:#00C2C2; fill-opacity:0.9000; stroke:none;fill-rule:evenodd;"
d="M 180.4000,114.0000
180.4536,114.0107
180.4990,114.0410
180.5293,114.0864
180.5400,114.1400
180.5400,115.2600
180.5293,115.3136
180.4990,115.3590
180.4536,115.3893
180.4000,115.4000
179.0800,115.4000
179.0264,115.3893
178.9810,115.3590
178.9507,115.3136
178.9400,115.2600
178.9400,114.1400
178.9507,114.0864
178.9810,114.0410
179.0264,114.0107
179.0800,114.0000
Z" /> 
<path style="fill:#00C2C2; fill-opacity:0.9000; stroke:none;fill-rule:evenodd;"
d="M 182.9400,114.0000
182.9936,114.0107
183.0390,114.0410
183.0693,114.0864
183.0800,114.1400
183.0800,115.2600
183.0693,115.3136
183.0390,115.3590
182.9936,115.3893
182.9400,115.4000
181.6200,115.4000
181.5664,115.3893
181.5210,115.3590
181.4907,115.3136
181.4800,115.2600
181.4800,114.1400
181.4907,114.0864
181.5210,114.0410
181.5664,114.0107
181.6200,114.0000
Z" /> 
<path style="fill:#00C2C2; fill-opacity:0.9000; stroke:none;fill-rule:evenodd;"
d="M 185.4800,114.0000
185.5336,114.0107
185.5790,114.0410
185.6093,114.0864
185.6200,114.1400
185.6200,115.2600
185.6093,115.3136
185.5790,115.3590
185.5336,115.3893
185.4800,115.4000
184.1600,115.4000
184.1064,115.3893
184.0610,115.3590
184.0307,115.3136
184.0200,115.2600
184.0200,114.1400
184.0307,114.0864
184.0610,114.0410
184.1064,114.0107
184.1600,114.0000
Z" /> 
<path style="fill:#00C2C2; fill-opacity:0.9000; stroke:none;fill-rule:evenodd;"
d="M 188.0200,114.0000
188.0736,114.0107
188.1190,114.0410
188.1493,114.0864
188.1600,114.1400
188.1600,115.2600
188.1493,115.3136
188.1190,115.3590
188.0736,115.3893
188.0200,115.4000
186.7000,115.4000
186.6464,115.3893
186.6010,115.3590
186.5707,115.3136
186.5600,115.2600
186.5600,114.1400
186.5707,114.0864
186.6010,114.0410
186.6464,114.0107
186.7000,114.0000
Z" /> 
<path style="fill:#00C2C2; fill-opacity:0.9000; stroke:none;fill-rule:evenodd;"
d="M 188.0200,125.5590
188.0736,125.5697
188.1190,125.6000
188.1493,125.6454
188.1600,125.6990
188.1600,126.8190
188.1493,126.8726
188.1190,126.9180
188.0736,126.9483
188.0200,126.9590
186.7000,126.9590
186.6464,126.9483
186.6010,126.9180
186.5707,126.8726
186.5600,126.8190
186.5600,125.6990
186.5707,125.6454
186.6010,125.6000
186.6464,125.5697
186.7000,125.5590
Z" /> 
<path style="fill:#00C2C2; fill-opacity:0.9000; stroke:none;fill-rule:evenodd;"
d="M 185.4800,125.5590
185.5336,125.5697
185.5790,125.6000
185.6093,125.6454
185.6200,125.6990
185.6200,126.8190
185.6093,126.8726
185.5790,126.9180
185.5336,126.9483
185.4800,126.9590
184.1600,126.9590
184.1064,126.9483
184.0610,126.9180
184.0307,126.8726
184.0200,126.8190
184.0200,125.6990
184.0307,125.6454
184.0610,125.6000
184.1064,125.5697
184.1600,125.5590
Z" /> 
<path style="fill:#00C2C2; fill-opacity:0.9000; stroke:none;fill-rule:evenodd;"
d="M 182.9400,125.5590
182.9936,125.5697
183.0390,125.6000
183.0693,125.6454
183.0800,125.6990
183.0800,126.8190
183.0693,126.8726
183.0390,126.9180
182.9936,126.9483
182.9400,126.9590
181.6200,126.9590
181.5664,126.9483
181.5210,126.9180
181.4907,126.8726
181.4800,126.8190
181.4800,125.6990
181.4907,125.6454
181.5210,125.6000
181.5664,125.5697
181.6200,125.5590
Z" /> 
<path style="fill:#00C2C2; fill-opacity:0.9000; stroke:none;fill-rule:evenodd;"
d="M 180.4000,125.5590
180.4536,125.5697
180.4990,125.6000
180.5293,125.6454
180.5400,125.6990
180.5400,126.8190
180.5293,126.8726
180.4990,126.9180
180.4536,126.9483
180.4000,126.9590
179.0800,126.9590
179.0264,126.9483
178.9810,126.9180
178.9507,126.8726
178.9400,126.8190
178.9400,125.6990
178.9507,125.6454
178.9810,125.6000
179.0264,125.5697
179.0800,125.5590
Z" /> 
<path style="fill:#00C2C2; fill-opacity:0.9000; stroke:none;fill-rule:evenodd;"
d="M 189.0800,120.9600
189.0884,120.9179
189.1122,120.8822
189.1479,120.8584
189.1900,120.8500
190.5700,120.8500
190.6121,120.8584
190.6478,120.8822
190.6716,120.9179
190.6800,120.9600
190.6800,121.8400
190.6716,121.8821
190.6478,121.9178
190.6121,121.9416
190.5700,121.9500
189.1900,121.9500
189.1479,121.9416
189.1122,121.9178
189.0884,121.8821
189.0800,121.8400
Z" /> 
<path style="fill:#00C2C2; fill-opacity:0.9000; stroke:none;fill-rule:evenodd;"
d="M 189.0800,118.9600
189.0884,118.9179
189.1122,118.8822
189.1479,118.8584
189.1900,118.8500
190.5700,118.8500
190.6121,118.8584
190.6478,118.8822
190.6716,118.9179
190.6800,118.9600
190.6800,119.8400
190.6716,119.8821
190.6478,119.9178
190.6121,119.9416
190.5700,119.9500
189.1900,119.9500
189.1479,119.9416
189.1122,119.9178
189.0884,119.8821
189.0800,119.8400
Z" /> 
</g> 
</svg>
