<?xml version="1.0" standalone="no"?>
 <!DOCTYPE svg PUBLIC "-//W3C//DTD SVG 1.1//EN" 
 "http://www.w3.org/Graphics/SVG/1.1/DTD/svg11.dtd"> 
<svg
  xmlns:svg="http://www.w3.org/2000/svg"
  xmlns="http://www.w3.org/2000/svg"
  xmlns:xlink="http://www.w3.org/1999/xlink"
  version="1.1"
  width="297.0022mm" height="210.0072mm" viewBox="0.0000 0.0000 297.0022 210.0072">
<title>SVG Image created as hw1-F_Mask.svg date 2026/04/20 14:10:48 </title>
  <desc>Image generated by PCBNEW </desc>
<g style="fill:#000000; fill-opacity:1.0000;stroke:#000000; stroke-opacity:1.0000;
stroke-linecap:round; stroke-linejoin:round;"
 transform="translate(0 0) scale(1 1)">
<path style="fill:#D864FF; fill-opacity:0.4000; stroke:none;fill-rule:evenodd;"
d="M 250.1000,108.6500
251.6000,108.6500
251.6000,108.3500
250.1000,108.3500
Z" /> 
<path style="fill:#D864FF; fill-opacity:0.4000; 
stroke:#D864FF; stroke-width:0.0100; stroke-opacity:1; 
stroke-linecap:round; stroke-linejoin:round;fill-rule:evenodd;"
d="M 247.7600,118.6900
248.2900,118.6900
248.2900,119.2900
247.7600,119.2900
247.7600,119.5900
245.1100,119.5900
245.1100,119.2900
244.5800,119.2900
244.5800,118.6900
245.1100,118.6900
245.1100,116.9900
247.7600,116.9900
Z" /> 
<path style="fill:#D864FF; fill-opacity:0.4000; stroke:none;fill-rule:evenodd;"
d="M 247.6000,108.6500
249.1000,108.6500
249.1000,108.3500
247.6000,108.3500
Z" /> 
<path style="fill:#D864FF; fill-opacity:0.4000; stroke:none;fill-rule:evenodd;"
d="M 223.5500,139.0750
220.0500,139.0750
220.0500,136.7250
223.5500,136.7250
Z" /> 
<path style="fill:#D864FF; fill-opacity:0.4000; stroke:none;fill-rule:evenodd;"
d="M 223.5500,133.3750
220.0500,133.3750
220.0500,131.0250
223.5500,131.0250
Z" /> 
<path style="fill:#D864FF; fill-opacity:0.4000; stroke:none;fill-rule:evenodd;"
d="M 235.3250,136.7750
235.4015,136.7902
235.4664,136.8336
235.5098,136.8985
235.5250,136.9750
235.5250,137.3750
235.5098,137.4515
235.4664,137.5164
235.4015,137.5598
235.3250,137.5750
234.7750,137.5750
234.6985,137.5598
234.6336,137.5164
234.5902,137.4515
234.5750,137.3750
234.5750,136.9750
234.5902,136.8985
234.6336,136.8336
234.6985,136.7902
234.7750,136.7750
Z" /> 
<path style="fill:#D864FF; fill-opacity:0.4000; stroke:none;fill-rule:evenodd;"
d="M 235.3250,138.4250
235.4015,138.4402
235.4664,138.4836
235.5098,138.5485
235.5250,138.6250
235.5250,139.0250
235.5098,139.1015
235.4664,139.1664
235.4015,139.2098
235.3250,139.2250
234.7750,139.2250
234.6985,139.2098
234.6336,139.1664
234.5902,139.1015
234.5750,139.0250
234.5750,138.6250
234.5902,138.5485
234.6336,138.4836
234.6985,138.4402
234.7750,138.4250
Z" /> 
<path style="fill:#D864FF; fill-opacity:0.4000; stroke:none;fill-rule:evenodd;"
d="M 239.6850,117.5775
239.6936,117.5344
239.7180,117.4979
239.7544,117.4736
239.7975,117.4650
240.1725,117.4650
240.2156,117.4736
240.2520,117.4979
240.2764,117.5344
240.2850,117.5775
240.2850,117.8025
240.2764,117.8456
240.2520,117.8820
240.2156,117.9064
240.1725,117.9150
239.7975,117.9150
239.7544,117.9064
239.7180,117.8820
239.6936,117.8456
239.6850,117.8025
Z" /> 
<path style="fill:#D864FF; fill-opacity:0.4000; stroke:none;fill-rule:evenodd;"
d="M 241.7850,117.5775
241.7936,117.5344
241.8179,117.4979
241.8544,117.4736
241.8975,117.4650
242.2725,117.4650
242.3156,117.4736
242.3520,117.4979
242.3764,117.5344
242.3850,117.5775
242.3850,117.8025
242.3764,117.8456
242.3520,117.8820
242.3156,117.9064
242.2725,117.9150
241.8975,117.9150
241.8544,117.9064
241.8179,117.8820
241.7936,117.8456
241.7850,117.8025
Z" /> 
<path style="fill:#D864FF; fill-opacity:0.4000; stroke:none;fill-rule:evenodd;"
d="M 223.5000,106.0700
223.4810,106.1657
223.4268,106.2468
223.3457,106.3010
223.2500,106.3200
222.0500,106.3200
221.9543,106.3010
221.8732,106.2468
221.8190,106.1657
221.8000,106.0700
221.8000,104.6200
221.8190,104.5243
221.8732,104.4432
221.9543,104.3890
222.0500,104.3700
223.2500,104.3700
223.3457,104.3890
223.4268,104.4432
223.4810,104.5243
223.5000,104.6200
Z" /> 
</g>
<g style="fill:none; 
stroke:#D864FF; stroke-width:1.7000; stroke-opacity:1; 
stroke-linecap:round; stroke-linejoin:round;">
<path d="M220.1500 105.4700
L220.1500 105.2200
" />
<path d="M217.6500 105.4700
L217.6500 105.2200
" />
<path d="M215.1500 105.4700
L215.1500 105.2200
" />
<path style="fill:#D864FF; fill-opacity:0.4000; stroke:none;fill-rule:evenodd;"
d="M 239.7100,119.2150
239.7252,119.1385
239.7686,119.0736
239.8335,119.0302
239.9100,119.0150
240.3100,119.0150
240.3865,119.0302
240.4514,119.0736
240.4948,119.1385
240.5100,119.2150
240.5100,119.7650
240.4948,119.8415
240.4514,119.9064
240.3865,119.9498
240.3100,119.9650
239.9100,119.9650
239.8335,119.9498
239.7686,119.9064
239.7252,119.8415
239.7100,119.7650
Z" /> 
<path style="fill:#D864FF; fill-opacity:0.4000; stroke:none;fill-rule:evenodd;"
d="M 241.3600,119.2150
241.3752,119.1385
241.4186,119.0736
241.4835,119.0302
241.5600,119.0150
241.9600,119.0150
242.0365,119.0302
242.1014,119.0736
242.1448,119.1385
242.1600,119.2150
242.1600,119.7650
242.1448,119.8415
242.1014,119.9064
242.0365,119.9498
241.9600,119.9650
241.5600,119.9650
241.4835,119.9498
241.4186,119.9064
241.3752,119.8415
241.3600,119.7650
Z" /> 
<path style="fill:#D864FF; fill-opacity:0.4000; stroke:none;fill-rule:evenodd;"
d="M 244.4150,130.2050
244.3863,130.1993
244.3620,130.1830
244.3457,130.1587
244.3400,130.1300
244.3400,129.4300
244.3457,129.4013
244.3620,129.3770
244.3863,129.3607
244.4150,129.3550
244.5650,129.3550
244.5937,129.3607
244.6180,129.3770
244.6343,129.4013
244.6400,129.4300
244.6400,130.1300
244.6343,130.1587
244.6180,130.1830
244.5937,130.1993
244.5650,130.2050
Z" /> 
<path style="fill:#D864FF; fill-opacity:0.4000; stroke:none;fill-rule:evenodd;"
d="M 244.9150,130.2050
244.8863,130.1993
244.8620,130.1830
244.8457,130.1587
244.8400,130.1300
244.8400,129.4300
244.8457,129.4013
244.8620,129.3770
244.8863,129.3607
244.9150,129.3550
245.0650,129.3550
245.0937,129.3607
245.1180,129.3770
245.1343,129.4013
245.1400,129.4300
245.1400,130.1300
245.1343,130.1587
245.1180,130.1830
245.0937,130.1993
245.0650,130.2050
Z" /> 
<path style="fill:#D864FF; fill-opacity:0.4000; stroke:none;fill-rule:evenodd;"
d="M 245.4150,130.2050
245.3863,130.1993
245.3620,130.1830
245.3457,130.1587
245.3400,130.1300
245.3400,129.4300
245.3457,129.4013
245.3620,129.3770
245.3863,129.3607
245.4150,129.3550
245.5650,129.3550
245.5937,129.3607
245.6180,129.3770
245.6343,129.4013
245.6400,129.4300
245.6400,130.1300
245.6343,130.1587
245.6180,130.1830
245.5937,130.1993
245.5650,130.2050
Z" /> 
<path style="fill:#D864FF; fill-opacity:0.4000; stroke:none;fill-rule:evenodd;"
d="M 245.9150,130.2050
245.8863,130.1993
245.8620,130.1830
245.8457,130.1587
245.8400,130.1300
245.8400,129.4300
245.8457,129.4013
245.8620,129.3770
245.8863,129.3607
245.9150,129.3550
246.0650,129.3550
246.0937,129.3607
246.1180,129.3770
246.1343,129.4013
246.1400,129.4300
246.1400,130.1300
246.1343,130.1587
246.1180,130.1830
246.0937,130.1993
246.0650,130.2050
Z" /> 
<path style="fill:#D864FF; fill-opacity:0.4000; stroke:none;fill-rule:evenodd;"
d="M 246.4150,130.2050
246.3863,130.1993
246.3620,130.1830
246.3457,130.1587
246.3400,130.1300
246.3400,129.4300
246.3457,129.4013
246.3620,129.3770
246.3863,129.3607
246.4150,129.3550
246.5650,129.3550
246.5937,129.3607
246.6180,129.3770
246.6343,129.4013
246.6400,129.4300
246.6400,130.1300
246.6343,130.1587
246.6180,130.1830
246.5937,130.1993
246.5650,130.2050
Z" /> 
<path style="fill:#D864FF; fill-opacity:0.4000; stroke:none;fill-rule:evenodd;"
d="M 246.9150,130.2050
246.8863,130.1993
246.8620,130.1830
246.8457,130.1587
246.8400,130.1300
246.8400,129.4300
246.8457,129.4013
246.8620,129.3770
246.8863,129.3607
246.9150,129.3550
247.0650,129.3550
247.0937,129.3607
247.1180,129.3770
247.1343,129.4013
247.1400,129.4300
247.1400,130.1300
247.1343,130.1587
247.1180,130.1830
247.0937,130.1993
247.0650,130.2050
Z" /> 
<path style="fill:#D864FF; fill-opacity:0.4000; stroke:none;fill-rule:evenodd;"
d="M 247.3400,129.2300
247.3113,129.2243
247.2870,129.2080
247.2707,129.1837
247.2650,129.1550
247.2650,129.0050
247.2707,128.9763
247.2870,128.9520
247.3113,128.9357
247.3400,128.9300
248.0400,128.9300
248.0687,128.9357
248.0930,128.9520
248.1093,128.9763
248.1150,129.0050
248.1150,129.1550
248.1093,129.1837
248.0930,129.2080
248.0687,129.2243
248.0400,129.2300
Z" /> 
<path style="fill:#D864FF; fill-opacity:0.4000; stroke:none;fill-rule:evenodd;"
d="M 247.3400,128.7300
247.3113,128.7243
247.2870,128.7080
247.2707,128.6837
247.2650,128.6550
247.2650,128.5050
247.2707,128.4763
247.2870,128.4520
247.3113,128.4357
247.3400,128.4300
248.0400,128.4300
248.0687,128.4357
248.0930,128.4520
248.1093,128.4763
248.1150,128.5050
248.1150,128.6550
248.1093,128.6837
248.0930,128.7080
248.0687,128.7243
248.0400,128.7300
Z" /> 
<path style="fill:#D864FF; fill-opacity:0.4000; stroke:none;fill-rule:evenodd;"
d="M 247.3400,128.2300
247.3113,128.2243
247.2870,128.2080
247.2707,128.1837
247.2650,128.1550
247.2650,128.0050
247.2707,127.9763
247.2870,127.9520
247.3113,127.9357
247.3400,127.9300
248.0400,127.9300
248.0687,127.9357
248.0930,127.9520
248.1093,127.9763
248.1150,128.0050
248.1150,128.1550
248.1093,128.1837
248.0930,128.2080
248.0687,128.2243
248.0400,128.2300
Z" /> 
<path style="fill:#D864FF; fill-opacity:0.4000; stroke:none;fill-rule:evenodd;"
d="M 247.3400,127.7300
247.3113,127.7243
247.2870,127.7080
247.2707,127.6837
247.2650,127.6550
247.2650,127.5050
247.2707,127.4763
247.2870,127.4520
247.3113,127.4357
247.3400,127.4300
248.0400,127.4300
248.0687,127.4357
248.0930,127.4520
248.1093,127.4763
248.1150,127.5050
248.1150,127.6550
248.1093,127.6837
248.0930,127.7080
248.0687,127.7243
248.0400,127.7300
Z" /> 
<path style="fill:#D864FF; fill-opacity:0.4000; stroke:none;fill-rule:evenodd;"
d="M 247.3400,127.2300
247.3113,127.2243
247.2870,127.2080
247.2707,127.1837
247.2650,127.1550
247.2650,127.0050
247.2707,126.9763
247.2870,126.9520
247.3113,126.9357
247.3400,126.9300
248.0400,126.9300
248.0687,126.9357
248.0930,126.9520
248.1093,126.9763
248.1150,127.0050
248.1150,127.1550
248.1093,127.1837
248.0930,127.2080
248.0687,127.2243
248.0400,127.2300
Z" /> 
<path style="fill:#D864FF; fill-opacity:0.4000; stroke:none;fill-rule:evenodd;"
d="M 247.3400,126.7300
247.3113,126.7243
247.2870,126.7080
247.2707,126.6837
247.2650,126.6550
247.2650,126.5050
247.2707,126.4763
247.2870,126.4520
247.3113,126.4357
247.3400,126.4300
248.0400,126.4300
248.0687,126.4357
248.0930,126.4520
248.1093,126.4763
248.1150,126.5050
248.1150,126.6550
248.1093,126.6837
248.0930,126.7080
248.0687,126.7243
248.0400,126.7300
Z" /> 
<path style="fill:#D864FF; fill-opacity:0.4000; stroke:none;fill-rule:evenodd;"
d="M 246.9150,126.3050
246.8863,126.2993
246.8620,126.2830
246.8457,126.2587
246.8400,126.2300
246.8400,125.5300
246.8457,125.5013
246.8620,125.4770
246.8863,125.4607
246.9150,125.4550
247.0650,125.4550
247.0937,125.4607
247.1180,125.4770
247.1343,125.5013
247.1400,125.5300
247.1400,126.2300
247.1343,126.2587
247.1180,126.2830
247.0937,126.2993
247.0650,126.3050
Z" /> 
<path style="fill:#D864FF; fill-opacity:0.4000; stroke:none;fill-rule:evenodd;"
d="M 246.4150,126.3050
246.3863,126.2993
246.3620,126.2830
246.3457,126.2587
246.3400,126.2300
246.3400,125.5300
246.3457,125.5013
246.3620,125.4770
246.3863,125.4607
246.4150,125.4550
246.5650,125.4550
246.5937,125.4607
246.6180,125.4770
246.6343,125.5013
246.6400,125.5300
246.6400,126.2300
246.6343,126.2587
246.6180,126.2830
246.5937,126.2993
246.5650,126.3050
Z" /> 
<path style="fill:#D864FF; fill-opacity:0.4000; stroke:none;fill-rule:evenodd;"
d="M 245.9150,126.3050
245.8863,126.2993
245.8620,126.2830
245.8457,126.2587
245.8400,126.2300
245.8400,125.5300
245.8457,125.5013
245.8620,125.4770
245.8863,125.4607
245.9150,125.4550
246.0650,125.4550
246.0937,125.4607
246.1180,125.4770
246.1343,125.5013
246.1400,125.5300
246.1400,126.2300
246.1343,126.2587
246.1180,126.2830
246.0937,126.2993
246.0650,126.3050
Z" /> 
<path style="fill:#D864FF; fill-opacity:0.4000; stroke:none;fill-rule:evenodd;"
d="M 245.4150,126.3050
245.3863,126.2993
245.3620,126.2830
245.3457,126.2587
245.3400,126.2300
245.3400,125.5300
245.3457,125.5013
245.3620,125.4770
245.3863,125.4607
245.4150,125.4550
245.5650,125.4550
245.5937,125.4607
245.6180,125.4770
245.6343,125.5013
245.6400,125.5300
245.6400,126.2300
245.6343,126.2587
245.6180,126.2830
245.5937,126.2993
245.5650,126.3050
Z" /> 
<path style="fill:#D864FF; fill-opacity:0.4000; stroke:none;fill-rule:evenodd;"
d="M 244.9150,126.3050
244.8863,126.2993
244.8620,126.2830
244.8457,126.2587
244.8400,126.2300
244.8400,125.5300
244.8457,125.5013
244.8620,125.4770
244.8863,125.4607
244.9150,125.4550
245.0650,125.4550
245.0937,125.4607
245.1180,125.4770
245.1343,125.5013
245.1400,125.5300
245.1400,126.2300
245.1343,126.2587
245.1180,126.2830
245.0937,126.2993
245.0650,126.3050
Z" /> 
<path style="fill:#D864FF; fill-opacity:0.4000; stroke:none;fill-rule:evenodd;"
d="M 244.4150,126.3050
244.3863,126.2993
244.3620,126.2830
244.3457,126.2587
244.3400,126.2300
244.3400,125.5300
244.3457,125.5013
244.3620,125.4770
244.3863,125.4607
244.4150,125.4550
244.5650,125.4550
244.5937,125.4607
244.6180,125.4770
244.6343,125.5013
244.6400,125.5300
244.6400,126.2300
244.6343,126.2587
244.6180,126.2830
244.5937,126.2993
244.5650,126.3050
Z" /> 
<path style="fill:#D864FF; fill-opacity:0.4000; stroke:none;fill-rule:evenodd;"
d="M 243.4400,126.7300
243.4113,126.7243
243.3870,126.7080
243.3707,126.6837
243.3650,126.6550
243.3650,126.5050
243.3707,126.4763
243.3870,126.4520
243.4113,126.4357
243.4400,126.4300
244.1400,126.4300
244.1687,126.4357
244.1930,126.4520
244.2093,126.4763
244.2150,126.5050
244.2150,126.6550
244.2093,126.6837
244.1930,126.7080
244.1687,126.7243
244.1400,126.7300
Z" /> 
<path style="fill:#D864FF; fill-opacity:0.4000; stroke:none;fill-rule:evenodd;"
d="M 243.4400,127.2300
243.4113,127.2243
243.3870,127.2080
243.3707,127.1837
243.3650,127.1550
243.3650,127.0050
243.3707,126.9763
243.3870,126.9520
243.4113,126.9357
243.4400,126.9300
244.1400,126.9300
244.1687,126.9357
244.1930,126.9520
244.2093,126.9763
244.2150,127.0050
244.2150,127.1550
244.2093,127.1837
244.1930,127.2080
244.1687,127.2243
244.1400,127.2300
Z" /> 
<path style="fill:#D864FF; fill-opacity:0.4000; stroke:none;fill-rule:evenodd;"
d="M 243.4400,127.7300
243.4113,127.7243
243.3870,127.7080
243.3707,127.6837
243.3650,127.6550
243.3650,127.5050
243.3707,127.4763
243.3870,127.4520
243.4113,127.4357
243.4400,127.4300
244.1400,127.4300
244.1687,127.4357
244.1930,127.4520
244.2093,127.4763
244.2150,127.5050
244.2150,127.6550
244.2093,127.6837
244.1930,127.7080
244.1687,127.7243
244.1400,127.7300
Z" /> 
<path style="fill:#D864FF; fill-opacity:0.4000; stroke:none;fill-rule:evenodd;"
d="M 243.4400,128.2300
243.4113,128.2243
243.3870,128.2080
243.3707,128.1837
243.3650,128.1550
243.3650,128.0050
243.3707,127.9763
243.3870,127.9520
243.4113,127.9357
243.4400,127.9300
244.1400,127.9300
244.1687,127.9357
244.1930,127.9520
244.2093,127.9763
244.2150,128.0050
244.2150,128.1550
244.2093,128.1837
244.1930,128.2080
244.1687,128.2243
244.1400,128.2300
Z" /> 
<path style="fill:#D864FF; fill-opacity:0.4000; stroke:none;fill-rule:evenodd;"
d="M 243.4400,128.7300
243.4113,128.7243
243.3870,128.7080
243.3707,128.6837
243.3650,128.6550
243.3650,128.5050
243.3707,128.4763
243.3870,128.4520
243.4113,128.4357
243.4400,128.4300
244.1400,128.4300
244.1687,128.4357
244.1930,128.4520
244.2093,128.4763
244.2150,128.5050
244.2150,128.6550
244.2093,128.6837
244.1930,128.7080
244.1687,128.7243
244.1400,128.7300
Z" /> 
<path style="fill:#D864FF; fill-opacity:0.4000; stroke:none;fill-rule:evenodd;"
d="M 243.4400,129.2300
243.4113,129.2243
243.3870,129.2080
243.3707,129.1837
243.3650,129.1550
243.3650,129.0050
243.3707,128.9763
243.3870,128.9520
243.4113,128.9357
243.4400,128.9300
244.1400,128.9300
244.1687,128.9357
244.1930,128.9520
244.2093,128.9763
244.2150,129.0050
244.2150,129.1550
244.2093,129.1837
244.1930,129.2080
244.1687,129.2243
244.1400,129.2300
Z" /> 
<path style="fill:#D864FF; fill-opacity:0.4000; stroke:none;fill-rule:evenodd;"
d="M 247.0650,129.1550
244.4150,129.1550
244.4150,126.5050
247.0650,126.5050
Z" /> 
<path style="fill:#D864FF; fill-opacity:0.4000; stroke:none;fill-rule:evenodd;"
d="M 248.7300,124.7150
248.7452,124.6385
248.7886,124.5736
248.8535,124.5302
248.9300,124.5150
249.3300,124.5150
249.4065,124.5302
249.4714,124.5736
249.5148,124.6385
249.5300,124.7150
249.5300,125.2650
249.5148,125.3415
249.4714,125.4064
249.4065,125.4498
249.3300,125.4650
248.9300,125.4650
248.8535,125.4498
248.7886,125.4064
248.7452,125.3415
248.7300,125.2650
Z" /> 
<path style="fill:#D864FF; fill-opacity:0.4000; stroke:none;fill-rule:evenodd;"
d="M 250.3800,124.7150
250.3952,124.6385
250.4386,124.5736
250.5035,124.5302
250.5800,124.5150
250.9800,124.5150
251.0565,124.5302
251.1214,124.5736
251.1648,124.6385
251.1800,124.7150
251.1800,125.2650
251.1648,125.3415
251.1214,125.4064
251.0565,125.4498
250.9800,125.4650
250.5800,125.4650
250.5035,125.4498
250.4386,125.4064
250.3952,125.3415
250.3800,125.2650
Z" /> 
<path style="fill:#D864FF; fill-opacity:0.4000; stroke:none;fill-rule:evenodd;"
d="M 190.3350,106.7750
190.3198,106.8515
190.2764,106.9164
190.2115,106.9598
190.1350,106.9750
189.7350,106.9750
189.6585,106.9598
189.5936,106.9164
189.5502,106.8515
189.5350,106.7750
189.5350,106.2250
189.5502,106.1485
189.5936,106.0836
189.6585,106.0402
189.7350,106.0250
190.1350,106.0250
190.2115,106.0402
190.2764,106.0836
190.3198,106.1485
190.3350,106.2250
Z" /> 
<path style="fill:#D864FF; fill-opacity:0.4000; stroke:none;fill-rule:evenodd;"
d="M 188.6850,106.7750
188.6698,106.8515
188.6264,106.9164
188.5615,106.9598
188.4850,106.9750
188.0850,106.9750
188.0085,106.9598
187.9436,106.9164
187.9002,106.8515
187.8850,106.7750
187.8850,106.2250
187.9002,106.1485
187.9436,106.0836
188.0085,106.0402
188.0850,106.0250
188.4850,106.0250
188.5615,106.0402
188.6264,106.0836
188.6698,106.1485
188.6850,106.2250
Z" /> 
</g>
<g style="fill:#D864FF; fill-opacity:0.4000; stroke:none;">
<circle cx="175.3500" cy="101.2000" r="0.4000" /> 
</g>
<g style="fill:#D864FF; fill-opacity:0.4000; stroke:none;">
<circle cx="176.0090" cy="99.6090" r="0.4000" /> 
</g>
<g style="fill:#D864FF; fill-opacity:0.4000; stroke:none;">
<circle cx="176.0090" cy="102.7910" r="0.4000" /> 
</g>
<g style="fill:#D864FF; fill-opacity:0.4000; stroke:none;">
<circle cx="177.6000" cy="98.9500" r="0.4000" /> 
</g>
<g style="fill:#D864FF; fill-opacity:0.4000; stroke:none;">
<circle cx="177.6000" cy="101.2000" r="3.0000" /> 
</g>
<g style="fill:#D864FF; fill-opacity:0.4000; stroke:none;">
<circle cx="177.6000" cy="103.4500" r="0.4000" /> 
</g>
<g style="fill:#D864FF; fill-opacity:0.4000; stroke:none;">
<circle cx="179.1910" cy="99.6090" r="0.4000" /> 
</g>
<g style="fill:#D864FF; fill-opacity:0.4000; stroke:none;">
<circle cx="179.1910" cy="102.7910" r="0.4000" /> 
</g>
<g style="fill:#D864FF; fill-opacity:0.4000; stroke:none;">
<circle cx="179.8500" cy="101.2000" r="0.4000" /> 
<path style="fill:#D864FF; fill-opacity:0.4000; stroke:none;fill-rule:evenodd;"
d="M 240.3800,131.3150
240.2939,131.2979
240.2209,131.2491
240.1721,131.1761
240.1550,131.0900
240.1550,130.6400
240.1721,130.5539
240.2209,130.4809
240.2939,130.4321
240.3800,130.4150
240.8800,130.4150
240.9661,130.4321
241.0391,130.4809
241.0879,130.5539
241.1050,130.6400
241.1050,131.0900
241.0879,131.1761
241.0391,131.2491
240.9661,131.2979
240.8800,131.3150
Z" /> 
<path style="fill:#D864FF; fill-opacity:0.4000; stroke:none;fill-rule:evenodd;"
d="M 240.3800,129.7650
240.2939,129.7479
240.2209,129.6991
240.1721,129.6261
240.1550,129.5400
240.1550,129.0900
240.1721,129.0039
240.2209,128.9309
240.2939,128.8821
240.3800,128.8650
240.8800,128.8650
240.9661,128.8821
241.0391,128.9309
241.0879,129.0039
241.1050,129.0900
241.1050,129.5400
241.0879,129.6261
241.0391,129.6991
240.9661,129.7479
240.8800,129.7650
Z" /> 
<path style="fill:#D864FF; fill-opacity:0.4000; stroke:none;fill-rule:evenodd;"
d="M 251.6000,108.6500
251.6000,109.1500
251.5957,109.1500
251.5957,109.2153
251.5619,109.3413
251.4967,109.4544
251.4044,109.5467
251.2913,109.6119
251.1653,109.6457
251.1000,109.6457
251.1000,109.6500
250.6000,109.6500
250.6000,109.6457
250.5347,109.6457
250.4087,109.6119
250.2956,109.5467
250.2033,109.4544
250.1381,109.3413
250.1043,109.2153
250.1043,109.1500
250.1000,109.1500
250.1000,108.6500
Z" /> 
<path style="fill:#D864FF; fill-opacity:0.4000; stroke:none;fill-rule:evenodd;"
d="M 250.1043,107.8500
250.1043,107.7847
250.1381,107.6587
250.2033,107.5456
250.2956,107.4533
250.4087,107.3881
250.5347,107.3543
250.6000,107.3543
250.6000,107.3500
251.1000,107.3500
251.1000,107.3543
251.1653,107.3543
251.2913,107.3881
251.4044,107.4533
251.4967,107.5456
251.5619,107.6587
251.5957,107.7847
251.5957,107.8500
251.6000,107.8500
251.6000,108.3500
250.1000,108.3500
250.1000,107.8500
Z" /> 
<path style="fill:#D864FF; fill-opacity:0.4000; stroke:none;fill-rule:evenodd;"
d="M 193.8750,106.7750
193.8598,106.8515
193.8164,106.9164
193.7515,106.9598
193.6750,106.9750
193.2750,106.9750
193.1985,106.9598
193.1336,106.9164
193.0902,106.8515
193.0750,106.7750
193.0750,106.2250
193.0902,106.1485
193.1336,106.0836
193.1985,106.0402
193.2750,106.0250
193.6750,106.0250
193.7515,106.0402
193.8164,106.0836
193.8598,106.1485
193.8750,106.2250
Z" /> 
<path style="fill:#D864FF; fill-opacity:0.4000; stroke:none;fill-rule:evenodd;"
d="M 192.2250,106.7750
192.2098,106.8515
192.1664,106.9164
192.1015,106.9598
192.0250,106.9750
191.6250,106.9750
191.5485,106.9598
191.4836,106.9164
191.4402,106.8515
191.4250,106.7750
191.4250,106.2250
191.4402,106.1485
191.4836,106.0836
191.5485,106.0402
191.6250,106.0250
192.0250,106.0250
192.1015,106.0402
192.1664,106.0836
192.2098,106.1485
192.2250,106.2250
Z" /> 
<path style="fill:#D864FF; fill-opacity:0.4000; stroke:none;fill-rule:evenodd;"
d="M 226.8000,130.9750
226.7810,131.0707
226.7268,131.1518
226.6457,131.2060
226.5500,131.2250
226.0500,131.2250
225.9543,131.2060
225.8732,131.1518
225.8190,131.0707
225.8000,130.9750
225.8000,130.0250
225.8190,129.9293
225.8732,129.8482
225.9543,129.7940
226.0500,129.7750
226.5500,129.7750
226.6457,129.7940
226.7268,129.8482
226.7810,129.9293
226.8000,130.0250
Z" /> 
<path style="fill:#D864FF; fill-opacity:0.4000; stroke:none;fill-rule:evenodd;"
d="M 224.9000,130.9750
224.8810,131.0707
224.8268,131.1518
224.7457,131.2060
224.6500,131.2250
224.1500,131.2250
224.0543,131.2060
223.9732,131.1518
223.9190,131.0707
223.9000,130.9750
223.9000,130.0250
223.9190,129.9293
223.9732,129.8482
224.0543,129.7940
224.1500,129.7750
224.6500,129.7750
224.7457,129.7940
224.8268,129.8482
224.8810,129.9293
224.9000,130.0250
Z" /> 
<path style="fill:#D864FF; fill-opacity:0.4000; stroke:none;fill-rule:evenodd;"
d="M 243.4020,134.0540
243.3953,134.0877
243.3762,134.1162
243.3477,134.1353
243.3140,134.1420
242.0560,134.1420
242.0223,134.1353
241.9938,134.1162
241.9747,134.0877
241.9680,134.0540
241.9680,133.5260
241.9747,133.4923
241.9938,133.4638
242.0223,133.4447
242.0560,133.4380
243.3140,133.4380
243.3477,133.4447
243.3762,133.4638
243.3953,133.4923
243.4020,133.5260
Z" /> 
<path style="fill:#D864FF; fill-opacity:0.4000; stroke:none;fill-rule:evenodd;"
d="M 243.4020,132.7540
243.3953,132.7877
243.3762,132.8162
243.3477,132.8353
243.3140,132.8420
242.0560,132.8420
242.0223,132.8353
241.9938,132.8162
241.9747,132.7877
241.9680,132.7540
241.9680,132.2260
241.9747,132.1923
241.9938,132.1638
242.0223,132.1447
242.0560,132.1380
243.3140,132.1380
243.3477,132.1447
243.3762,132.1638
243.3953,132.1923
243.4020,132.2260
Z" /> 
<path style="fill:#D864FF; fill-opacity:0.4000; stroke:none;fill-rule:evenodd;"
d="M 241.5220,133.4040
241.5153,133.4377
241.4962,133.4662
241.4677,133.4853
241.4340,133.4920
240.1760,133.4920
240.1423,133.4853
240.1138,133.4662
240.0947,133.4377
240.0880,133.4040
240.0880,132.8760
240.0947,132.8423
240.1138,132.8138
240.1423,132.7947
240.1760,132.7880
241.4340,132.7880
241.4677,132.7947
241.4962,132.8138
241.5153,132.8423
241.5220,132.8760
Z" /> 
<path style="fill:#D864FF; fill-opacity:0.4000; stroke:none;fill-rule:evenodd;"
d="M 176.5396,127.6390
176.5979,127.6506
176.6474,127.6836
176.6804,127.7331
176.6920,127.7914
176.6920,129.8186
176.6804,129.8769
176.6474,129.9264
176.5979,129.9594
176.5396,129.9710
175.3204,129.9710
175.2621,129.9594
175.2126,129.9264
175.1796,129.8769
175.1680,129.8186
175.1680,127.7914
175.1796,127.7331
175.2126,127.6836
175.2621,127.6506
175.3204,127.6390
Z" /> 
</g>
<g style="fill:#D864FF; fill-opacity:0.4000; stroke:none;">
<circle cx="175.9300" cy="128.0200" r="0.7620" /> 
<path style="fill:#D864FF; fill-opacity:0.4000; stroke:none;fill-rule:evenodd;"
d="M 179.0796,127.6390
179.1379,127.6506
179.1874,127.6836
179.2204,127.7331
179.2320,127.7914
179.2320,129.8186
179.2204,129.8769
179.1874,129.9264
179.1379,129.9594
179.0796,129.9710
177.8604,129.9710
177.8021,129.9594
177.7526,129.9264
177.7196,129.8769
177.7080,129.8186
177.7080,127.7914
177.7196,127.7331
177.7526,127.6836
177.8021,127.6506
177.8604,127.6390
Z" /> 
</g>
<g style="fill:#D864FF; fill-opacity:0.4000; stroke:none;">
<circle cx="178.4700" cy="128.0200" r="0.7620" /> 
<path style="fill:#D864FF; fill-opacity:0.4000; stroke:none;fill-rule:evenodd;"
d="M 181.6196,127.6390
181.6779,127.6506
181.7274,127.6836
181.7604,127.7331
181.7720,127.7914
181.7720,129.8186
181.7604,129.8769
181.7274,129.9264
181.6779,129.9594
181.6196,129.9710
180.4004,129.9710
180.3421,129.9594
180.2926,129.9264
180.2596,129.8769
180.2480,129.8186
180.2480,127.7914
180.2596,127.7331
180.2926,127.6836
180.3421,127.6506
180.4004,127.6390
Z" /> 
</g>
<g style="fill:#D864FF; fill-opacity:0.4000; stroke:none;">
<circle cx="181.0100" cy="128.0200" r="0.7620" /> 
<path style="fill:#D864FF; fill-opacity:0.4000; stroke:none;fill-rule:evenodd;"
d="M 184.1596,127.6390
184.2179,127.6506
184.2674,127.6836
184.3004,127.7331
184.3120,127.7914
184.3120,129.8186
184.3004,129.8769
184.2674,129.9264
184.2179,129.9594
184.1596,129.9710
182.9404,129.9710
182.8821,129.9594
182.8326,129.9264
182.7996,129.8769
182.7880,129.8186
182.7880,127.7914
182.7996,127.7331
182.8326,127.6836
182.8821,127.6506
182.9404,127.6390
Z" /> 
</g>
<g style="fill:#D864FF; fill-opacity:0.4000; stroke:none;">
<circle cx="183.5500" cy="128.0200" r="0.7620" /> 
<path style="fill:#D864FF; fill-opacity:0.4000; stroke:none;fill-rule:evenodd;"
d="M 186.6996,127.6390
186.7579,127.6506
186.8074,127.6836
186.8404,127.7331
186.8520,127.7914
186.8520,129.8186
186.8404,129.8769
186.8074,129.9264
186.7579,129.9594
186.6996,129.9710
185.4804,129.9710
185.4221,129.9594
185.3726,129.9264
185.3396,129.8769
185.3280,129.8186
185.3280,127.7914
185.3396,127.7331
185.3726,127.6836
185.4221,127.6506
185.4804,127.6390
Z" /> 
</g>
<g style="fill:#D864FF; fill-opacity:0.4000; stroke:none;">
<circle cx="186.0900" cy="128.0200" r="0.7620" /> 
<path style="fill:#D864FF; fill-opacity:0.4000; stroke:none;fill-rule:evenodd;"
d="M 189.2396,127.6390
189.2979,127.6506
189.3474,127.6836
189.3804,127.7331
189.3920,127.7914
189.3920,129.8186
189.3804,129.8769
189.3474,129.9264
189.2979,129.9594
189.2396,129.9710
188.0204,129.9710
187.9621,129.9594
187.9126,129.9264
187.8796,129.8769
187.8680,129.8186
187.8680,127.7914
187.8796,127.7331
187.9126,127.6836
187.9621,127.6506
188.0204,127.6390
Z" /> 
</g>
<g style="fill:#D864FF; fill-opacity:0.4000; stroke:none;">
<circle cx="188.6300" cy="128.0200" r="0.7620" /> 
<path style="fill:#D864FF; fill-opacity:0.4000; stroke:none;fill-rule:evenodd;"
d="M 191.7796,127.6390
191.8379,127.6506
191.8874,127.6836
191.9204,127.7331
191.9320,127.7914
191.9320,129.8186
191.9204,129.8769
191.8874,129.9264
191.8379,129.9594
191.7796,129.9710
190.5604,129.9710
190.5021,129.9594
190.4526,129.9264
190.4196,129.8769
190.4080,129.8186
190.4080,127.7914
190.4196,127.7331
190.4526,127.6836
190.5021,127.6506
190.5604,127.6390
Z" /> 
</g>
<g style="fill:#D864FF; fill-opacity:0.4000; stroke:none;">
<circle cx="191.1700" cy="128.0200" r="0.7620" /> 
</g>
<g style="fill:#D864FF; fill-opacity:0.4000; stroke:none;">
<circle cx="191.1700" cy="112.7800" r="0.7620" /> 
<path style="fill:#D864FF; fill-opacity:0.4000; stroke:none;fill-rule:evenodd;"
d="M 190.5604,113.1610
190.5021,113.1494
190.4526,113.1164
190.4196,113.0669
190.4080,113.0086
190.4080,110.9814
190.4196,110.9231
190.4526,110.8736
190.5021,110.8406
190.5604,110.8290
191.7796,110.8290
191.8379,110.8406
191.8874,110.8736
191.9204,110.9231
191.9320,110.9814
191.9320,113.0086
191.9204,113.0669
191.8874,113.1164
191.8379,113.1494
191.7796,113.1610
Z" /> 
</g>
<g style="fill:#D864FF; fill-opacity:0.4000; stroke:none;">
<circle cx="188.6300" cy="112.7800" r="0.7620" /> 
<path style="fill:#D864FF; fill-opacity:0.4000; stroke:none;fill-rule:evenodd;"
d="M 188.0204,113.1610
187.9621,113.1494
187.9126,113.1164
187.8796,113.0669
187.8680,113.0086
187.8680,110.9814
187.8796,110.9231
187.9126,110.8736
187.9621,110.8406
188.0204,110.8290
189.2396,110.8290
189.2979,110.8406
189.3474,110.8736
189.3804,110.9231
189.3920,110.9814
189.3920,113.0086
189.3804,113.0669
189.3474,113.1164
189.2979,113.1494
189.2396,113.1610
Z" /> 
</g>
<g style="fill:#D864FF; fill-opacity:0.4000; stroke:none;">
<circle cx="186.0900" cy="112.7800" r="0.7620" /> 
<path style="fill:#D864FF; fill-opacity:0.4000; stroke:none;fill-rule:evenodd;"
d="M 185.4804,113.1610
185.4221,113.1494
185.3726,113.1164
185.3396,113.0669
185.3280,113.0086
185.3280,110.9814
185.3396,110.9231
185.3726,110.8736
185.4221,110.8406
185.4804,110.8290
186.6996,110.8290
186.7579,110.8406
186.8074,110.8736
186.8404,110.9231
186.8520,110.9814
186.8520,113.0086
186.8404,113.0669
186.8074,113.1164
186.7579,113.1494
186.6996,113.1610
Z" /> 
</g>
<g style="fill:#D864FF; fill-opacity:0.4000; stroke:none;">
<circle cx="183.5500" cy="112.7800" r="0.7620" /> 
<path style="fill:#D864FF; fill-opacity:0.4000; stroke:none;fill-rule:evenodd;"
d="M 182.9404,113.1610
182.8821,113.1494
182.8326,113.1164
182.7996,113.0669
182.7880,113.0086
182.7880,110.9814
182.7996,110.9231
182.8326,110.8736
182.8821,110.8406
182.9404,110.8290
184.1596,110.8290
184.2179,110.8406
184.2674,110.8736
184.3004,110.9231
184.3120,110.9814
184.3120,113.0086
184.3004,113.0669
184.2674,113.1164
184.2179,113.1494
184.1596,113.1610
Z" /> 
</g>
<g style="fill:#D864FF; fill-opacity:0.4000; stroke:none;">
<circle cx="181.0100" cy="112.7800" r="0.7620" /> 
<path style="fill:#D864FF; fill-opacity:0.4000; stroke:none;fill-rule:evenodd;"
d="M 180.4004,113.1610
180.3421,113.1494
180.2926,113.1164
180.2596,113.0669
180.2480,113.0086
180.2480,110.9814
180.2596,110.9231
180.2926,110.8736
180.3421,110.8406
180.4004,110.8290
181.6196,110.8290
181.6779,110.8406
181.7274,110.8736
181.7604,110.9231
181.7720,110.9814
181.7720,113.0086
181.7604,113.0669
181.7274,113.1164
181.6779,113.1494
181.6196,113.1610
Z" /> 
</g>
<g style="fill:#D864FF; fill-opacity:0.4000; stroke:none;">
<circle cx="178.4700" cy="112.7800" r="0.7620" /> 
<path style="fill:#D864FF; fill-opacity:0.4000; stroke:none;fill-rule:evenodd;"
d="M 177.8604,113.1610
177.8021,113.1494
177.7526,113.1164
177.7196,113.0669
177.7080,113.0086
177.7080,110.9814
177.7196,110.9231
177.7526,110.8736
177.8021,110.8406
177.8604,110.8290
179.0796,110.8290
179.1379,110.8406
179.1874,110.8736
179.2204,110.9231
179.2320,110.9814
179.2320,113.0086
179.2204,113.0669
179.1874,113.1164
179.1379,113.1494
179.0796,113.1610
Z" /> 
</g>
<g style="fill:#D864FF; fill-opacity:0.4000; stroke:none;">
<circle cx="175.9300" cy="112.7800" r="0.7620" /> 
<path style="fill:#D864FF; fill-opacity:0.4000; stroke:none;fill-rule:evenodd;"
d="M 175.3204,113.1610
175.2621,113.1494
175.2126,113.1164
175.1796,113.0669
175.1680,113.0086
175.1680,110.9814
175.1796,110.9231
175.2126,110.8736
175.2621,110.8406
175.3204,110.8290
176.5396,110.8290
176.5979,110.8406
176.6474,110.8736
176.6804,110.9231
176.6920,110.9814
176.6920,113.0086
176.6804,113.0669
176.6474,113.1164
176.5979,113.1494
176.5396,113.1610
Z" /> 
</g>
<g style="fill:#D864FF; fill-opacity:0.4000; stroke:none;">
<circle cx="179.7400" cy="115.3990" r="0.8000" /> 
<path style="fill:#D864FF; fill-opacity:0.4000; stroke:none;fill-rule:evenodd;"
d="M 179.0800,115.4000
179.0264,115.3893
178.9810,115.3590
178.9507,115.3136
178.9400,115.2600
178.9400,114.1400
178.9507,114.0864
178.9810,114.0410
179.0264,114.0107
179.0800,114.0000
180.4000,114.0000
180.4536,114.0107
180.4990,114.0410
180.5293,114.0864
180.5400,114.1400
180.5400,115.2600
180.5293,115.3136
180.4990,115.3590
180.4536,115.3893
180.4000,115.4000
Z" /> 
</g>
<g style="fill:#D864FF; fill-opacity:0.4000; stroke:none;">
<circle cx="182.2800" cy="115.3990" r="0.8000" /> 
<path style="fill:#D864FF; fill-opacity:0.4000; stroke:none;fill-rule:evenodd;"
d="M 181.6200,115.4000
181.5664,115.3893
181.5210,115.3590
181.4907,115.3136
181.4800,115.2600
181.4800,114.1400
181.4907,114.0864
181.5210,114.0410
181.5664,114.0107
181.6200,114.0000
182.9400,114.0000
182.9936,114.0107
183.0390,114.0410
183.0693,114.0864
183.0800,114.1400
183.0800,115.2600
183.0693,115.3136
183.0390,115.3590
182.9936,115.3893
182.9400,115.4000
Z" /> 
</g>
<g style="fill:#D864FF; fill-opacity:0.4000; stroke:none;">
<circle cx="184.8200" cy="115.3990" r="0.8000" /> 
<path style="fill:#D864FF; fill-opacity:0.4000; stroke:none;fill-rule:evenodd;"
d="M 184.1600,115.4000
184.1064,115.3893
184.0610,115.3590
184.0307,115.3136
184.0200,115.2600
184.0200,114.1400
184.0307,114.0864
184.0610,114.0410
184.1064,114.0107
184.1600,114.0000
185.4800,114.0000
185.5336,114.0107
185.5790,114.0410
185.6093,114.0864
185.6200,114.1400
185.6200,115.2600
185.6093,115.3136
185.5790,115.3590
185.5336,115.3893
185.4800,115.4000
Z" /> 
</g>
<g style="fill:#D864FF; fill-opacity:0.4000; stroke:none;">
<circle cx="187.3600" cy="115.3990" r="0.8000" /> 
<path style="fill:#D864FF; fill-opacity:0.4000; stroke:none;fill-rule:evenodd;"
d="M 186.7000,115.4000
186.6464,115.3893
186.6010,115.3590
186.5707,115.3136
186.5600,115.2600
186.5600,114.1400
186.5707,114.0864
186.6010,114.0410
186.6464,114.0107
186.7000,114.0000
188.0200,114.0000
188.0736,114.0107
188.1190,114.0410
188.1493,114.0864
188.1600,114.1400
188.1600,115.2600
188.1493,115.3136
188.1190,115.3590
188.0736,115.3893
188.0200,115.4000
Z" /> 
<path style="fill:#D864FF; fill-opacity:0.4000; stroke:none;fill-rule:evenodd;"
d="M 186.7000,126.9590
186.6464,126.9483
186.6010,126.9180
186.5707,126.8726
186.5600,126.8190
186.5600,125.6990
186.5707,125.6454
186.6010,125.6000
186.6464,125.5697
186.7000,125.5590
188.0200,125.5590
188.0736,125.5697
188.1190,125.6000
188.1493,125.6454
188.1600,125.6990
188.1600,126.8190
188.1493,126.8726
188.1190,126.9180
188.0736,126.9483
188.0200,126.9590
Z" /> 
</g>
<g style="fill:#D864FF; fill-opacity:0.4000; stroke:none;">
<circle cx="187.3600" cy="125.5590" r="0.8000" /> 
<path style="fill:#D864FF; fill-opacity:0.4000; stroke:none;fill-rule:evenodd;"
d="M 184.1600,126.9590
184.1064,126.9483
184.0610,126.9180
184.0307,126.8726
184.0200,126.8190
184.0200,125.6990
184.0307,125.6454
184.0610,125.6000
184.1064,125.5697
184.1600,125.5590
185.4800,125.5590
185.5336,125.5697
185.5790,125.6000
185.6093,125.6454
185.6200,125.6990
185.6200,126.8190
185.6093,126.8726
185.5790,126.9180
185.5336,126.9483
185.4800,126.9590
Z" /> 
</g>
<g style="fill:#D864FF; fill-opacity:0.4000; stroke:none;">
<circle cx="184.8200" cy="125.5590" r="0.8000" /> 
<path style="fill:#D864FF; fill-opacity:0.4000; stroke:none;fill-rule:evenodd;"
d="M 181.6200,126.9590
181.5664,126.9483
181.5210,126.9180
181.4907,126.8726
181.4800,126.8190
181.4800,125.6990
181.4907,125.6454
181.5210,125.6000
181.5664,125.5697
181.6200,125.5590
182.9400,125.5590
182.9936,125.5697
183.0390,125.6000
183.0693,125.6454
183.0800,125.6990
183.0800,126.8190
183.0693,126.8726
183.0390,126.9180
182.9936,126.9483
182.9400,126.9590
Z" /> 
</g>
<g style="fill:#D864FF; fill-opacity:0.4000; stroke:none;">
<circle cx="182.2800" cy="125.5590" r="0.8000" /> 
<path style="fill:#D864FF; fill-opacity:0.4000; stroke:none;fill-rule:evenodd;"
d="M 179.0800,126.9590
179.0264,126.9483
178.9810,126.9180
178.9507,126.8726
178.9400,126.8190
178.9400,125.6990
178.9507,125.6454
178.9810,125.6000
179.0264,125.5697
179.0800,125.5590
180.4000,125.5590
180.4536,125.5697
180.4990,125.6000
180.5293,125.6454
180.5400,125.6990
180.5400,126.8190
180.5293,126.8726
180.4990,126.9180
180.4536,126.9483
180.4000,126.9590
Z" /> 
</g>
<g style="fill:#D864FF; fill-opacity:0.4000; stroke:none;">
<circle cx="179.7400" cy="125.5590" r="0.8000" /> 
<path style="fill:#D864FF; fill-opacity:0.4000; stroke:none;fill-rule:evenodd;"
d="M 189.0800,120.9600
189.0884,120.9179
189.1122,120.8822
189.1479,120.8584
189.1900,120.8500
190.5700,120.8500
190.6121,120.8584
190.6478,120.8822
190.6716,120.9179
190.6800,120.9600
190.6800,121.8400
190.6716,121.8821
190.6478,121.9178
190.6121,121.9416
190.5700,121.9500
189.1900,121.9500
189.1479,121.9416
189.1122,121.9178
189.0884,121.8821
189.0800,121.8400
Z" /> 
</g>
<g style="fill:#D864FF; fill-opacity:0.4000; stroke:none;">
<circle cx="189.1248" cy="121.4000" r="0.5500" /> 
<path style="fill:#D864FF; fill-opacity:0.4000; stroke:none;fill-rule:evenodd;"
d="M 189.0800,118.9600
189.0884,118.9179
189.1122,118.8822
189.1479,118.8584
189.1900,118.8500
190.5700,118.8500
190.6121,118.8584
190.6478,118.8822
190.6716,118.9179
190.6800,118.9600
190.6800,119.8400
190.6716,119.8821
190.6478,119.9178
190.6121,119.9416
190.5700,119.9500
189.1900,119.9500
189.1479,119.9416
189.1122,119.9178
189.0884,119.8821
189.0800,119.8400
Z" /> 
</g>
<g style="fill:#D864FF; fill-opacity:0.4000; stroke:none;">
<circle cx="189.1248" cy="119.4000" r="0.5500" /> 
<path style="fill:#D864FF; fill-opacity:0.4000; stroke:none;fill-rule:evenodd;"
d="M 243.7600,123.6650
243.7410,123.7607
243.6868,123.8418
243.6057,123.8960
243.5100,123.9150
242.8850,123.9150
242.7893,123.8960
242.7082,123.8418
242.6540,123.7607
242.6350,123.6650
242.6350,122.4150
242.6540,122.3193
242.7082,122.2382
242.7893,122.1840
242.8850,122.1650
243.5100,122.1650
243.6057,122.1840
243.6868,122.2382
243.7410,122.3193
243.7600,122.4150
Z" /> 
<path style="fill:#D864FF; fill-opacity:0.4000; stroke:none;fill-rule:evenodd;"
d="M 240.8350,123.6650
240.8160,123.7607
240.7618,123.8418
240.6807,123.8960
240.5850,123.9150
239.9600,123.9150
239.8643,123.8960
239.7832,123.8418
239.7290,123.7607
239.7100,123.6650
239.7100,122.4150
239.7290,122.3193
239.7832,122.2382
239.8643,122.1840
239.9600,122.1650
240.5850,122.1650
240.6807,122.1840
240.7618,122.2382
240.8160,122.3193
240.8350,122.4150
Z" /> 
<path style="fill:#D864FF; fill-opacity:0.4000; stroke:none;fill-rule:evenodd;"
d="M 236.1150,139.0700
236.0633,139.0597
236.0195,139.0305
235.9903,138.9867
235.9800,138.9350
235.9800,138.6650
235.9903,138.6133
236.0195,138.5695
236.0633,138.5403
236.1150,138.5300
236.4850,138.5300
236.5367,138.5403
236.5805,138.5695
236.6097,138.6133
236.6200,138.6650
236.6200,138.9350
236.6097,138.9867
236.5805,139.0305
236.5367,139.0597
236.4850,139.0700
Z" /> 
<path style="fill:#D864FF; fill-opacity:0.4000; stroke:none;fill-rule:evenodd;"
d="M 236.1150,138.0500
236.0633,138.0397
236.0195,138.0105
235.9903,137.9667
235.9800,137.9150
235.9800,137.6450
235.9903,137.5933
236.0195,137.5495
236.0633,137.5203
236.1150,137.5100
236.4850,137.5100
236.5367,137.5203
236.5805,137.5495
236.6097,137.5933
236.6200,137.6450
236.6200,137.9150
236.6097,137.9667
236.5805,138.0105
236.5367,138.0397
236.4850,138.0500
Z" /> 
<path style="fill:#D864FF; fill-opacity:0.4000; stroke:none;fill-rule:evenodd;"
d="M 231.8200,100.5500
230.1200,100.5500
230.1200,98.8500
231.8200,98.8500
Z" /> 
</g>
<g style="fill:#D864FF; fill-opacity:0.4000; stroke:none;">
<circle cx="233.5100" cy="99.7000" r="0.8500" /> 
</g>
<g style="fill:#D864FF; fill-opacity:0.4000; stroke:none;">
<circle cx="236.0500" cy="99.7000" r="0.8500" /> 
</g>
<g style="fill:#D864FF; fill-opacity:0.4000; stroke:none;">
<circle cx="238.5900" cy="99.7000" r="0.8500" /> 
</g>
<g style="fill:#D864FF; fill-opacity:0.4000; stroke:none;">
<circle cx="241.1300" cy="99.7000" r="0.8500" /> 
<path style="fill:#D864FF; fill-opacity:0.4000; stroke:none;fill-rule:evenodd;"
d="M 251.2350,130.3150
251.2198,130.3915
251.1764,130.4564
251.1115,130.4998
251.0350,130.5150
250.6350,130.5150
250.5585,130.4998
250.4936,130.4564
250.4502,130.3915
250.4350,130.3150
250.4350,129.7650
250.4502,129.6885
250.4936,129.6236
250.5585,129.5802
250.6350,129.5650
251.0350,129.5650
251.1115,129.5802
251.1764,129.6236
251.2198,129.6885
251.2350,129.7650
Z" /> 
<path style="fill:#D864FF; fill-opacity:0.4000; stroke:none;fill-rule:evenodd;"
d="M 249.5850,130.3150
249.5698,130.3915
249.5264,130.4564
249.4615,130.4998
249.3850,130.5150
248.9850,130.5150
248.9085,130.4998
248.8436,130.4564
248.8002,130.3915
248.7850,130.3150
248.7850,129.7650
248.8002,129.6885
248.8436,129.6236
248.9085,129.5802
248.9850,129.5650
249.3850,129.5650
249.4615,129.5802
249.5264,129.6236
249.5698,129.6885
249.5850,129.7650
Z" /> 
</g>
<g style="fill:#D864FF; fill-opacity:0.4000; stroke:none;">
<circle cx="242.8000" cy="108.3500" r="1.5000" /> 
<path style="fill:#D864FF; fill-opacity:0.4000; stroke:none;fill-rule:evenodd;"
d="M 239.7100,120.7900
239.7271,120.7039
239.7759,120.6309
239.8489,120.5821
239.9350,120.5650
240.3850,120.5650
240.4711,120.5821
240.5441,120.6309
240.5929,120.7039
240.6100,120.7900
240.6100,121.2900
240.5929,121.3761
240.5441,121.4491
240.4711,121.4979
240.3850,121.5150
239.9350,121.5150
239.8489,121.4979
239.7759,121.4491
239.7271,121.3761
239.7100,121.2900
Z" /> 
<path style="fill:#D864FF; fill-opacity:0.4000; stroke:none;fill-rule:evenodd;"
d="M 241.2600,120.7900
241.2771,120.7039
241.3259,120.6309
241.3989,120.5821
241.4850,120.5650
241.9350,120.5650
242.0211,120.5821
242.0941,120.6309
242.1429,120.7039
242.1600,120.7900
242.1600,121.2900
242.1429,121.3761
242.0941,121.4491
242.0211,121.4979
241.9350,121.5150
241.4850,121.5150
241.3989,121.4979
241.3259,121.4491
241.2771,121.3761
241.2600,121.2900
Z" /> 
<path style="fill:#D864FF; fill-opacity:0.4000; stroke:none;fill-rule:evenodd;"
d="M 227.3000,136.1000
227.3957,136.1190
227.4768,136.1732
227.5310,136.2543
227.5500,136.3500
227.5500,137.0000
227.5310,137.0957
227.4768,137.1768
227.3957,137.2310
227.3000,137.2500
226.0000,137.2500
225.9043,137.2310
225.8232,137.1768
225.7690,137.0957
225.7500,137.0000
225.7500,136.3500
225.7690,136.2543
225.8232,136.1732
225.9043,136.1190
226.0000,136.1000
Z" /> 
<path style="fill:#D864FF; fill-opacity:0.4000; stroke:none;fill-rule:evenodd;"
d="M 227.3000,139.0500
227.3957,139.0690
227.4768,139.1232
227.5310,139.2043
227.5500,139.3000
227.5500,139.9500
227.5310,140.0457
227.4768,140.1268
227.3957,140.1810
227.3000,140.2000
226.0000,140.2000
225.9043,140.1810
225.8232,140.1268
225.7690,140.0457
225.7500,139.9500
225.7500,139.3000
225.7690,139.2043
225.8232,139.1232
225.9043,139.0690
226.0000,139.0500
Z" /> 
</g>
<g style="fill:#D864FF; fill-opacity:0.4000; stroke:none;">
<circle cx="210.2090" cy="137.6090" r="0.4000" /> 
</g>
<g style="fill:#D864FF; fill-opacity:0.4000; stroke:none;">
<circle cx="210.8680" cy="136.0180" r="0.4000" /> 
</g>
<g style="fill:#D864FF; fill-opacity:0.4000; stroke:none;">
<circle cx="210.8680" cy="139.2000" r="0.4000" /> 
</g>
<g style="fill:#D864FF; fill-opacity:0.4000; stroke:none;">
<circle cx="212.4590" cy="135.3590" r="0.4000" /> 
</g>
<g style="fill:#D864FF; fill-opacity:0.4000; stroke:none;">
<circle cx="212.4590" cy="137.6090" r="3.0000" /> 
</g>
<g style="fill:#D864FF; fill-opacity:0.4000; stroke:none;">
<circle cx="212.4590" cy="139.8590" r="0.4000" /> 
</g>
<g style="fill:#D864FF; fill-opacity:0.4000; stroke:none;">
<circle cx="214.0500" cy="136.0180" r="0.4000" /> 
</g>
<g style="fill:#D864FF; fill-opacity:0.4000; stroke:none;">
<circle cx="214.0500" cy="139.2000" r="0.4000" /> 
</g>
<g style="fill:#D864FF; fill-opacity:0.4000; stroke:none;">
<circle cx="214.7090" cy="137.6090" r="0.4000" /> 
<path style="fill:#D864FF; fill-opacity:0.4000; stroke:none;fill-rule:evenodd;"
d="M 245.2600,120.9920
245.2210,120.9842
245.1879,120.9621
245.1658,120.9290
245.1580,120.8900
245.1580,120.1400
245.1658,120.1010
245.1879,120.0679
245.2210,120.0458
245.2600,120.0380
245.6600,120.0380
245.6990,120.0458
245.7321,120.0679
245.7542,120.1010
245.7620,120.1400
245.7620,120.8900
245.7542,120.9290
245.7321,120.9621
245.6990,120.9842
245.6600,120.9920
Z" /> 
<path style="fill:#D864FF; fill-opacity:0.4000; stroke:none;fill-rule:evenodd;"
d="M 245.9100,120.9920
245.8710,120.9842
245.8379,120.9621
245.8158,120.9290
245.8080,120.8900
245.8080,120.1400
245.8158,120.1010
245.8379,120.0679
245.8710,120.0458
245.9100,120.0380
246.3100,120.0380
246.3490,120.0458
246.3821,120.0679
246.4042,120.1010
246.4120,120.1400
246.4120,120.8900
246.4042,120.9290
246.3821,120.9621
246.3490,120.9842
246.3100,120.9920
Z" /> 
<path style="fill:#D864FF; fill-opacity:0.4000; stroke:none;fill-rule:evenodd;"
d="M 246.5600,120.9920
246.5210,120.9842
246.4879,120.9621
246.4658,120.9290
246.4580,120.8900
246.4580,120.1400
246.4658,120.1010
246.4879,120.0679
246.5210,120.0458
246.5600,120.0380
246.9600,120.0380
246.9990,120.0458
247.0321,120.0679
247.0542,120.1010
247.0620,120.1400
247.0620,120.8900
247.0542,120.9290
247.0321,120.9621
246.9990,120.9842
246.9600,120.9920
Z" /> 
<path style="fill:#D864FF; fill-opacity:0.4000; stroke:none;fill-rule:evenodd;"
d="M 247.2100,120.9920
247.1710,120.9842
247.1379,120.9621
247.1158,120.9290
247.1080,120.8900
247.1080,120.1400
247.1158,120.1010
247.1379,120.0679
247.1710,120.0458
247.2100,120.0380
247.6100,120.0380
247.6490,120.0458
247.6821,120.0679
247.7042,120.1010
247.7120,120.1400
247.7120,120.8900
247.7042,120.9290
247.6821,120.9621
247.6490,120.9842
247.6100,120.9920
Z" /> 
<path style="fill:#D864FF; fill-opacity:0.4000; stroke:none;fill-rule:evenodd;"
d="M 198.6200,113.7100
198.6200,112.0100
200.3200,112.0100
200.3200,113.7100
Z" /> 
</g>
<g style="fill:#D864FF; fill-opacity:0.4000; stroke:none;">
<circle cx="199.4700" cy="115.4000" r="0.8500" /> 
</g>
<g style="fill:#D864FF; fill-opacity:0.4000; stroke:none;">
<circle cx="199.4700" cy="117.9400" r="0.8500" /> 
</g>
<g style="fill:#D864FF; fill-opacity:0.4000; stroke:none;">
<circle cx="199.4700" cy="120.4800" r="0.8500" /> 
</g>
<g style="fill:#D864FF; fill-opacity:0.4000; stroke:none;">
<circle cx="199.4700" cy="123.0200" r="0.8500" /> 
</g>
<g style="fill:#D864FF; fill-opacity:0.4000; stroke:none;">
<circle cx="199.4700" cy="125.5600" r="0.8500" /> 
</g>
<g style="fill:#D864FF; fill-opacity:0.4000; stroke:none;">
<circle cx="199.4700" cy="128.1000" r="0.8500" /> 
</g>
<g style="fill:#D864FF; fill-opacity:0.4000; stroke:none;">
<circle cx="199.4700" cy="130.6400" r="0.8500" /> 
</g>
<g style="fill:#D864FF; fill-opacity:0.4000; stroke:none;">
<circle cx="213.1300" cy="115.4000" r="0.8500" /> 
</g>
<g style="fill:#D864FF; fill-opacity:0.4000; stroke:none;">
<circle cx="213.1300" cy="130.6400" r="0.8500" /> 
</g>
<g style="fill:#D864FF; fill-opacity:0.4000; stroke:none;">
<circle cx="213.1300" cy="128.1000" r="0.8500" /> 
</g>
<g style="fill:#D864FF; fill-opacity:0.4000; stroke:none;">
<circle cx="213.1300" cy="125.5600" r="0.8500" /> 
</g>
<g style="fill:#D864FF; fill-opacity:0.4000; stroke:none;">
<circle cx="213.1300" cy="123.0200" r="0.8500" /> 
</g>
<g style="fill:#D864FF; fill-opacity:0.4000; stroke:none;">
<circle cx="213.1300" cy="120.4800" r="0.8500" /> 
</g>
<g style="fill:#D864FF; fill-opacity:0.4000; stroke:none;">
<circle cx="213.1300" cy="117.9400" r="0.8500" /> 
</g>
<g style="fill:#D864FF; fill-opacity:0.4000; stroke:none;">
<circle cx="213.1300" cy="112.8600" r="0.8500" /> 
</g>
<g style="fill:#D864FF; fill-opacity:0.4000; stroke:none;">
<circle cx="175.4000" cy="137.6000" r="0.4000" /> 
</g>
<g style="fill:#D864FF; fill-opacity:0.4000; stroke:none;">
<circle cx="176.0590" cy="136.0090" r="0.4000" /> 
</g>
<g style="fill:#D864FF; fill-opacity:0.4000; stroke:none;">
<circle cx="176.0590" cy="139.1910" r="0.4000" /> 
</g>
<g style="fill:#D864FF; fill-opacity:0.4000; stroke:none;">
<circle cx="177.6500" cy="135.3500" r="0.4000" /> 
</g>
<g style="fill:#D864FF; fill-opacity:0.4000; stroke:none;">
<circle cx="177.6500" cy="137.6000" r="3.0000" /> 
</g>
<g style="fill:#D864FF; fill-opacity:0.4000; stroke:none;">
<circle cx="177.6500" cy="139.8500" r="0.4000" /> 
</g>
<g style="fill:#D864FF; fill-opacity:0.4000; stroke:none;">
<circle cx="179.2410" cy="136.0090" r="0.4000" /> 
</g>
<g style="fill:#D864FF; fill-opacity:0.4000; stroke:none;">
<circle cx="179.2410" cy="139.1910" r="0.4000" /> 
</g>
<g style="fill:#D864FF; fill-opacity:0.4000; stroke:none;">
<circle cx="179.9000" cy="137.6000" r="0.4000" /> 
<path style="fill:#D864FF; fill-opacity:0.4000; stroke:none;fill-rule:evenodd;"
d="M 249.1000,108.6500
249.1000,109.1500
249.0957,109.1500
249.0957,109.2153
249.0619,109.3413
248.9967,109.4544
248.9044,109.5467
248.7913,109.6119
248.6653,109.6457
248.6000,109.6457
248.6000,109.6500
248.1000,109.6500
248.1000,109.6457
248.0347,109.6457
247.9087,109.6119
247.7956,109.5467
247.7033,109.4544
247.6381,109.3413
247.6043,109.2153
247.6043,109.1500
247.6000,109.1500
247.6000,108.6500
Z" /> 
<path style="fill:#D864FF; fill-opacity:0.4000; stroke:none;fill-rule:evenodd;"
d="M 247.6043,107.8500
247.6043,107.7847
247.6381,107.6587
247.7033,107.5456
247.7956,107.4533
247.9087,107.3881
248.0347,107.3543
248.1000,107.3543
248.1000,107.3500
248.6000,107.3500
248.6000,107.3543
248.6653,107.3543
248.7913,107.3881
248.9044,107.4533
248.9967,107.5456
249.0619,107.6587
249.0957,107.7847
249.0957,107.8500
249.1000,107.8500
249.1000,108.3500
247.6000,108.3500
247.6000,107.8500
Z" /> 
<path style="fill:#D864FF; fill-opacity:0.4000; stroke:none;fill-rule:evenodd;"
d="M 245.6550,123.7650
245.6702,123.6885
245.7136,123.6236
245.7785,123.5802
245.8550,123.5650
246.2550,123.5650
246.3315,123.5802
246.3964,123.6236
246.4398,123.6885
246.4550,123.7650
246.4550,124.3150
246.4398,124.3915
246.3964,124.4564
246.3315,124.4998
246.2550,124.5150
245.8550,124.5150
245.7785,124.4998
245.7136,124.4564
245.6702,124.3915
245.6550,124.3150
Z" /> 
<path style="fill:#D864FF; fill-opacity:0.4000; stroke:none;fill-rule:evenodd;"
d="M 247.3050,123.7650
247.3202,123.6885
247.3636,123.6236
247.4285,123.5802
247.5050,123.5650
247.9050,123.5650
247.9815,123.5802
248.0464,123.6236
248.0898,123.6885
248.1050,123.7650
248.1050,124.3150
248.0898,124.3915
248.0464,124.4564
247.9815,124.4998
247.9050,124.5150
247.5050,124.5150
247.4285,124.4998
247.3636,124.4564
247.3202,124.3915
247.3050,124.3150
Z" /> 
<path style="fill:#D864FF; fill-opacity:0.4000; stroke:none;fill-rule:evenodd;"
d="M 199.0850,103.5750
199.0698,103.6515
199.0264,103.7164
198.9615,103.7598
198.8850,103.7750
198.4850,103.7750
198.4085,103.7598
198.3436,103.7164
198.3002,103.6515
198.2850,103.5750
198.2850,103.0250
198.3002,102.9485
198.3436,102.8836
198.4085,102.8402
198.4850,102.8250
198.8850,102.8250
198.9615,102.8402
199.0264,102.8836
199.0698,102.9485
199.0850,103.0250
Z" /> 
<path style="fill:#D864FF; fill-opacity:0.4000; stroke:none;fill-rule:evenodd;"
d="M 197.4350,103.5750
197.4198,103.6515
197.3764,103.7164
197.3115,103.7598
197.2350,103.7750
196.8350,103.7750
196.7585,103.7598
196.6936,103.7164
196.6502,103.6515
196.6350,103.5750
196.6350,103.0250
196.6502,102.9485
196.6936,102.8836
196.7585,102.8402
196.8350,102.8250
197.2350,102.8250
197.3115,102.8402
197.3764,102.8836
197.4198,102.9485
197.4350,103.0250
Z" /> 
<path style="fill:#D864FF; fill-opacity:0.4000; stroke:none;fill-rule:evenodd;"
d="M 185.6000,103.9750
183.9000,103.9750
183.9000,102.2750
185.6000,102.2750
Z" /> 
</g>
<g style="fill:#D864FF; fill-opacity:0.4000; stroke:none;">
<circle cx="184.7500" cy="100.5850" r="0.8500" /> 
</g>
<g style="fill:#D864FF; fill-opacity:0.4000; stroke:none;">
<circle cx="248.4500" cy="100.8000" r="0.4000" /> 
</g>
<g style="fill:#D864FF; fill-opacity:0.4000; stroke:none;">
<circle cx="249.1090" cy="99.2090" r="0.4000" /> 
</g>
<g style="fill:#D864FF; fill-opacity:0.4000; stroke:none;">
<circle cx="249.1090" cy="102.3910" r="0.4000" /> 
</g>
<g style="fill:#D864FF; fill-opacity:0.4000; stroke:none;">
<circle cx="250.7000" cy="98.5500" r="0.4000" /> 
</g>
<g style="fill:#D864FF; fill-opacity:0.4000; stroke:none;">
<circle cx="250.7000" cy="100.8000" r="3.0000" /> 
</g>
<g style="fill:#D864FF; fill-opacity:0.4000; stroke:none;">
<circle cx="250.7000" cy="103.0500" r="0.4000" /> 
</g>
<g style="fill:#D864FF; fill-opacity:0.4000; stroke:none;">
<circle cx="252.2910" cy="99.2090" r="0.4000" /> 
</g>
<g style="fill:#D864FF; fill-opacity:0.4000; stroke:none;">
<circle cx="252.2910" cy="102.3910" r="0.4000" /> 
</g>
<g style="fill:#D864FF; fill-opacity:0.4000; stroke:none;">
<circle cx="252.9500" cy="100.8000" r="0.4000" /> 
<path style="fill:#D864FF; fill-opacity:0.4000; stroke:none;fill-rule:evenodd;"
d="M 248.7300,126.2650
248.7452,126.1885
248.7886,126.1236
248.8535,126.0802
248.9300,126.0650
249.3300,126.0650
249.4065,126.0802
249.4714,126.1236
249.5148,126.1885
249.5300,126.2650
249.5300,126.8150
249.5148,126.8915
249.4714,126.9564
249.4065,126.9998
249.3300,127.0150
248.9300,127.0150
248.8535,126.9998
248.7886,126.9564
248.7452,126.8915
248.7300,126.8150
Z" /> 
<path style="fill:#D864FF; fill-opacity:0.4000; stroke:none;fill-rule:evenodd;"
d="M 250.3800,126.2650
250.3952,126.1885
250.4386,126.1236
250.5035,126.0802
250.5800,126.0650
250.9800,126.0650
251.0565,126.0802
251.1214,126.1236
251.1648,126.1885
251.1800,126.2650
251.1800,126.8150
251.1648,126.8915
251.1214,126.9564
251.0565,126.9998
250.9800,127.0150
250.5800,127.0150
250.5035,126.9998
250.4386,126.9564
250.3952,126.8915
250.3800,126.8150
Z" /> 
<path style="fill:#D864FF; fill-opacity:0.4000; stroke:none;fill-rule:evenodd;"
d="M 192.7000,103.9750
191.0000,103.9750
191.0000,102.2750
192.7000,102.2750
Z" /> 
</g>
<g style="fill:#D864FF; fill-opacity:0.4000; stroke:none;">
<circle cx="191.8500" cy="100.5850" r="0.8500" /> 
<path style="fill:#D864FF; fill-opacity:0.4000; stroke:none;fill-rule:evenodd;"
d="M 201.5400,137.6500
203.2400,137.6500
203.2400,139.3500
201.5400,139.3500
Z" /> 
</g>
<g style="fill:#D864FF; fill-opacity:0.4000; stroke:none;">
<circle cx="199.8500" cy="138.5000" r="0.8500" /> 
</g>
<g style="fill:#D864FF; fill-opacity:0.4000; stroke:none;">
<circle cx="197.3100" cy="138.5000" r="0.8500" /> 
</g>
<g style="fill:#D864FF; fill-opacity:0.4000; stroke:none;">
<circle cx="194.7700" cy="138.5000" r="0.8500" /> 
</g>
<g style="fill:#D864FF; fill-opacity:0.4000; stroke:none;">
<circle cx="192.2300" cy="138.5000" r="0.8500" /> 
</g>
<g style="fill:#D864FF; fill-opacity:0.4000; stroke:none;">
<circle cx="189.6900" cy="138.5000" r="0.8500" /> 
</g>
<g style="fill:#D864FF; fill-opacity:0.4000; stroke:none;">
<circle cx="187.1500" cy="138.5000" r="0.8500" /> 
</g>
<g style="fill:#D864FF; fill-opacity:0.4000; stroke:none;">
<circle cx="184.6100" cy="138.5000" r="0.8500" /> 
<path style="fill:#D864FF; fill-opacity:0.4000; stroke:none;fill-rule:evenodd;"
d="M 241.9300,126.9150
241.8439,126.8979
241.7709,126.8491
241.7221,126.7761
241.7050,126.6900
241.7050,126.2400
241.7221,126.1539
241.7709,126.0809
241.8439,126.0321
241.9300,126.0150
242.4300,126.0150
242.5161,126.0321
242.5891,126.0809
242.6379,126.1539
242.6550,126.2400
242.6550,126.6900
242.6379,126.7761
242.5891,126.8491
242.5161,126.8979
242.4300,126.9150
Z" /> 
<path style="fill:#D864FF; fill-opacity:0.4000; stroke:none;fill-rule:evenodd;"
d="M 241.9300,125.3650
241.8439,125.3479
241.7709,125.2991
241.7221,125.2261
241.7050,125.1400
241.7050,124.6900
241.7221,124.6039
241.7709,124.5309
241.8439,124.4821
241.9300,124.4650
242.4300,124.4650
242.5161,124.4821
242.5891,124.5309
242.6379,124.6039
242.6550,124.6900
242.6550,125.1400
242.6379,125.2261
242.5891,125.2991
242.5161,125.3479
242.4300,125.3650
Z" /> 
<path style="fill:#D864FF; fill-opacity:0.4000; stroke:none;fill-rule:evenodd;"
d="M 248.6200,120.4700
248.6307,120.4164
248.6610,120.3710
248.7064,120.3407
248.7600,120.3300
249.0400,120.3300
249.0936,120.3407
249.1390,120.3710
249.1693,120.4164
249.1800,120.4700
249.1800,120.8100
249.1693,120.8636
249.1390,120.9090
249.0936,120.9393
249.0400,120.9500
248.7600,120.9500
248.7064,120.9393
248.6610,120.9090
248.6307,120.8636
248.6200,120.8100
Z" /> 
<path style="fill:#D864FF; fill-opacity:0.4000; stroke:none;fill-rule:evenodd;"
d="M 249.5800,120.4700
249.5907,120.4164
249.6210,120.3710
249.6664,120.3407
249.7200,120.3300
250.0000,120.3300
250.0536,120.3407
250.0990,120.3710
250.1293,120.4164
250.1400,120.4700
250.1400,120.8100
250.1293,120.8636
250.0990,120.9090
250.0536,120.9393
250.0000,120.9500
249.7200,120.9500
249.6664,120.9393
249.6210,120.9090
249.5907,120.8636
249.5800,120.8100
Z" /> 
<path style="fill:#D864FF; fill-opacity:0.4000; stroke:none;fill-rule:evenodd;"
d="M 232.9900,135.4300
233.0007,135.3764
233.0310,135.3310
233.0764,135.3007
233.1300,135.2900
233.4100,135.2900
233.4636,135.3007
233.5090,135.3310
233.5393,135.3764
233.5500,135.4300
233.5500,135.7700
233.5393,135.8236
233.5090,135.8690
233.4636,135.8993
233.4100,135.9100
233.1300,135.9100
233.0764,135.8993
233.0310,135.8690
233.0007,135.8236
232.9900,135.7700
Z" /> 
<path style="fill:#D864FF; fill-opacity:0.4000; stroke:none;fill-rule:evenodd;"
d="M 233.9500,135.4300
233.9607,135.3764
233.9910,135.3310
234.0364,135.3007
234.0900,135.2900
234.3700,135.2900
234.4236,135.3007
234.4690,135.3310
234.4993,135.3764
234.5100,135.4300
234.5100,135.7700
234.4993,135.8236
234.4690,135.8690
234.4236,135.8993
234.3700,135.9100
234.0900,135.9100
234.0364,135.8993
233.9910,135.8690
233.9607,135.8236
233.9500,135.7700
Z" /> 
<path style="fill:#D864FF; fill-opacity:0.4000; stroke:none;fill-rule:evenodd;"
d="M 245.6550,122.2150
245.6702,122.1385
245.7136,122.0736
245.7785,122.0302
245.8550,122.0150
246.2550,122.0150
246.3315,122.0302
246.3964,122.0736
246.4398,122.1385
246.4550,122.2150
246.4550,122.7650
246.4398,122.8415
246.3964,122.9064
246.3315,122.9498
246.2550,122.9650
245.8550,122.9650
245.7785,122.9498
245.7136,122.9064
245.6702,122.8415
245.6550,122.7650
Z" /> 
<path style="fill:#D864FF; fill-opacity:0.4000; stroke:none;fill-rule:evenodd;"
d="M 247.3050,122.2150
247.3202,122.1385
247.3636,122.0736
247.4285,122.0302
247.5050,122.0150
247.9050,122.0150
247.9815,122.0302
248.0464,122.0736
248.0898,122.1385
248.1050,122.2150
248.1050,122.7650
248.0898,122.8415
248.0464,122.9064
247.9815,122.9498
247.9050,122.9650
247.5050,122.9650
247.4285,122.9498
247.3636,122.9064
247.3202,122.8415
247.3050,122.7650
Z" /> 
<path style="fill:#D864FF; fill-opacity:0.4000; stroke:none;fill-rule:evenodd;"
d="M 189.1500,103.9750
187.4500,103.9750
187.4500,102.2750
189.1500,102.2750
Z" /> 
</g>
<g style="fill:#D864FF; fill-opacity:0.4000; stroke:none;">
<circle cx="188.3000" cy="100.5850" r="0.8500" /> 
<path style="fill:#D864FF; fill-opacity:0.4000; stroke:none;fill-rule:evenodd;"
d="M 206.8900,99.7000
208.5900,99.7000
208.5900,101.4000
206.8900,101.4000
Z" /> 
</g>
<g style="fill:#D864FF; fill-opacity:0.4000; stroke:none;">
<circle cx="205.2000" cy="100.5500" r="0.8500" /> 
</g>
<g style="fill:#D864FF; fill-opacity:0.4000; stroke:none;">
<circle cx="202.6600" cy="100.5500" r="0.8500" /> 
</g>
<g style="fill:#D864FF; fill-opacity:0.4000; stroke:none;">
<circle cx="200.1200" cy="100.5500" r="0.8500" /> 
</g>
<g style="fill:#D864FF; fill-opacity:0.4000; stroke:none;">
<circle cx="197.5800" cy="100.5500" r="0.8500" /> 
<path style="fill:#D864FF; fill-opacity:0.4000; stroke:none;fill-rule:evenodd;"
d="M 248.7050,121.6150
248.7202,121.5385
248.7636,121.4736
248.8285,121.4302
248.9050,121.4150
249.3050,121.4150
249.3815,121.4302
249.4464,121.4736
249.4898,121.5385
249.5050,121.6150
249.5050,122.1650
249.4898,122.2415
249.4464,122.3064
249.3815,122.3498
249.3050,122.3650
248.9050,122.3650
248.8285,122.3498
248.7636,122.3064
248.7202,122.2415
248.7050,122.1650
Z" /> 
<path style="fill:#D864FF; fill-opacity:0.4000; stroke:none;fill-rule:evenodd;"
d="M 250.3550,121.6150
250.3702,121.5385
250.4136,121.4736
250.4785,121.4302
250.5550,121.4150
250.9550,121.4150
251.0315,121.4302
251.0964,121.4736
251.1398,121.5385
251.1550,121.6150
251.1550,122.1650
251.1398,122.2415
251.0964,122.3064
251.0315,122.3498
250.9550,122.3650
250.5550,122.3650
250.4785,122.3498
250.4136,122.3064
250.3702,122.2415
250.3550,122.1650
Z" /> 
<path style="fill:#D864FF; fill-opacity:0.4000; stroke:none;fill-rule:evenodd;"
d="M 241.7800,128.3795
241.7410,128.3717
241.7079,128.3496
241.6858,128.3165
241.6780,128.2775
241.6780,127.7275
241.6858,127.6885
241.7079,127.6554
241.7410,127.6333
241.7800,127.6255
242.5800,127.6255
242.6190,127.6333
242.6521,127.6554
242.6742,127.6885
242.6820,127.7275
242.6820,128.2775
242.6742,128.3165
242.6521,128.3496
242.6190,128.3717
242.5800,128.3795
Z" /> 
<path style="fill:#D864FF; fill-opacity:0.4000; stroke:none;fill-rule:evenodd;"
d="M 241.7800,129.6295
241.7410,129.6217
241.7079,129.5996
241.6858,129.5665
241.6780,129.5275
241.6780,128.9775
241.6858,128.9385
241.7079,128.9054
241.7410,128.8833
241.7800,128.8755
242.5800,128.8755
242.6190,128.8833
242.6521,128.9054
242.6742,128.9385
242.6820,128.9775
242.6820,129.5275
242.6742,129.5665
242.6521,129.5996
242.6190,129.6217
242.5800,129.6295
Z" /> 
<path style="fill:#D864FF; fill-opacity:0.4000; stroke:none;fill-rule:evenodd;"
d="M 249.9230,116.5000
249.9308,116.4610
249.9529,116.4279
249.9860,116.4058
250.0250,116.3980
250.5750,116.3980
250.6140,116.4058
250.6471,116.4279
250.6692,116.4610
250.6770,116.5000
250.6770,117.3000
250.6692,117.3390
250.6471,117.3721
250.6140,117.3942
250.5750,117.4020
250.0250,117.4020
249.9860,117.3942
249.9529,117.3721
249.9308,117.3390
249.9230,117.3000
Z" /> 
<path style="fill:#D864FF; fill-opacity:0.4000; stroke:none;fill-rule:evenodd;"
d="M 248.6730,116.5000
248.6808,116.4610
248.7029,116.4279
248.7360,116.4058
248.7750,116.3980
249.3250,116.3980
249.3640,116.4058
249.3971,116.4279
249.4192,116.4610
249.4270,116.5000
249.4270,117.3000
249.4192,117.3390
249.3971,117.3721
249.3640,117.3942
249.3250,117.4020
248.7750,117.4020
248.7360,117.3942
248.7029,117.3721
248.6808,117.3390
248.6730,117.3000
Z" /> 
<path style="fill:#D864FF; fill-opacity:0.4000; stroke:none;fill-rule:evenodd;"
d="M 197.1750,125.0750
197.0985,125.0598
197.0336,125.0164
196.9902,124.9515
196.9750,124.8750
196.9750,124.4750
196.9902,124.3985
197.0336,124.3336
197.0985,124.2902
197.1750,124.2750
197.7250,124.2750
197.8015,124.2902
197.8664,124.3336
197.9098,124.3985
197.9250,124.4750
197.9250,124.8750
197.9098,124.9515
197.8664,125.0164
197.8015,125.0598
197.7250,125.0750
Z" /> 
<path style="fill:#D864FF; fill-opacity:0.4000; stroke:none;fill-rule:evenodd;"
d="M 197.1750,123.4250
197.0985,123.4098
197.0336,123.3664
196.9902,123.3015
196.9750,123.2250
196.9750,122.8250
196.9902,122.7485
197.0336,122.6836
197.0985,122.6402
197.1750,122.6250
197.7250,122.6250
197.8015,122.6402
197.8664,122.6836
197.9098,122.7485
197.9250,122.8250
197.9250,123.2250
197.9098,123.3015
197.8664,123.3664
197.8015,123.4098
197.7250,123.4250
Z" /> 
</g>
<g style="fill:#D864FF; fill-opacity:0.4000; stroke:none;">
<circle cx="228.0000" cy="123.8000" r="1.5000" /> 
<path style="fill:#D864FF; fill-opacity:0.4000; stroke:none;fill-rule:evenodd;"
d="M 228.7130,136.6022
228.7206,136.5643
228.7421,136.5321
228.7743,136.5106
228.8122,136.5030
230.2677,136.5030
230.3057,136.5106
230.3379,136.5321
230.3594,136.5643
230.3670,136.6022
230.3670,137.1977
230.3594,137.2357
230.3379,137.2679
230.3057,137.2894
230.2677,137.2970
228.8122,137.2970
228.7743,137.2894
228.7421,137.2679
228.7206,137.2357
228.7130,137.1977
Z" /> 
<path style="fill:#D864FF; fill-opacity:0.4000; stroke:none;fill-rule:evenodd;"
d="M 228.7130,137.5522
228.7206,137.5143
228.7421,137.4821
228.7743,137.4606
228.8122,137.4530
230.2677,137.4530
230.3057,137.4606
230.3379,137.4821
230.3594,137.5143
230.3670,137.5522
230.3670,138.1478
230.3594,138.1857
230.3379,138.2179
230.3057,138.2394
230.2677,138.2470
228.8122,138.2470
228.7743,138.2394
228.7421,138.2179
228.7206,138.1857
228.7130,138.1478
Z" /> 
<path style="fill:#D864FF; fill-opacity:0.4000; stroke:none;fill-rule:evenodd;"
d="M 228.7130,138.5023
228.7206,138.4643
228.7421,138.4321
228.7743,138.4106
228.8122,138.4030
230.2677,138.4030
230.3057,138.4106
230.3379,138.4321
230.3594,138.4643
230.3670,138.5023
230.3670,139.0977
230.3594,139.1357
230.3379,139.1679
230.3057,139.1894
230.2677,139.1970
228.8122,139.1970
228.7743,139.1894
228.7421,139.1679
228.7206,139.1357
228.7130,139.0977
Z" /> 
<path style="fill:#D864FF; fill-opacity:0.4000; stroke:none;fill-rule:evenodd;"
d="M 231.0230,138.5023
231.0306,138.4643
231.0521,138.4321
231.0843,138.4106
231.1222,138.4030
232.5777,138.4030
232.6157,138.4106
232.6479,138.4321
232.6694,138.4643
232.6770,138.5023
232.6770,139.0977
232.6694,139.1357
232.6479,139.1679
232.6157,139.1894
232.5777,139.1970
231.1222,139.1970
231.0843,139.1894
231.0521,139.1679
231.0306,139.1357
231.0230,139.0977
Z" /> 
<path style="fill:#D864FF; fill-opacity:0.4000; stroke:none;fill-rule:evenodd;"
d="M 231.0230,137.5522
231.0306,137.5143
231.0521,137.4821
231.0843,137.4606
231.1222,137.4530
232.5777,137.4530
232.6157,137.4606
232.6479,137.4821
232.6694,137.5143
232.6770,137.5522
232.6770,138.1478
232.6694,138.1857
232.6479,138.2179
232.6157,138.2394
232.5777,138.2470
231.1222,138.2470
231.0843,138.2394
231.0521,138.2179
231.0306,138.1857
231.0230,138.1478
Z" /> 
<path style="fill:#D864FF; fill-opacity:0.4000; stroke:none;fill-rule:evenodd;"
d="M 231.0230,136.6022
231.0306,136.5643
231.0521,136.5321
231.0843,136.5106
231.1222,136.5030
232.5777,136.5030
232.6157,136.5106
232.6479,136.5321
232.6694,136.5643
232.6770,136.6022
232.6770,137.1977
232.6694,137.2357
232.6479,137.2679
232.6157,137.2894
232.5777,137.2970
231.1222,137.2970
231.0843,137.2894
231.0521,137.2679
231.0306,137.2357
231.0230,137.1977
Z" /> 
<path style="fill:#D864FF; fill-opacity:0.4000; stroke:none;fill-rule:evenodd;"
d="M 226.8000,128.9750
226.7810,129.0707
226.7268,129.1518
226.6457,129.2060
226.5500,129.2250
226.0500,129.2250
225.9543,129.2060
225.8732,129.1518
225.8190,129.0707
225.8000,128.9750
225.8000,128.0250
225.8190,127.9293
225.8732,127.8482
225.9543,127.7940
226.0500,127.7750
226.5500,127.7750
226.6457,127.7940
226.7268,127.8482
226.7810,127.9293
226.8000,128.0250
Z" /> 
<path style="fill:#D864FF; fill-opacity:0.4000; stroke:none;fill-rule:evenodd;"
d="M 224.9000,128.9750
224.8810,129.0707
224.8268,129.1518
224.7457,129.2060
224.6500,129.2250
224.1500,129.2250
224.0543,129.2060
223.9732,129.1518
223.9190,129.0707
223.9000,128.9750
223.9000,128.0250
223.9190,127.9293
223.9732,127.8482
224.0543,127.7940
224.1500,127.7750
224.6500,127.7750
224.7457,127.7940
224.8268,127.8482
224.8810,127.9293
224.9000,128.0250
Z" /> 
<path style="fill:#D864FF; fill-opacity:0.4000; stroke:none;fill-rule:evenodd;"
d="M 186.8000,106.7900
186.7848,106.8665
186.7414,106.9314
186.6765,106.9748
186.6000,106.9900
186.2000,106.9900
186.1235,106.9748
186.0586,106.9314
186.0152,106.8665
186.0000,106.7900
186.0000,106.2400
186.0152,106.1635
186.0586,106.0986
186.1235,106.0552
186.2000,106.0400
186.6000,106.0400
186.6765,106.0552
186.7414,106.0986
186.7848,106.1635
186.8000,106.2400
Z" /> 
<path style="fill:#D864FF; fill-opacity:0.4000; stroke:none;fill-rule:evenodd;"
d="M 185.1500,106.7900
185.1348,106.8665
185.0914,106.9314
185.0265,106.9748
184.9500,106.9900
184.5500,106.9900
184.4735,106.9748
184.4086,106.9314
184.3652,106.8665
184.3500,106.7900
184.3500,106.2400
184.3652,106.1635
184.4086,106.0986
184.4735,106.0552
184.5500,106.0400
184.9500,106.0400
185.0265,106.0552
185.0914,106.0986
185.1348,106.1635
185.1500,106.2400
Z" /> 
</g>
<g style="fill:#D864FF; fill-opacity:0.4000; stroke:none;">
<circle cx="222.9500" cy="123.8000" r="1.5000" /> 
</g>
<g style="fill:#D864FF; fill-opacity:0.4000; stroke:none;">
<circle cx="238.3500" cy="108.3000" r="1.5000" /> 
<path style="fill:#D864FF; fill-opacity:0.4000; stroke:none;fill-rule:evenodd;"
d="M 248.7300,123.1900
248.7471,123.1039
248.7959,123.0309
248.8689,122.9821
248.9550,122.9650
249.4050,122.9650
249.4911,122.9821
249.5641,123.0309
249.6129,123.1039
249.6300,123.1900
249.6300,123.6900
249.6129,123.7761
249.5641,123.8491
249.4911,123.8979
249.4050,123.9150
248.9550,123.9150
248.8689,123.8979
248.7959,123.8491
248.7471,123.7761
248.7300,123.6900
Z" /> 
<path style="fill:#D864FF; fill-opacity:0.4000; stroke:none;fill-rule:evenodd;"
d="M 250.2800,123.1900
250.2971,123.1039
250.3459,123.0309
250.4189,122.9821
250.5050,122.9650
250.9550,122.9650
251.0411,122.9821
251.1141,123.0309
251.1629,123.1039
251.1800,123.1900
251.1800,123.6900
251.1629,123.7761
251.1141,123.8491
251.0411,123.8979
250.9550,123.9150
250.5050,123.9150
250.4189,123.8979
250.3459,123.8491
250.2971,123.7761
250.2800,123.6900
Z" /> 
</g>
<g style="fill:#D864FF; fill-opacity:0.4000; stroke:none;">
<circle cx="242.3800" cy="137.1000" r="0.3250" /> 
</g>
<g style="fill:#D864FF; fill-opacity:0.4000; stroke:none;">
<circle cx="248.1600" cy="137.1000" r="0.3250" /> 
<path style="fill:#D864FF; fill-opacity:0.4000; stroke:none;fill-rule:evenodd;"
d="M 241.7200,136.3800
241.7200,134.9300
242.3200,134.9300
242.3200,136.3800
Z" /> 
<path style="fill:#D864FF; fill-opacity:0.4000; stroke:none;fill-rule:evenodd;"
d="M 242.5200,136.3800
242.5200,134.9300
243.1200,134.9300
243.1200,136.3800
Z" /> 
<path style="fill:#D864FF; fill-opacity:0.4000; stroke:none;fill-rule:evenodd;"
d="M 243.8700,136.3800
243.8700,134.9300
244.1700,134.9300
244.1700,136.3800
Z" /> 
<path style="fill:#D864FF; fill-opacity:0.4000; stroke:none;fill-rule:evenodd;"
d="M 244.8700,136.3800
244.8700,134.9300
245.1700,134.9300
245.1700,136.3800
Z" /> 
<path style="fill:#D864FF; fill-opacity:0.4000; stroke:none;fill-rule:evenodd;"
d="M 245.3700,136.3800
245.3700,134.9300
245.6700,134.9300
245.6700,136.3800
Z" /> 
<path style="fill:#D864FF; fill-opacity:0.4000; stroke:none;fill-rule:evenodd;"
d="M 246.3700,136.3800
246.3700,134.9300
246.6700,134.9300
246.6700,136.3800
Z" /> 
<path style="fill:#D864FF; fill-opacity:0.4000; stroke:none;fill-rule:evenodd;"
d="M 247.4200,136.3800
247.4200,134.9300
248.0200,134.9300
248.0200,136.3800
Z" /> 
<path style="fill:#D864FF; fill-opacity:0.4000; stroke:none;fill-rule:evenodd;"
d="M 248.2200,136.3800
248.2200,134.9300
248.8200,134.9300
248.8200,136.3800
Z" /> 
<path style="fill:#D864FF; fill-opacity:0.4000; stroke:none;fill-rule:evenodd;"
d="M 248.2200,136.3800
248.2200,134.9300
248.8200,134.9300
248.8200,136.3800
Z" /> 
<path style="fill:#D864FF; fill-opacity:0.4000; stroke:none;fill-rule:evenodd;"
d="M 247.4200,136.3800
247.4200,134.9300
248.0200,134.9300
248.0200,136.3800
Z" /> 
<path style="fill:#D864FF; fill-opacity:0.4000; stroke:none;fill-rule:evenodd;"
d="M 246.8700,136.3800
246.8700,134.9300
247.1700,134.9300
247.1700,136.3800
Z" /> 
<path style="fill:#D864FF; fill-opacity:0.4000; stroke:none;fill-rule:evenodd;"
d="M 245.8700,136.3800
245.8700,134.9300
246.1700,134.9300
246.1700,136.3800
Z" /> 
<path style="fill:#D864FF; fill-opacity:0.4000; stroke:none;fill-rule:evenodd;"
d="M 244.3700,136.3800
244.3700,134.9300
244.6700,134.9300
244.6700,136.3800
Z" /> 
<path style="fill:#D864FF; fill-opacity:0.4000; stroke:none;fill-rule:evenodd;"
d="M 243.3700,136.3800
243.3700,134.9300
243.6700,134.9300
243.6700,136.3800
Z" /> 
<path style="fill:#D864FF; fill-opacity:0.4000; stroke:none;fill-rule:evenodd;"
d="M 242.5200,136.3800
242.5200,134.9300
243.1200,134.9300
243.1200,136.3800
Z" /> 
<path style="fill:#D864FF; fill-opacity:0.4000; stroke:none;fill-rule:evenodd;"
d="M 241.7200,136.3800
241.7200,134.9300
242.3200,134.9300
242.3200,136.3800
Z" /> 
</g>
<g style="fill:none; 
stroke:#D864FF; stroke-width:1.0000; stroke-opacity:1; 
stroke-linecap:round; stroke-linejoin:round;">
<path d="M240.9500 136.0200
L240.9500 137.1200
" />
<path d="M240.9500 140.4500
L240.9500 141.0500
" />
<path d="M249.5900 136.0200
L249.5900 137.1200
" />
<path d="M249.5900 140.4500
L249.5900 141.0500
" />
<path style="fill:#D864FF; fill-opacity:0.4000; stroke:none;fill-rule:evenodd;"
d="M 248.7100,118.3150
248.7290,118.2193
248.7832,118.1382
248.8643,118.0840
248.9600,118.0650
249.5850,118.0650
249.6807,118.0840
249.7618,118.1382
249.8160,118.2193
249.8350,118.3150
249.8350,119.5650
249.8160,119.6607
249.7618,119.7418
249.6807,119.7960
249.5850,119.8150
248.9600,119.8150
248.8643,119.7960
248.7832,119.7418
248.7290,119.6607
248.7100,119.5650
Z" /> 
<path style="fill:#D864FF; fill-opacity:0.4000; stroke:none;fill-rule:evenodd;"
d="M 251.6350,118.3150
251.6540,118.2193
251.7082,118.1382
251.7893,118.0840
251.8850,118.0650
252.5100,118.0650
252.6057,118.0840
252.6868,118.1382
252.7410,118.2193
252.7600,118.3150
252.7600,119.5650
252.7410,119.6607
252.6868,119.7418
252.6057,119.7960
252.5100,119.8150
251.8850,119.8150
251.7893,119.7960
251.7082,119.7418
251.6540,119.6607
251.6350,119.5650
Z" /> 
<path style="fill:#D864FF; fill-opacity:0.4000; stroke:none;fill-rule:evenodd;"
d="M 246.2800,131.3900
246.2990,131.2943
246.3532,131.2132
246.4343,131.1590
246.5300,131.1400
247.1800,131.1400
247.2757,131.1590
247.3568,131.2132
247.4110,131.2943
247.4300,131.3900
247.4300,132.6900
247.4110,132.7857
247.3568,132.8668
247.2757,132.9210
247.1800,132.9400
246.5300,132.9400
246.4343,132.9210
246.3532,132.8668
246.2990,132.7857
246.2800,132.6900
Z" /> 
<path style="fill:#D864FF; fill-opacity:0.4000; stroke:none;fill-rule:evenodd;"
d="M 249.2300,131.3900
249.2490,131.2943
249.3032,131.2132
249.3843,131.1590
249.4800,131.1400
250.1300,131.1400
250.2257,131.1590
250.3068,131.2132
250.3610,131.2943
250.3800,131.3900
250.3800,132.6900
250.3610,132.7857
250.3068,132.8668
250.2257,132.9210
250.1300,132.9400
249.4800,132.9400
249.3843,132.9210
249.3032,132.8668
249.2490,132.7857
249.2300,132.6900
Z" /> 
</g> 
</svg>
